<svg xmlns="http://www.w3.org/2000/svg" viewBox="0 0 100 100" fill="none">
<rect width="100" height="100" rx="22" fill="#FF5233"></rect><svg x="26.6" y="21" width="46.8" height="58" viewBox="0 0 100 124"><path fill="#FCFBF8" fill-rule="evenodd" d="M50 4 C25.7 4 6 23.7 6 48 C6 80 50 120 50 120 C50 120 94 80 94 48 C94 23.7 74.3 4 50 4 Z M50 30 C40 30 31.9 38.1 31.9 48.1 C31.9 58.1 40 66.2 50 66.2 C60 66.2 68.1 58.1 68.1 48.1 C68.1 38.1 60 30 50 30 Z"></path><line x1="54" y1="50" x2="73" y2="69" stroke="#FCFBF8" stroke-width="13.5" stroke-linecap="round"></line></svg>
</svg>