<svg xmlns="http://www.w3.org/2000/svg" viewBox="0 0 595 600" class="city-map-svg">
  <g class="stadtteile-group">
	<path id="stadtteil-0" class="stadtteil-path" d="M 371.72,341.11 L 370.60,341.88 L 369.63,340.34 L 368.62,338.73 L 368.28,337.65 L 368.15,337.26 L 367.09,333.92 L 368.44,333.59 L 370.95,332.98 L 371.68,331.55 L 372.58,329.85 L 372.13,329.32 L 372.50,327.07 L 373.97,325.53 L 375.51,324.67 L 375.03,323.84 L 376.07,323.46 L 377.85,322.47 L 379.22,321.70 L 382.00,320.15 L 382.82,319.94 L 382.90,320.32 L 385.63,320.00 L 386.24,320.17 L 387.73,320.02 L 387.87,318.31 L 390.57,318.15 L 390.65,319.68 L 390.66,319.90 L 390.71,321.07 L 390.72,321.33 L 390.84,323.77 L 390.94,324.41 L 391.24,326.37 L 391.22,326.61 L 391.16,327.58 L 390.95,330.97 L 390.35,331.05 L 389.72,331.13 L 389.82,331.42 L 390.37,332.92 L 390.38,333.71 L 390.41,335.85 L 380.29,337.10 L 375.23,338.81 L 371.72,341.11 Z" data-name="Altstadt" data-bezirk="Innenstadt I" />
	<path id="stadtteil-1" class="stadtteil-path" d="M 343.68,335.01 L 343.62,334.98 L 341.20,333.20 L 341.70,332.88 L 344.18,331.35 L 346.23,330.07 L 346.29,330.03 L 348.65,328.58 L 349.30,328.17 L 351.70,326.70 L 353.44,324.85 L 354.37,323.93 L 355.50,322.75 L 356.17,323.92 L 357.04,325.37 L 357.64,326.38 L 359.90,330.17 L 360.85,331.80 L 361.95,333.63 L 363.22,335.77 L 363.38,336.34 L 364.08,338.96 L 364.75,341.41 L 365.69,342.84 L 366.72,344.41 L 365.64,345.12 L 361.68,348.76 L 361.05,349.35 L 357.06,353.02 L 356.28,351.88 L 356.25,351.83 L 355.40,350.54 L 355.22,350.25 L 355.16,350.17 L 354.64,349.38 L 353.67,347.92 L 352.62,346.31 L 352.50,346.16 L 350.85,343.97 L 349.50,342.20 L 349.47,342.16 L 349.73,341.07 L 348.82,338.72 L 346.78,337.10 L 346.46,336.94 L 346.32,336.87 L 345.82,336.61 L 345.71,336.53 L 343.68,335.01 Z" data-name="Bahnhofsviertel" data-bezirk="Innenstadt I" />
	<path id="stadtteil-2" class="stadtteil-path" d="M 341.14,390.70 L 339.48,393.73 L 337.46,393.59 L 324.59,392.64 L 323.96,393.72 L 321.56,399.64 L 321.59,400.45 L 321.65,401.18 L 324.72,408.89 L 325.92,411.05 L 327.77,414.41 L 328.79,416.24 L 329.08,416.75 L 330.69,419.64 L 329.40,421.22 L 326.29,423.77 L 324.28,425.41 L 323.38,425.41 L 321.34,425.41 L 318.65,425.08 L 315.46,424.72 L 315.18,425.08 L 310.41,425.19 L 308.26,425.25 L 304.12,425.36 L 295.97,425.62 L 294.22,425.69 L 294.23,425.85 L 288.53,425.91 L 287.94,422.03 L 287.62,419.69 L 288.29,419.58 L 288.06,418.01 L 287.38,418.11 L 286.19,410.06 L 285.25,403.71 L 283.99,403.77 L 283.72,400.63 L 283.23,394.47 L 283.19,393.88 L 283.05,391.97 L 287.82,391.05 L 295.78,386.30 L 308.34,378.78 L 315.81,375.02 L 321.10,373.42 L 328.74,371.64 L 330.84,374.57 L 331.10,374.95 L 334.33,378.42 L 340.41,380.26 L 344.08,381.33 L 346.52,382.57 L 347.18,382.92 L 346.73,383.52 L 346.53,383.79 L 344.33,386.59 L 343.90,387.15 L 341.14,390.70 Z" data-name="Niederrad" data-bezirk="Süd" />
	<path id="stadtteil-3" class="stadtteil-path" d="M 263.01,245.65 L 263.66,245.64 L 264.80,245.66 L 264.81,245.50 L 266.33,245.50 L 266.22,246.88 L 269.70,246.85 L 269.89,246.82 L 272.76,246.78 L 272.75,245.93 L 275.17,245.88 L 277.61,247.18 L 278.80,245.44 L 280.28,243.51 L 281.65,245.05 L 282.20,244.74 L 285.28,247.07 L 286.47,247.67 L 288.98,245.74 L 291.50,247.27 L 291.81,247.84 L 291.96,248.11 L 293.28,248.61 L 293.85,249.66 L 293.73,250.53 L 293.95,251.03 L 294.64,251.24 L 295.12,250.79 L 295.37,250.58 L 296.82,253.87 L 295.14,254.75 L 294.01,255.35 L 295.06,256.71 L 295.16,258.15 L 294.77,259.17 L 294.72,261.23 L 293.43,262.53 L 287.58,261.32 L 287.41,262.22 L 288.98,264.07 L 289.34,264.50 L 291.57,268.20 L 291.30,268.86 L 290.59,270.44 L 288.80,271.59 L 284.94,272.76 L 285.31,273.33 L 285.78,274.03 L 285.85,275.50 L 284.56,278.22 L 283.90,277.48 L 282.67,276.11 L 281.92,275.91 L 278.77,276.47 L 276.03,276.97 L 274.01,276.86 L 272.09,275.49 L 270.58,277.61 L 270.68,281.91 L 269.87,281.88 L 265.48,281.88 L 267.27,274.22 L 267.90,273.42 L 268.54,272.59 L 269.03,271.97 L 269.82,270.99 L 270.39,269.61 L 269.98,267.83 L 269.80,267.49 L 268.79,265.63 L 266.65,261.88 L 264.06,257.27 L 263.26,255.88 L 262.13,251.03 L 262.37,247.99 L 263.01,245.65 Z" data-name="Hausen" data-bezirk="Mitte-West" />
	<path id="stadtteil-4" class="stadtteil-path" d="M 459.35,294.73 L 458.58,289.19 L 457.84,286.21 L 457.09,283.55 L 456.71,282.51 L 457.09,282.37 L 457.11,281.92 L 457.69,281.43 L 457.65,281.39 L 457.85,281.25 L 458.69,280.72 L 463.04,276.92 L 465.81,273.86 L 467.60,272.64 L 467.82,272.55 L 472.21,270.66 L 472.00,269.93 L 473.02,269.89 L 480.39,269.62 L 480.47,271.42 L 482.06,271.12 L 483.36,270.88 L 483.91,270.79 L 486.72,270.25 L 488.96,269.96 L 487.76,272.48 L 485.93,276.31 L 485.86,277.50 L 487.92,277.26 L 488.29,280.13 L 488.65,282.83 L 489.18,283.46 L 491.01,283.79 L 491.50,286.06 L 488.83,288.42 L 485.62,290.20 L 479.87,293.40 L 478.35,294.25 L 473.12,297.42 L 472.13,297.99 L 466.00,301.35 L 465.57,300.56 L 464.14,298.02 L 463.36,296.60 L 461.46,295.25 L 459.35,294.73 Z" data-name="Riederwald" data-bezirk="Ost" />
	<path id="stadtteil-5" class="stadtteil-path" d="M 219.59,322.01 L 220.31,324.36 L 220.36,324.59 L 221.36,328.04 L 221.56,328.68 L 221.41,331.63 L 220.55,331.99 L 220.96,333.30 L 223.67,336.18 L 229.95,338.84 L 230.88,339.63 L 230.93,339.67 L 231.42,340.22 L 230.73,340.94 L 229.22,342.08 L 227.35,343.08 L 225.66,343.17 L 225.14,344.13 L 224.95,344.51 L 224.53,344.54 L 223.88,344.59 L 223.00,344.91 L 220.14,345.85 L 219.96,345.91 L 218.78,346.47 L 217.15,347.20 L 215.38,347.27 L 214.67,347.08 L 213.76,346.84 L 210.80,347.34 L 206.20,349.64 L 206.19,349.64 L 205.65,350.13 L 205.25,350.49 L 204.13,351.51 L 203.19,352.83 L 202.46,353.85 L 201.62,356.63 L 201.53,356.95 L 201.40,359.57 L 201.38,359.94 L 201.36,360.20 L 201.36,360.24 L 201.64,361.41 L 202.60,365.47 L 202.55,366.53 L 202.53,366.99 L 202.29,367.27 L 200.68,369.06 L 200.92,369.36 L 197.97,371.55 L 197.67,371.18 L 195.73,372.77 L 195.67,372.82 L 195.23,373.83 L 194.64,375.14 L 194.50,375.65 L 194.21,376.64 L 192.84,378.34 L 190.78,380.40 L 190.40,380.79 L 190.38,380.80 L 187.21,382.78 L 187.00,382.91 L 186.87,382.99 L 185.56,383.81 L 183.77,382.56 L 183.74,382.54 L 175.34,375.76 L 173.27,374.12 L 168.79,370.17 L 167.55,369.14 L 167.49,369.10 L 163.93,366.16 L 150.11,361.64 L 143.37,362.77 L 141.50,364.25 L 142.94,362.00 L 142.94,362.00 L 143.06,361.82 L 143.19,361.61 L 143.36,361.34 L 143.58,361.01 L 147.43,358.85 L 147.50,358.80 L 149.99,357.09 L 150.02,356.87 L 150.02,356.86 L 150.35,354.44 L 150.62,354.31 L 150.27,353.67 L 150.28,353.67 L 151.81,352.90 L 152.40,352.41 L 152.42,352.39 L 152.42,352.39 L 152.71,352.12 L 153.80,351.11 L 154.10,350.84 L 154.58,350.42 L 154.85,350.17 L 155.77,349.33 L 156.04,349.08 L 156.06,349.08 L 160.36,348.76 L 160.36,348.76 L 160.44,348.76 L 168.00,348.22 L 168.53,348.18 L 167.80,342.60 L 168.21,339.80 L 168.61,338.83 L 169.06,337.82 L 169.06,337.82 L 169.11,337.71 L 170.86,335.20 L 172.00,334.51 L 173.94,334.41 L 176.66,335.33 L 177.56,335.64 L 180.51,335.34 L 183.88,332.80 L 185.19,331.76 L 190.26,327.87 L 190.64,327.60 L 193.30,326.14 L 196.38,325.46 L 199.87,324.70 L 203.58,324.03 L 203.58,324.03 L 203.58,324.03 L 205.77,323.63 L 207.47,323.31 L 213.36,321.98 L 213.37,321.97 L 213.51,321.94 L 218.55,320.09 L 218.78,320.46 L 219.29,321.47 L 219.59,322.01 Z" data-name="Nied" data-bezirk="West" />
	<path id="stadtteil-6" class="stadtteil-path" d="M 388.77,303.01 L 392.54,307.66 L 393.17,308.43 L 396.97,308.04 L 397.49,308.00 L 398.27,310.96 L 399.94,312.52 L 400.49,313.03 L 404.25,314.75 L 404.80,315.49 L 403.26,320.19 L 403.45,321.95 L 404.41,323.71 L 405.25,325.27 L 402.80,327.84 L 402.09,330.24 L 402.29,333.99 L 402.39,335.69 L 402.50,338.08 L 399.52,337.54 L 397.09,337.07 L 390.41,335.85 L 390.38,333.71 L 390.37,332.92 L 389.82,331.42 L 389.72,331.13 L 390.35,331.05 L 390.95,330.97 L 391.16,327.58 L 391.22,326.61 L 391.24,326.37 L 390.94,324.41 L 390.84,323.77 L 390.72,321.33 L 390.71,321.07 L 390.66,319.90 L 390.65,319.68 L 390.57,318.15 L 387.87,318.31 L 387.73,320.02 L 386.24,320.17 L 385.63,320.00 L 382.90,320.32 L 382.82,319.94 L 382.00,320.15 L 379.22,321.70 L 377.85,322.47 L 376.07,323.46 L 375.03,323.84 L 375.51,324.67 L 373.97,325.53 L 372.50,327.07 L 372.13,329.32 L 372.58,329.85 L 371.68,331.55 L 370.95,332.98 L 368.44,333.59 L 367.09,333.92 L 368.15,337.26 L 368.28,337.65 L 368.62,338.73 L 369.63,340.34 L 370.60,341.88 L 366.72,344.41 L 365.69,342.84 L 364.75,341.41 L 364.08,338.96 L 363.38,336.34 L 363.22,335.77 L 361.95,333.63 L 360.85,331.80 L 359.90,330.17 L 357.64,326.38 L 357.04,325.37 L 356.17,323.92 L 355.50,322.75 L 357.65,320.54 L 359.84,316.51 L 360.03,312.55 L 363.68,312.56 L 364.25,312.57 L 366.17,312.30 L 367.48,311.62 L 368.40,310.45 L 369.68,308.60 L 371.59,309.38 L 372.94,309.91 L 374.59,309.31 L 375.88,308.86 L 376.55,308.62 L 378.15,305.67 L 379.56,306.20 L 381.31,306.86 L 384.01,305.97 L 385.42,304.95 L 387.81,303.27 L 388.77,303.01 Z" data-name="Innenstadt" data-bezirk="Innenstadt I" />
	<path id="stadtteil-7" class="stadtteil-path" d="M 341.32,294.58 L 343.34,294.63 L 345.83,293.99 L 346.12,293.91 L 348.51,293.31 L 351.05,295.10 L 352.53,295.92 L 354.62,297.07 L 356.78,297.96 L 357.91,298.45 L 358.85,298.71 L 361.60,300.20 L 362.00,300.43 L 364.53,300.63 L 366.12,300.77 L 366.83,300.82 L 368.46,300.95 L 369.62,302.18 L 371.56,303.57 L 372.44,304.33 L 373.06,305.76 L 374.59,309.31 L 372.94,309.91 L 371.59,309.38 L 369.68,308.60 L 368.40,310.45 L 367.48,311.62 L 366.17,312.30 L 364.25,312.57 L 363.68,312.56 L 360.03,312.55 L 359.84,316.51 L 357.65,320.54 L 355.50,322.75 L 354.37,323.93 L 353.44,324.85 L 351.70,326.70 L 349.30,328.17 L 348.65,328.58 L 346.29,330.03 L 346.23,330.07 L 344.18,331.35 L 341.70,332.88 L 341.20,333.20 L 337.97,330.67 L 337.96,330.67 L 335.15,328.49 L 335.15,328.49 L 331.44,325.64 L 331.35,325.57 L 330.60,325.00 L 330.14,325.67 L 330.04,325.80 L 328.57,327.86 L 328.68,328.56 L 322.95,329.66 L 323.30,333.56 L 309.92,334.43 L 309.92,334.17 L 309.90,332.98 L 309.84,328.98 L 309.77,324.13 L 309.75,322.80 L 309.75,322.14 L 309.74,320.00 L 310.30,320.06 L 310.47,320.07 L 314.41,320.45 L 315.06,318.23 L 316.19,315.90 L 317.43,314.13 L 319.08,313.31 L 319.36,312.01 L 320.29,312.02 L 320.80,309.80 L 321.23,307.89 L 321.26,307.76 L 322.32,302.98 L 324.49,303.40 L 325.25,303.44 L 329.19,303.58 L 328.91,300.09 L 328.85,299.49 L 328.78,298.58 L 328.61,296.42 L 326.30,290.82 L 326.03,290.03 L 327.16,287.83 L 328.89,286.44 L 331.26,285.06 L 332.36,284.41 L 333.23,283.91 L 333.91,286.50 L 335.22,286.62 L 337.14,294.42 L 339.96,294.52 L 341.32,294.58 Z" data-name="Westend-Süd" data-bezirk="Innenstadt II" />
	<path id="stadtteil-8" class="stadtteil-path" d="M 360.26,255.35 L 360.75,257.77 L 360.85,258.30 L 361.15,260.51 L 361.48,263.07 L 361.84,266.58 L 362.23,270.20 L 362.07,272.31 L 362.15,273.23 L 362.39,275.47 L 362.58,276.40 L 362.81,277.65 L 362.92,278.07 L 363.57,280.34 L 364.95,284.40 L 366.43,286.47 L 367.12,289.22 L 367.72,291.64 L 368.52,294.73 L 368.73,295.52 L 368.63,296.92 L 368.59,297.38 L 368.49,298.40 L 368.46,300.95 L 366.83,300.82 L 366.12,300.77 L 364.53,300.63 L 362.00,300.43 L 361.60,300.20 L 358.85,298.71 L 357.91,298.45 L 356.78,297.96 L 354.62,297.07 L 352.53,295.92 L 351.05,295.10 L 348.51,293.31 L 346.12,293.91 L 345.83,293.99 L 343.34,294.63 L 341.32,294.58 L 339.96,294.52 L 337.14,294.42 L 335.22,286.62 L 333.91,286.50 L 333.23,283.91 L 333.95,282.04 L 334.66,276.90 L 335.92,274.45 L 337.34,273.08 L 338.05,272.40 L 343.33,271.40 L 344.05,271.35 L 344.05,270.87 L 343.81,266.92 L 343.61,263.99 L 343.58,261.60 L 342.91,260.66 L 342.38,260.00 L 342.40,257.09 L 345.96,257.37 L 347.06,257.44 L 348.66,257.08 L 349.91,255.72 L 353.22,253.60 L 354.71,252.78 L 355.97,252.06 L 356.78,251.61 L 358.90,250.42 L 359.52,252.68 L 360.17,255.07 L 360.26,255.35 Z" data-name="Westend-Nord" data-bezirk="Innenstadt II" />
	<path id="stadtteil-9" class="stadtteil-path" d="M 407.65,255.46 L 406.68,258.65 L 406.45,259.47 L 405.43,262.89 L 405.10,263.97 L 403.56,269.15 L 402.81,271.67 L 402.73,271.92 L 402.48,272.80 L 401.39,276.49 L 400.21,277.73 L 398.48,279.53 L 398.25,282.26 L 397.97,285.70 L 397.79,287.91 L 397.67,289.22 L 397.65,291.47 L 397.63,293.32 L 397.63,293.73 L 397.62,294.54 L 397.47,295.26 L 396.92,296.14 L 396.12,297.45 L 394.96,297.55 L 394.31,297.86 L 394.27,298.30 L 394.12,299.35 L 393.98,300.33 L 393.91,300.81 L 393.51,303.57 L 393.31,304.99 L 392.54,307.66 L 388.77,303.01 L 387.81,303.27 L 385.42,304.95 L 384.01,305.97 L 381.31,306.86 L 379.56,306.20 L 378.15,305.67 L 376.55,308.62 L 375.88,308.86 L 374.59,309.31 L 373.06,305.76 L 372.44,304.33 L 371.56,303.57 L 369.62,302.18 L 368.46,300.95 L 368.49,298.40 L 368.59,297.38 L 368.63,296.92 L 368.73,295.52 L 368.52,294.73 L 367.72,291.64 L 367.12,289.22 L 366.43,286.47 L 364.95,284.40 L 363.57,280.34 L 362.92,278.07 L 362.81,277.65 L 362.58,276.40 L 362.39,275.47 L 362.15,273.23 L 362.07,272.31 L 362.23,270.20 L 361.84,266.58 L 361.48,263.07 L 361.15,260.51 L 360.85,258.30 L 360.75,257.77 L 362.17,257.63 L 363.25,257.53 L 364.19,257.45 L 365.26,257.36 L 366.30,257.27 L 367.37,257.16 L 367.25,256.15 L 371.35,255.39 L 376.12,254.48 L 376.91,254.78 L 377.31,256.64 L 379.14,256.36 L 381.14,256.07 L 382.44,255.88 L 383.06,256.01 L 384.41,256.26 L 384.83,254.13 L 385.11,250.98 L 385.18,250.23 L 391.79,248.70 L 395.44,248.19 L 396.73,247.88 L 398.88,247.36 L 401.33,246.74 L 399.67,240.61 L 401.97,240.18 L 403.74,239.67 L 405.69,238.52 L 410.79,244.31 L 410.84,244.99 L 410.16,247.19 L 410.12,247.31 L 409.56,249.12 L 407.99,254.33 L 407.65,255.46 Z" data-name="Nordend-West" data-bezirk="Innenstadt III" />
	<path id="stadtteil-10" class="stadtteil-path" d="M 408.75,305.74 L 406.95,308.19 L 405.82,310.93 L 404.25,314.75 L 400.49,313.03 L 399.94,312.52 L 398.27,310.96 L 397.49,308.00 L 396.97,308.04 L 393.17,308.43 L 392.54,307.66 L 393.31,304.99 L 393.51,303.57 L 393.91,300.81 L 393.98,300.33 L 394.12,299.35 L 394.27,298.30 L 394.31,297.86 L 394.96,297.55 L 396.12,297.45 L 396.92,296.14 L 397.47,295.26 L 397.62,294.54 L 397.63,293.73 L 397.63,293.32 L 397.65,291.47 L 397.67,289.22 L 397.79,287.91 L 397.97,285.70 L 398.25,282.26 L 398.48,279.53 L 400.21,277.73 L 401.39,276.49 L 402.48,272.80 L 402.73,271.92 L 402.81,271.67 L 403.56,269.15 L 405.10,263.97 L 405.43,262.89 L 406.45,259.47 L 406.68,258.65 L 407.65,255.46 L 407.99,254.33 L 409.56,249.12 L 413.43,251.25 L 414.27,253.50 L 414.44,253.94 L 415.44,256.68 L 416.97,258.04 L 419.23,259.98 L 421.32,261.49 L 422.19,262.34 L 422.77,262.84 L 424.34,264.31 L 422.86,265.67 L 422.78,270.87 L 422.75,272.54 L 422.70,272.72 L 422.24,274.92 L 420.86,278.05 L 420.21,281.27 L 419.75,281.63 L 418.62,282.52 L 417.17,283.76 L 415.41,285.28 L 413.81,286.86 L 411.40,289.22 L 413.41,292.01 L 415.40,294.76 L 416.76,296.66 L 414.85,298.21 L 414.65,298.35 L 412.81,300.29 L 411.93,301.44 L 411.34,302.21 L 410.75,303.03 L 409.80,304.33 L 408.75,305.74 Z" data-name="Nordend-Ost" data-bezirk="Innenstadt III" />
	<path id="stadtteil-11" class="stadtteil-path" d="M 499.10,299.87 L 498.53,301.95 L 497.65,305.14 L 496.66,308.75 L 495.18,314.08 L 495.44,316.00 L 495.54,316.26 L 495.54,316.26 L 495.54,316.26 L 495.59,316.41 L 495.59,316.41 L 492.89,317.09 L 491.44,317.68 L 487.78,319.57 L 483.46,322.74 L 480.83,325.20 L 478.42,327.24 L 474.61,328.84 L 474.14,329.02 L 467.55,332.21 L 464.73,333.47 L 462.94,334.17 L 462.11,334.54 L 459.31,335.84 L 459.32,335.85 L 459.03,335.96 L 459.25,336.25 L 449.62,340.30 L 448.03,340.97 L 445.95,341.52 L 444.27,342.08 L 428.91,341.33 L 422.50,341.03 L 422.34,341.03 L 418.52,340.98 L 414.32,340.22 L 404.46,338.44 L 402.50,338.08 L 402.39,335.69 L 402.29,333.99 L 402.09,330.24 L 402.80,327.84 L 405.25,325.27 L 404.41,323.71 L 403.45,321.95 L 403.26,320.19 L 404.80,315.49 L 404.25,314.75 L 405.82,310.93 L 406.95,308.19 L 408.75,305.74 L 409.80,304.33 L 410.75,303.03 L 411.34,302.21 L 411.93,301.44 L 412.81,300.29 L 414.65,298.35 L 414.85,298.21 L 416.76,296.66 L 418.15,295.33 L 420.12,293.45 L 420.57,293.83 L 420.85,293.47 L 421.99,294.49 L 421.72,294.76 L 421.86,294.87 L 422.96,295.08 L 422.98,295.18 L 423.31,295.21 L 425.11,295.41 L 428.85,295.81 L 432.28,296.21 L 435.66,296.55 L 435.95,296.59 L 437.99,296.81 L 439.96,297.04 L 443.49,297.42 L 444.05,296.33 L 445.18,297.48 L 445.36,297.09 L 446.26,297.35 L 446.16,298.14 L 446.91,298.50 L 447.72,296.48 L 448.49,294.26 L 459.35,294.73 L 461.46,295.25 L 463.36,296.60 L 464.14,298.02 L 465.57,300.56 L 466.00,301.35 L 472.13,297.99 L 473.12,297.42 L 478.35,294.25 L 479.87,293.40 L 485.62,290.20 L 488.83,288.42 L 491.50,286.06 L 491.83,286.26 L 492.62,286.73 L 496.83,289.34 L 493.17,291.45 L 495.42,295.26 L 498.15,296.43 L 498.51,296.57 L 499.82,297.25 L 499.65,297.90 L 499.10,299.87 Z" data-name="Ostend" data-bezirk="Bornheim/Ostend" />
	<path id="stadtteil-12" class="stadtteil-path" d="M 422.98,295.18 L 422.96,295.08 L 421.86,294.87 L 421.72,294.76 L 421.99,294.49 L 420.85,293.47 L 420.57,293.83 L 420.12,293.45 L 418.15,295.33 L 416.76,296.66 L 415.40,294.76 L 413.41,292.01 L 411.40,289.22 L 413.81,286.86 L 415.41,285.28 L 417.17,283.76 L 418.62,282.52 L 419.75,281.63 L 420.21,281.27 L 420.86,278.05 L 422.24,274.92 L 422.70,272.72 L 422.75,272.54 L 422.78,270.87 L 422.86,265.67 L 424.34,264.31 L 422.77,262.84 L 422.19,262.34 L 421.32,261.49 L 419.23,259.98 L 416.97,258.04 L 415.44,256.68 L 414.44,253.94 L 414.27,253.50 L 413.43,251.25 L 409.56,249.12 L 410.12,247.31 L 410.16,247.19 L 410.84,244.99 L 410.79,244.31 L 411.66,243.49 L 412.94,242.55 L 413.98,241.78 L 417.51,239.08 L 418.65,238.25 L 419.71,237.34 L 421.18,235.41 L 421.18,235.41 L 422.41,239.37 L 423.54,242.18 L 425.00,244.90 L 425.93,246.26 L 427.15,247.65 L 428.90,249.21 L 431.18,250.95 L 432.90,251.93 L 434.68,252.57 L 436.43,253.01 L 437.76,253.30 L 439.98,253.59 L 445.43,254.09 L 447.97,254.90 L 449.94,256.16 L 451.72,257.55 L 453.65,259.63 L 455.35,262.16 L 456.20,264.69 L 456.83,268.10 L 457.01,273.97 L 457.04,276.28 L 457.23,277.93 L 457.56,279.84 L 457.85,281.25 L 457.65,281.39 L 457.69,281.43 L 457.11,281.92 L 457.09,282.37 L 456.71,282.51 L 457.09,283.55 L 457.84,286.21 L 458.58,289.19 L 459.35,294.73 L 448.49,294.26 L 447.72,296.48 L 446.91,298.50 L 446.16,298.14 L 446.26,297.35 L 445.36,297.09 L 445.18,297.48 L 444.05,296.33 L 443.49,297.42 L 439.96,297.04 L 437.99,296.81 L 435.95,296.59 L 435.66,296.55 L 432.28,296.21 L 428.85,295.81 L 425.11,295.41 L 423.31,295.21 L 422.98,295.18 Z" data-name="Bornheim" data-bezirk="Bornheim/Ostend" />
	<path id="stadtteil-13" class="stadtteil-path" d="M 270.55,385.88 L 270.46,383.71 L 270.48,383.70 L 270.42,382.46 L 270.29,382.49 L 270.20,382.47 L 270.13,382.44 L 270.17,380.24 L 270.17,380.24 L 270.18,379.16 L 270.38,379.17 L 271.12,379.17 L 273.24,379.15 L 273.54,379.15 L 273.85,379.16 L 274.16,379.20 L 274.55,379.23 L 275.03,379.28 L 275.28,379.31 L 275.64,379.40 L 275.83,379.45 L 276.52,379.65 L 277.19,379.91 L 277.69,380.14 L 280.00,380.96 L 282.70,381.87 L 284.25,381.87 L 285.09,381.88 L 286.16,381.54 L 291.09,380.01 L 295.73,375.72 L 296.42,375.11 L 300.29,371.75 L 302.83,369.93 L 302.21,369.06 L 299.39,369.49 L 296.46,369.42 L 295.70,369.12 L 293.91,368.35 L 295.69,367.24 L 315.76,354.73 L 316.92,353.82 L 320.45,353.04 L 320.48,353.02 L 320.92,352.70 L 321.45,352.40 L 323.14,351.35 L 324.80,350.30 L 326.11,349.51 L 334.09,344.58 L 335.21,343.18 L 336.00,346.70 L 336.63,349.46 L 336.74,349.90 L 336.74,349.90 L 337.45,349.46 L 342.90,346.11 L 344.83,344.91 L 345.56,344.80 L 346.35,344.66 L 349.27,342.93 L 349.47,342.16 L 349.50,342.20 L 350.85,343.97 L 352.50,346.16 L 352.62,346.31 L 353.67,347.92 L 354.64,349.38 L 355.16,350.17 L 355.22,350.25 L 355.40,350.54 L 356.25,351.83 L 356.28,351.88 L 357.06,353.02 L 352.44,357.24 L 352.43,357.25 L 346.43,362.82 L 333.76,370.48 L 328.74,371.64 L 321.10,373.42 L 315.81,375.02 L 308.34,378.78 L 295.78,386.30 L 287.82,391.05 L 283.05,391.97 L 270.83,391.67 L 270.74,389.84 L 270.74,389.76 L 270.56,385.95 L 270.55,385.88 Z" data-name="Gutleutviertel" data-bezirk="Innenstadt I" />
	<path id="stadtteil-14" class="stadtteil-path" d="M 341.20,333.20 L 343.62,334.98 L 343.68,335.01 L 345.71,336.53 L 345.82,336.61 L 346.32,336.87 L 346.46,336.94 L 346.78,337.10 L 348.82,338.72 L 349.73,341.07 L 349.47,342.16 L 349.27,342.93 L 346.35,344.66 L 345.56,344.80 L 344.83,344.91 L 342.90,346.11 L 337.45,349.46 L 336.74,349.90 L 336.74,349.90 L 336.63,349.46 L 336.00,346.70 L 335.21,343.18 L 334.09,344.58 L 326.11,349.51 L 324.80,350.30 L 323.14,351.35 L 321.45,352.40 L 320.92,352.70 L 320.48,353.02 L 320.45,353.04 L 316.92,353.82 L 315.76,354.73 L 295.69,367.24 L 293.91,368.35 L 295.70,369.12 L 296.46,369.42 L 299.39,369.49 L 302.21,369.06 L 302.83,369.93 L 300.29,371.75 L 296.42,375.11 L 295.73,375.72 L 291.09,380.01 L 286.16,381.54 L 285.09,381.88 L 284.25,381.87 L 282.70,381.87 L 280.00,380.96 L 277.69,380.14 L 277.19,379.91 L 276.52,379.65 L 275.83,379.45 L 275.64,379.40 L 275.28,379.31 L 275.03,379.28 L 274.55,379.23 L 274.16,379.20 L 273.85,379.16 L 273.54,379.15 L 273.24,379.15 L 271.12,379.17 L 270.38,379.17 L 270.18,379.16 L 270.18,378.54 L 269.80,376.90 L 269.58,375.98 L 269.58,375.97 L 269.56,375.88 L 269.43,375.32 L 269.41,375.25 L 269.15,373.83 L 266.69,370.69 L 264.23,367.61 L 260.24,359.31 L 260.24,358.97 L 260.81,358.94 L 260.28,356.58 L 260.20,356.21 L 259.75,354.27 L 258.77,349.84 L 257.61,344.56 L 254.73,344.64 L 254.61,344.01 L 254.26,342.42 L 253.99,341.04 L 259.45,339.76 L 262.12,338.13 L 262.38,337.98 L 263.50,338.16 L 265.52,338.45 L 270.16,337.65 L 271.34,337.44 L 273.76,336.42 L 277.98,331.88 L 285.55,331.84 L 296.17,331.10 L 296.35,334.92 L 309.92,334.17 L 309.92,334.43 L 323.30,333.56 L 322.95,329.66 L 328.68,328.56 L 328.57,327.86 L 330.04,325.80 L 330.14,325.67 L 330.60,325.00 L 331.35,325.57 L 331.44,325.64 L 335.15,328.49 L 335.15,328.49 L 337.96,330.67 L 337.97,330.67 L 341.20,333.20 Z" data-name="Gallus" data-bezirk="Innenstadt I" />
	<path id="stadtteil-15" class="stadtteil-path" d="M 307.77,255.40 L 308.40,255.45 L 308.56,254.97 L 310.07,254.90 L 311.94,254.83 L 314.15,254.73 L 314.19,255.16 L 316.44,255.28 L 317.87,255.65 L 319.97,256.34 L 320.55,256.52 L 321.92,256.90 L 323.77,257.44 L 325.68,257.45 L 327.35,257.49 L 328.30,257.50 L 332.09,257.57 L 335.37,257.62 L 336.17,257.56 L 342.40,257.09 L 342.38,260.00 L 342.91,260.66 L 343.58,261.60 L 343.61,263.99 L 343.81,266.92 L 344.05,270.87 L 344.05,271.35 L 343.33,271.40 L 338.05,272.40 L 337.34,273.08 L 335.92,274.45 L 334.66,276.90 L 333.95,282.04 L 333.23,283.91 L 332.36,284.41 L 331.26,285.06 L 328.89,286.44 L 327.16,287.83 L 326.03,290.03 L 326.30,290.82 L 328.61,296.42 L 328.78,298.58 L 328.85,299.49 L 328.91,300.09 L 329.19,303.58 L 325.25,303.44 L 324.49,303.40 L 322.32,302.98 L 321.26,307.76 L 321.23,307.89 L 320.80,309.80 L 320.29,312.02 L 319.36,312.01 L 319.08,313.31 L 317.43,314.13 L 316.19,315.90 L 315.06,318.23 L 314.41,320.45 L 310.47,320.07 L 310.30,320.06 L 309.74,320.00 L 309.75,322.14 L 309.75,322.80 L 309.77,324.13 L 309.84,328.98 L 309.90,332.98 L 309.92,334.17 L 296.35,334.92 L 296.17,331.10 L 285.55,331.84 L 277.98,331.88 L 273.76,336.42 L 271.34,337.44 L 270.16,337.65 L 265.52,338.45 L 263.50,338.16 L 262.38,337.98 L 262.12,338.13 L 259.45,339.76 L 253.99,341.04 L 254.26,342.42 L 254.61,344.01 L 254.73,344.64 L 250.69,344.76 L 245.67,344.54 L 244.80,344.41 L 239.99,343.73 L 239.88,343.50 L 239.49,342.82 L 237.48,338.35 L 236.79,336.67 L 235.51,333.66 L 233.91,329.90 L 232.74,327.16 L 231.67,324.53 L 231.26,323.51 L 230.70,322.18 L 230.08,320.65 L 229.86,320.13 L 231.41,320.08 L 233.99,317.92 L 236.29,315.99 L 238.52,314.46 L 240.65,313.34 L 243.35,312.84 L 244.64,312.89 L 245.11,312.92 L 248.13,313.92 L 249.36,314.27 L 249.46,314.30 L 249.60,313.20 L 250.01,312.66 L 250.54,312.00 L 250.86,311.79 L 251.97,312.23 L 251.97,311.54 L 252.72,310.29 L 253.02,310.12 L 253.63,310.25 L 254.79,310.15 L 256.05,309.63 L 257.14,307.40 L 257.72,306.67 L 258.51,306.05 L 261.07,305.75 L 262.99,304.11 L 263.68,303.00 L 269.03,300.71 L 269.81,299.69 L 269.77,298.87 L 269.85,296.54 L 269.94,294.76 L 270.02,292.69 L 270.08,291.45 L 270.32,288.78 L 270.44,286.58 L 270.68,281.91 L 270.58,277.61 L 272.09,275.49 L 274.01,276.86 L 276.03,276.97 L 278.77,276.47 L 281.92,275.91 L 282.67,276.11 L 283.90,277.48 L 284.56,278.22 L 285.85,275.50 L 285.78,274.03 L 285.31,273.33 L 284.94,272.76 L 288.80,271.59 L 290.59,270.44 L 291.30,268.86 L 291.57,268.20 L 289.34,264.50 L 288.98,264.07 L 287.41,262.22 L 287.58,261.32 L 293.43,262.53 L 294.72,261.23 L 294.77,259.17 L 295.16,258.15 L 295.06,256.71 L 294.01,255.35 L 295.14,254.75 L 296.82,253.87 L 295.37,250.58 L 297.53,249.62 L 298.84,249.44 L 302.03,249.61 L 302.88,249.62 L 302.80,250.52 L 304.10,251.38 L 303.90,251.96 L 303.90,252.60 L 304.24,252.69 L 304.49,252.77 L 304.92,252.91 L 304.91,253.44 L 307.43,253.97 L 307.77,255.40 Z" data-name="Bockenheim" data-bezirk="Innenstadt II" />
	<path id="stadtteil-16" class="stadtteil-path" d="M 445.77,353.12 L 438.43,356.59 L 438.64,358.44 L 438.83,360.03 L 439.06,361.64 L 431.64,362.50 L 427.46,362.60 L 423.77,363.21 L 422.58,362.92 L 421.10,362.56 L 420.19,361.65 L 419.00,360.47 L 414.88,356.93 L 411.16,353.73 L 407.84,353.64 L 404.91,354.23 L 403.31,354.87 L 400.39,356.33 L 398.30,357.55 L 397.36,358.09 L 397.18,358.21 L 394.54,359.72 L 393.34,360.60 L 393.10,360.82 L 388.77,364.58 L 384.51,368.45 L 381.74,371.86 L 379.78,372.89 L 378.26,373.68 L 377.02,374.74 L 376.95,374.80 L 375.24,376.26 L 374.38,377.13 L 372.52,378.98 L 371.89,379.50 L 370.17,380.97 L 366.82,383.83 L 364.89,385.44 L 360.99,388.78 L 357.94,391.38 L 356.38,392.70 L 353.55,388.33 L 350.22,385.00 L 347.18,382.92 L 346.52,382.57 L 344.08,381.33 L 340.41,380.26 L 334.33,378.42 L 331.10,374.95 L 330.84,374.57 L 328.74,371.64 L 333.76,370.48 L 346.43,362.82 L 352.43,357.25 L 352.44,357.24 L 357.06,353.02 L 361.05,349.35 L 361.68,348.76 L 365.64,345.12 L 366.72,344.41 L 370.60,341.88 L 371.72,341.11 L 375.23,338.81 L 380.29,337.10 L 390.41,335.85 L 397.09,337.07 L 399.52,337.54 L 402.50,338.08 L 404.46,338.44 L 414.32,340.22 L 418.52,340.98 L 422.34,341.03 L 422.50,341.03 L 428.91,341.33 L 444.27,342.08 L 444.52,343.76 L 444.45,343.77 L 444.55,344.39 L 444.82,346.09 L 445.14,348.27 L 445.25,349.01 L 445.37,351.28 L 445.77,353.12 Z" data-name="Sachsenhausen-Nord" data-bezirk="Süd" />
	<path id="stadtteil-17" class="stadtteil-path" d="M 463.28,341.41 L 463.85,342.10 L 464.29,342.50 L 464.60,342.77 L 465.49,343.51 L 465.53,343.55 L 466.42,344.05 L 466.95,344.33 L 467.05,344.38 L 467.27,344.51 L 467.30,344.54 L 467.58,344.70 L 468.41,344.95 L 469.25,345.22 L 469.26,345.22 L 470.37,345.33 L 471.34,345.37 L 471.93,345.35 L 472.18,345.35 L 478.73,344.97 L 481.14,344.83 L 481.35,344.82 L 481.35,344.97 L 481.39,346.74 L 482.18,346.70 L 484.43,346.57 L 484.43,347.00 L 485.75,346.99 L 486.78,346.99 L 486.92,346.99 L 487.02,347.77 L 487.54,347.76 L 488.45,347.73 L 488.84,347.71 L 488.91,349.30 L 489.29,350.71 L 489.60,351.54 L 491.08,352.39 L 491.60,352.70 L 491.78,352.87 L 492.35,353.41 L 492.42,353.47 L 492.44,353.50 L 493.08,354.04 L 493.60,354.49 L 493.67,354.77 L 491.34,355.70 L 490.93,356.15 L 490.55,356.59 L 489.24,358.07 L 484.69,357.47 L 483.51,357.30 L 484.40,360.74 L 485.17,362.57 L 485.50,363.33 L 485.77,366.80 L 485.93,368.95 L 484.14,369.95 L 483.55,372.28 L 483.39,372.83 L 483.79,374.33 L 484.92,379.04 L 484.72,379.67 L 481.43,380.85 L 481.51,381.20 L 480.59,381.45 L 477.83,382.19 L 476.62,374.76 L 474.49,375.81 L 473.40,376.36 L 471.16,377.04 L 468.16,376.83 L 466.35,376.70 L 460.66,376.32 L 459.41,376.23 L 458.35,375.59 L 458.56,376.67 L 457.67,376.79 L 458.41,381.31 L 455.98,383.11 L 453.24,386.92 L 448.44,389.14 L 448.06,389.29 L 446.58,389.75 L 442.10,389.48 L 441.73,383.92 L 441.70,378.79 L 440.74,378.75 L 439.77,378.72 L 439.85,375.26 L 439.78,375.27 L 439.81,374.49 L 439.98,372.14 L 440.24,372.13 L 440.31,370.93 L 439.50,370.91 L 439.28,365.65 L 439.61,365.64 L 439.53,364.97 L 439.06,361.64 L 438.83,360.03 L 438.64,358.44 L 438.43,356.59 L 445.77,353.12 L 445.37,351.28 L 445.25,349.01 L 445.14,348.27 L 444.82,346.09 L 444.55,344.39 L 444.45,343.77 L 444.52,343.76 L 444.27,342.08 L 445.95,341.52 L 448.03,340.97 L 449.62,340.30 L 459.25,336.25 L 460.56,337.97 L 460.57,337.98 L 460.68,338.23 L 460.69,338.24 L 461.12,338.93 L 461.45,339.46 L 461.88,339.56 L 462.01,339.59 L 463.28,341.41 Z" data-name="Oberrad" data-bezirk="Süd" />
	<path id="stadtteil-18" class="stadtteil-path" d="M 211.20,443.16 L 211.56,443.27 L 212.67,443.58 L 219.96,444.31 L 229.84,444.68 L 230.83,445.64 L 233.50,444.77 L 242.05,445.70 L 245.33,445.47 L 253.19,445.28 L 253.98,445.27 L 251.88,451.71 L 250.92,454.74 L 245.47,472.00 L 244.65,474.68 L 243.85,477.22 L 242.57,481.30 L 241.15,485.71 L 239.23,491.56 L 238.63,493.41 L 238.22,494.68 L 235.57,502.72 L 232.49,512.37 L 228.83,523.79 L 228.36,523.54 L 228.34,523.54 L 227.20,527.06 L 226.27,530.06 L 225.74,531.59 L 223.80,538.18 L 222.07,542.32 L 221.53,544.35 L 220.52,547.98 L 219.33,552.46 L 218.88,553.73 L 218.15,555.84 L 217.64,557.79 L 216.03,564.61 L 215.65,568.69 L 215.50,577.52 L 216.59,583.29 L 217.22,592.94 L 205.24,592.57 L 203.22,593.12 L 196.10,593.55 L 194.85,595.30 L 192.68,595.72 L 187.67,600.00 L 186.43,594.82 L 185.02,589.98 L 181.43,583.25 L 179.94,579.40 L 176.93,571.41 L 169.95,569.59 L 163.57,567.88 L 157.14,570.15 L 153.90,569.31 L 144.61,571.16 L 142.09,571.66 L 138.06,571.55 L 137.82,571.60 L 128.03,574.18 L 119.30,577.30 L 118.70,577.51 L 113.97,579.80 L 111.12,581.15 L 107.09,583.01 L 93.33,584.02 L 86.04,584.41 L 84.45,579.98 L 80.69,570.10 L 79.21,566.22 L 84.93,564.14 L 81.44,554.55 L 79.56,549.51 L 88.33,546.83 L 85.20,538.56 L 90.81,535.02 L 93.68,533.21 L 100.47,528.96 L 118.94,517.70 L 120.49,516.76 L 125.85,513.40 L 130.95,510.35 L 134.78,508.41 L 137.75,507.16 L 140.22,506.24 L 141.01,505.94 L 144.21,504.90 L 146.02,504.30 L 145.77,503.68 L 144.89,503.86 L 144.81,503.69 L 146.62,502.79 L 146.65,502.79 L 145.57,500.97 L 145.31,501.07 L 144.94,500.30 L 145.22,500.15 L 143.97,497.64 L 143.32,496.51 L 143.20,496.45 L 143.08,496.48 L 143.04,496.40 L 143.17,496.26 L 141.71,492.77 L 140.61,489.36 L 140.05,487.24 L 140.95,486.94 L 141.35,486.79 L 141.45,483.90 L 142.11,480.59 L 141.79,480.49 L 141.62,480.50 L 140.97,477.80 L 140.87,477.37 L 139.56,474.77 L 139.52,474.47 L 139.72,474.09 L 140.13,473.65 L 140.94,473.16 L 141.54,472.65 L 141.94,472.07 L 142.12,471.42 L 142.15,470.53 L 141.94,469.63 L 141.19,468.43 L 140.78,468.06 L 140.25,467.69 L 140.60,465.46 L 140.75,465.37 L 140.74,464.87 L 140.49,464.47 L 140.52,464.33 L 140.66,464.18 L 140.79,464.36 L 141.01,463.54 L 140.89,463.45 L 141.03,461.98 L 141.07,460.61 L 141.03,458.86 L 140.81,458.78 L 140.80,458.64 L 141.00,458.69 L 140.59,456.66 L 140.34,456.65 L 140.21,456.21 L 140.51,456.20 L 140.55,456.08 L 140.47,456.01 L 139.90,453.88 L 139.98,453.86 L 142.75,452.83 L 143.90,452.59 L 145.15,452.31 L 146.07,451.98 L 153.38,449.35 L 154.35,449.01 L 158.58,449.39 L 162.19,449.71 L 163.39,449.55 L 165.50,449.29 L 169.24,448.33 L 170.51,447.68 L 172.51,446.68 L 176.85,445.34 L 180.07,444.83 L 182.90,443.96 L 188.97,442.74 L 192.29,443.30 L 194.30,443.18 L 194.58,443.17 L 197.90,442.93 L 201.32,442.32 L 206.12,442.14 L 211.20,443.16 Z" data-name="Flughafen" data-bezirk="Süd" />
	<path id="stadtteil-19" class="stadtteil-path" d="M 422.58,362.92 L 423.77,363.21 L 427.46,362.60 L 431.64,362.50 L 439.06,361.64 L 439.53,364.97 L 439.61,365.64 L 439.28,365.65 L 439.50,370.91 L 440.31,370.93 L 440.24,372.13 L 439.98,372.14 L 439.81,374.49 L 439.78,375.27 L 439.85,375.26 L 439.77,378.72 L 440.74,378.75 L 441.70,378.79 L 441.73,383.92 L 442.10,389.48 L 446.58,389.75 L 448.06,389.29 L 448.44,389.14 L 453.24,386.92 L 455.98,383.11 L 458.41,381.31 L 457.67,376.79 L 458.56,376.67 L 458.35,375.59 L 459.41,376.23 L 460.66,376.32 L 466.35,376.70 L 468.16,376.83 L 471.16,377.04 L 473.40,376.36 L 474.49,375.81 L 476.62,374.76 L 477.83,382.19 L 480.59,381.45 L 481.51,381.20 L 481.43,380.85 L 484.72,379.67 L 484.92,379.04 L 483.79,374.33 L 483.39,372.83 L 483.55,372.28 L 484.14,369.95 L 485.93,368.95 L 485.77,366.80 L 485.50,363.33 L 485.17,362.57 L 484.40,360.74 L 483.51,357.30 L 484.69,357.47 L 489.24,358.07 L 490.55,356.59 L 490.93,356.15 L 491.34,355.70 L 493.67,354.77 L 493.64,356.43 L 494.36,357.03 L 495.19,358.15 L 495.20,358.46 L 495.27,358.50 L 497.09,359.48 L 499.96,361.02 L 500.43,362.54 L 501.10,363.75 L 501.43,364.34 L 501.79,365.02 L 502.08,365.57 L 502.71,366.45 L 503.99,369.66 L 502.47,372.27 L 502.28,374.13 L 501.36,376.43 L 500.11,376.50 L 497.78,376.69 L 494.08,378.65 L 492.27,380.12 L 490.51,380.57 L 489.01,382.02 L 487.84,384.32 L 487.31,385.95 L 486.39,387.16 L 484.69,389.02 L 484.31,390.28 L 482.52,392.99 L 481.38,394.15 L 480.28,395.92 L 479.50,396.98 L 478.10,397.87 L 477.25,399.05 L 476.49,400.88 L 475.07,403.95 L 473.27,406.08 L 472.20,408.35 L 471.68,409.44 L 471.15,410.32 L 470.83,411.07 L 470.00,414.81 L 472.32,416.06 L 473.20,417.35 L 474.00,419.91 L 475.13,422.24 L 474.62,425.17 L 475.02,428.27 L 471.30,430.87 L 463.81,434.65 L 461.85,435.44 L 459.99,436.57 L 459.94,438.89 L 460.98,439.30 L 462.38,439.90 L 463.14,440.31 L 463.99,440.86 L 465.35,441.74 L 466.75,442.64 L 467.97,443.23 L 466.29,445.04 L 465.16,446.34 L 464.56,447.13 L 464.22,447.95 L 463.99,448.82 L 463.88,449.50 L 463.72,450.36 L 463.20,452.10 L 462.80,453.19 L 462.55,453.79 L 462.13,454.44 L 461.52,454.84 L 459.90,455.53 L 459.54,455.87 L 459.17,456.23 L 458.83,456.56 L 458.67,456.73 L 458.55,456.93 L 458.39,457.20 L 458.13,457.61 L 457.92,457.83 L 457.39,458.18 L 456.86,458.52 L 456.30,458.73 L 455.55,458.85 L 453.46,458.96 L 453.53,461.14 L 454.56,461.50 L 455.85,462.20 L 456.76,463.10 L 457.48,464.22 L 457.93,465.45 L 458.17,466.71 L 458.09,468.35 L 457.37,468.67 L 455.57,469.47 L 453.23,470.11 L 447.03,470.13 L 441.92,470.63 L 438.46,470.93 L 434.12,470.99 L 432.80,471.09 L 431.53,471.18 L 429.50,471.38 L 427.46,471.63 L 425.31,472.06 L 423.02,472.45 L 421.68,472.67 L 419.66,473.83 L 418.32,474.83 L 416.21,476.42 L 415.43,476.87 L 413.61,477.29 L 412.50,477.88 L 411.37,478.06 L 406.58,478.32 L 404.15,478.36 L 403.81,478.37 L 402.65,478.50 L 398.22,478.22 L 394.96,478.16 L 391.98,478.55 L 390.05,478.52 L 387.70,478.58 L 385.45,478.47 L 382.97,478.40 L 380.68,478.66 L 377.37,479.70 L 375.32,480.34 L 372.86,481.12 L 369.33,482.80 L 365.76,484.38 L 364.15,484.54 L 362.68,484.70 L 358.41,485.27 L 355.60,485.48 L 353.96,485.71 L 351.54,486.05 L 350.93,486.13 L 349.51,486.38 L 345.91,486.53 L 342.21,485.96 L 338.91,485.77 L 334.99,485.76 L 331.02,485.38 L 327.79,485.53 L 324.75,485.68 L 323.55,485.81 L 321.08,485.45 L 318.59,485.54 L 316.15,485.31 L 314.99,485.05 L 311.04,484.97 L 307.48,485.49 L 304.88,485.53 L 302.90,485.32 L 300.05,485.43 L 297.76,485.19 L 296.26,485.49 L 295.94,485.60 L 295.20,485.79 L 292.20,486.17 L 289.75,486.27 L 287.39,485.89 L 285.02,485.96 L 283.64,485.98 L 278.79,487.71 L 277.06,487.61 L 275.79,487.19 L 273.44,490.92 L 272.22,493.37 L 270.44,495.96 L 268.14,497.95 L 265.97,499.70 L 262.73,502.50 L 259.96,504.77 L 257.77,507.23 L 256.32,508.86 L 253.67,511.85 L 252.14,513.46 L 250.90,515.07 L 249.99,516.31 L 247.36,520.14 L 246.34,523.41 L 244.35,528.20 L 242.69,532.41 L 239.68,530.46 L 237.17,529.03 L 232.75,527.01 L 230.47,524.70 L 230.13,524.48 L 228.83,523.79 L 232.49,512.37 L 235.57,502.72 L 238.22,494.68 L 238.63,493.41 L 239.23,491.56 L 241.15,485.71 L 242.57,481.30 L 243.85,477.22 L 244.65,474.68 L 245.47,472.00 L 250.92,454.74 L 251.88,451.71 L 253.98,445.27 L 261.22,444.10 L 268.92,445.63 L 270.70,445.64 L 274.69,445.72 L 276.53,445.77 L 278.56,447.01 L 280.22,446.89 L 282.00,445.44 L 285.19,446.01 L 294.24,444.98 L 296.06,444.78 L 296.76,444.70 L 300.17,444.07 L 303.47,443.45 L 307.44,442.59 L 310.19,440.89 L 314.53,436.21 L 321.36,428.88 L 323.57,426.25 L 323.87,425.90 L 324.28,425.41 L 326.29,423.77 L 329.40,421.22 L 330.69,419.64 L 329.08,416.75 L 328.79,416.24 L 327.77,414.41 L 325.92,411.05 L 324.72,408.89 L 321.65,401.18 L 321.59,400.45 L 321.56,399.64 L 323.96,393.72 L 324.59,392.64 L 337.46,393.59 L 339.48,393.73 L 341.14,390.70 L 343.90,387.15 L 344.33,386.59 L 346.53,383.79 L 346.73,383.52 L 347.18,382.92 L 350.22,385.00 L 353.55,388.33 L 356.38,392.70 L 357.94,391.38 L 360.99,388.78 L 364.89,385.44 L 366.82,383.83 L 370.17,380.97 L 371.89,379.50 L 372.52,378.98 L 374.38,377.13 L 375.24,376.26 L 376.95,374.80 L 377.02,374.74 L 378.26,373.68 L 379.78,372.89 L 381.74,371.86 L 384.51,368.45 L 388.77,364.58 L 393.10,360.82 L 393.34,360.60 L 394.54,359.72 L 397.18,358.21 L 397.36,358.09 L 398.30,357.55 L 400.39,356.33 L 403.31,354.87 L 404.91,354.23 L 407.84,353.64 L 411.16,353.73 L 414.88,356.93 L 419.00,360.47 L 420.19,361.65 L 421.10,362.56 L 422.58,362.92 Z" data-name="Sachsenhausen-Süd" data-bezirk="Süd" />
	<path id="stadtteil-20" class="stadtteil-path" d="M 198.07,390.40 L 203.84,392.04 L 217.72,390.21 L 219.66,389.95 L 225.37,389.18 L 230.20,389.43 L 240.90,389.93 L 243.61,390.06 L 245.04,390.01 L 246.45,389.99 L 262.95,389.65 L 270.43,391.62 L 270.83,391.67 L 283.05,391.97 L 283.19,393.88 L 283.23,394.47 L 283.72,400.63 L 283.99,403.77 L 285.25,403.71 L 286.19,410.06 L 287.38,418.11 L 288.06,418.01 L 288.29,419.58 L 287.62,419.69 L 287.94,422.03 L 288.53,425.91 L 294.23,425.85 L 294.22,425.69 L 295.97,425.62 L 304.12,425.36 L 308.26,425.25 L 310.41,425.19 L 315.18,425.08 L 315.46,424.72 L 318.65,425.08 L 321.34,425.41 L 323.38,425.41 L 324.28,425.41 L 323.87,425.90 L 323.57,426.25 L 321.36,428.88 L 314.53,436.21 L 310.19,440.89 L 307.44,442.59 L 303.47,443.45 L 300.17,444.07 L 296.76,444.70 L 296.06,444.78 L 294.24,444.98 L 285.19,446.01 L 282.00,445.44 L 280.22,446.89 L 278.56,447.01 L 276.53,445.77 L 274.69,445.72 L 270.70,445.64 L 268.92,445.63 L 261.22,444.10 L 253.98,445.27 L 253.19,445.28 L 245.33,445.47 L 242.05,445.70 L 233.50,444.77 L 230.83,445.64 L 229.84,444.68 L 219.96,444.31 L 212.67,443.58 L 211.56,443.27 L 211.20,443.16 L 206.12,442.14 L 201.32,442.32 L 197.90,442.93 L 194.58,443.17 L 194.30,443.18 L 192.29,443.30 L 188.97,442.74 L 182.90,443.96 L 180.07,444.83 L 176.85,445.34 L 172.51,446.68 L 170.51,447.68 L 169.24,448.33 L 165.50,449.29 L 163.39,449.55 L 162.19,449.71 L 158.58,449.39 L 154.35,449.01 L 153.38,449.35 L 146.07,451.98 L 145.15,452.31 L 143.90,452.59 L 142.75,452.83 L 139.98,453.86 L 139.90,453.88 L 139.88,453.89 L 139.19,452.27 L 138.19,450.46 L 137.84,449.90 L 137.13,448.84 L 136.37,447.88 L 136.01,447.48 L 135.02,447.00 L 133.88,445.60 L 132.71,444.59 L 131.96,443.68 L 131.10,442.50 L 130.62,441.44 L 130.43,440.94 L 130.01,441.37 L 128.69,441.71 L 128.06,438.11 L 127.32,433.71 L 127.27,430.04 L 124.91,427.67 L 123.90,426.91 L 121.06,426.58 L 117.88,425.88 L 115.20,424.23 L 112.76,421.27 L 112.78,420.99 L 112.57,421.05 L 108.72,420.36 L 108.45,420.29 L 107.23,418.55 L 103.86,414.84 L 105.50,412.41 L 102.31,410.76 L 99.42,408.43 L 99.05,408.12 L 96.12,405.77 L 99.31,401.68 L 105.94,395.37 L 111.66,391.10 L 113.35,389.83 L 118.13,386.72 L 124.00,382.88 L 130.31,376.03 L 131.67,374.38 L 133.05,372.69 L 137.06,367.69 L 141.50,364.25 L 143.37,362.77 L 150.11,361.64 L 163.93,366.16 L 167.55,369.14 L 168.79,370.17 L 173.27,374.12 L 175.34,375.76 L 183.77,382.56 L 185.56,383.81 L 193.19,389.02 L 194.28,389.32 L 198.07,390.40 Z" data-name="Schwanheim" data-bezirk="West" />
	<path id="stadtteil-21" class="stadtteil-path" d="M 245.67,344.54 L 250.69,344.76 L 254.73,344.64 L 257.61,344.56 L 258.77,349.84 L 259.75,354.27 L 260.20,356.21 L 260.28,356.58 L 260.81,358.94 L 260.24,358.97 L 260.24,359.31 L 264.23,367.61 L 266.69,370.69 L 269.15,373.83 L 269.41,375.25 L 269.43,375.32 L 269.56,375.88 L 269.58,375.97 L 269.58,375.98 L 269.80,376.90 L 270.18,378.54 L 270.18,379.16 L 270.17,380.24 L 270.17,380.24 L 270.13,382.44 L 270.20,382.47 L 270.29,382.49 L 270.42,382.46 L 270.48,383.70 L 270.46,383.71 L 270.55,385.88 L 270.56,385.95 L 270.74,389.76 L 270.74,389.84 L 270.83,391.67 L 270.43,391.62 L 262.95,389.65 L 246.45,389.99 L 245.04,390.01 L 243.61,390.06 L 240.90,389.93 L 230.20,389.43 L 225.37,389.18 L 219.66,389.95 L 217.72,390.21 L 203.84,392.04 L 198.07,390.40 L 194.28,389.32 L 193.19,389.02 L 185.56,383.81 L 186.87,382.99 L 190.40,380.79 L 192.84,378.34 L 194.21,376.64 L 194.50,375.65 L 194.64,375.14 L 195.23,373.83 L 195.67,372.82 L 197.67,371.18 L 197.97,371.55 L 200.92,369.36 L 200.68,369.06 L 202.29,367.27 L 202.53,366.99 L 202.60,365.47 L 201.36,360.24 L 201.40,359.57 L 201.53,356.95 L 202.46,353.85 L 204.13,351.51 L 205.65,350.13 L 206.20,349.64 L 210.80,347.34 L 213.76,346.84 L 214.67,347.08 L 215.38,347.27 L 217.15,347.20 L 218.78,346.47 L 219.96,345.91 L 223.00,344.91 L 223.88,344.59 L 224.53,344.54 L 224.95,344.51 L 225.14,344.13 L 225.66,343.17 L 227.35,343.08 L 229.22,342.08 L 230.73,340.94 L 231.42,340.22 L 230.93,339.67 L 229.95,338.84 L 223.67,336.18 L 220.96,333.30 L 220.55,331.99 L 221.41,331.63 L 221.56,328.68 L 221.36,328.04 L 220.36,324.59 L 220.31,324.36 L 219.59,322.01 L 219.29,321.47 L 218.78,320.46 L 218.55,320.09 L 219.28,319.83 L 221.03,319.15 L 222.13,318.72 L 223.27,318.28 L 228.24,316.21 L 228.42,316.66 L 229.41,319.04 L 229.86,320.13 L 230.08,320.65 L 230.70,322.18 L 231.26,323.51 L 231.67,324.53 L 232.74,327.16 L 233.91,329.90 L 235.51,333.66 L 236.79,336.67 L 237.48,338.35 L 239.49,342.82 L 239.88,343.50 L 239.99,343.73 L 244.80,344.41 L 245.67,344.54 Z" data-name="Griesheim" data-bezirk="West" />
	<path id="stadtteil-22" class="stadtteil-path" d="M 309.72,168.36 L 311.50,169.53 L 311.80,169.45 L 312.08,169.39 L 312.02,169.07 L 312.61,169.09 L 313.19,169.04 L 313.52,169.02 L 313.71,169.00 L 315.48,168.86 L 317.25,169.79 L 318.40,171.34 L 320.16,173.51 L 321.02,174.58 L 322.44,176.37 L 322.80,176.02 L 326.59,183.51 L 328.26,186.78 L 327.13,191.78 L 325.68,193.85 L 325.39,194.33 L 324.99,195.21 L 324.74,195.99 L 324.51,196.74 L 324.11,197.83 L 323.72,198.73 L 322.66,200.51 L 322.11,201.25 L 321.22,202.34 L 320.30,203.35 L 318.91,204.81 L 318.32,205.45 L 318.00,205.76 L 317.63,206.09 L 316.90,206.60 L 316.13,207.01 L 315.33,207.32 L 313.80,207.94 L 311.71,209.81 L 309.89,212.72 L 307.22,217.09 L 304.67,219.78 L 301.71,220.56 L 300.68,220.59 L 296.23,220.74 L 294.97,220.78 L 281.83,221.07 L 281.84,220.50 L 281.87,219.33 L 281.93,216.28 L 280.96,216.43 L 280.48,217.01 L 279.79,216.76 L 279.67,215.90 L 278.90,214.19 L 279.76,213.77 L 282.21,212.61 L 281.41,211.07 L 280.39,209.11 L 280.00,208.33 L 278.80,206.03 L 279.12,205.88 L 281.28,204.87 L 281.41,204.81 L 283.63,203.78 L 284.04,203.59 L 284.24,203.50 L 286.37,202.09 L 287.17,201.42 L 287.87,200.81 L 289.44,199.49 L 288.37,196.94 L 288.24,196.54 L 287.62,195.01 L 287.76,193.13 L 289.16,191.79 L 288.30,190.06 L 288.99,189.71 L 292.05,188.19 L 293.48,187.73 L 293.17,183.77 L 293.16,183.59 L 293.51,178.61 L 293.55,178.62 L 293.21,176.95 L 293.02,176.26 L 292.80,175.37 L 292.76,175.24 L 292.55,174.63 L 292.32,174.16 L 292.09,173.64 L 291.65,172.82 L 291.73,172.83 L 292.41,172.84 L 293.11,172.67 L 296.18,172.24 L 296.36,172.16 L 298.75,171.69 L 299.97,171.55 L 300.88,171.52 L 301.98,171.80 L 302.55,172.05 L 302.80,172.26 L 304.41,172.16 L 304.67,170.73 L 304.92,170.49 L 306.76,169.53 L 307.48,169.32 L 308.97,168.50 L 309.72,168.36 Z" data-name="Heddernheim" data-bezirk="Nord-West" />
	<path id="stadtteil-23" class="stadtteil-path" d="M 226.13,243.64 L 229.40,248.16 L 231.41,250.94 L 232.64,252.64 L 233.04,253.18 L 235.94,257.23 L 237.79,260.84 L 238.42,262.70 L 239.52,268.13 L 239.79,269.49 L 240.13,269.57 L 241.71,269.92 L 244.42,270.25 L 248.43,270.10 L 250.53,269.53 L 251.68,269.22 L 253.81,268.35 L 260.21,264.99 L 262.09,264.01 L 261.27,262.55 L 261.11,262.27 L 260.29,260.79 L 259.94,260.17 L 260.30,259.96 L 260.30,258.10 L 262.12,258.18 L 263.56,257.50 L 264.06,257.27 L 266.65,261.88 L 268.79,265.63 L 269.80,267.49 L 269.98,267.83 L 270.39,269.61 L 269.82,270.99 L 269.03,271.97 L 268.54,272.59 L 267.90,273.42 L 267.27,274.22 L 265.48,281.88 L 269.87,281.88 L 270.68,281.91 L 270.44,286.58 L 270.32,288.78 L 270.08,291.45 L 270.02,292.69 L 269.94,294.76 L 269.85,296.54 L 269.77,298.87 L 269.81,299.69 L 269.03,300.71 L 263.68,303.00 L 262.99,304.11 L 261.07,305.75 L 258.51,306.05 L 257.72,306.67 L 257.14,307.40 L 256.05,309.63 L 254.79,310.15 L 253.63,310.25 L 253.02,310.12 L 252.72,310.29 L 251.97,311.54 L 251.97,312.23 L 250.86,311.79 L 250.54,312.00 L 250.01,312.66 L 249.60,313.20 L 249.46,314.30 L 249.36,314.27 L 248.13,313.92 L 245.11,312.92 L 244.64,312.89 L 243.35,312.84 L 240.65,313.34 L 238.52,314.46 L 236.29,315.99 L 233.99,317.92 L 231.41,320.08 L 229.86,320.13 L 229.41,319.04 L 228.42,316.66 L 228.24,316.21 L 228.03,315.72 L 227.58,314.65 L 224.73,307.74 L 223.89,305.73 L 222.63,302.75 L 222.49,302.38 L 221.12,299.12 L 220.90,298.54 L 219.67,295.62 L 219.15,294.45 L 218.69,293.38 L 215.84,286.65 L 213.71,279.48 L 213.64,279.09 L 208.39,275.45 L 206.26,275.52 L 205.72,275.21 L 203.20,273.76 L 201.78,272.87 L 199.23,268.77 L 199.21,268.73 L 199.07,268.45 L 198.72,267.73 L 198.63,267.53 L 198.30,266.80 L 197.63,265.32 L 196.82,263.50 L 196.20,262.62 L 197.68,261.54 L 200.13,259.76 L 201.55,258.52 L 201.97,258.15 L 202.76,257.58 L 204.46,256.34 L 207.04,254.77 L 207.73,254.35 L 209.20,253.49 L 211.69,252.04 L 212.20,251.74 L 213.83,250.79 L 213.82,250.69 L 214.39,250.40 L 214.97,250.02 L 217.43,248.37 L 217.75,248.16 L 217.76,248.16 L 217.76,248.15 L 218.96,247.35 L 218.98,247.29 L 220.19,247.14 L 220.20,247.14 L 221.35,246.46 L 225.44,244.05 L 226.13,243.64 Z" data-name="Rödelheim" data-bezirk="Mitte-West" />
	<path id="stadtteil-24" class="stadtteil-path" d="M 390.04,173.28 L 389.63,171.02 L 389.57,170.57 L 389.20,168.59 L 389.45,166.36 L 389.58,165.33 L 389.41,164.11 L 389.37,163.86 L 388.89,162.99 L 387.99,161.35 L 387.85,160.56 L 387.59,158.93 L 387.54,158.55 L 387.39,157.62 L 389.74,158.99 L 391.62,158.42 L 394.91,155.03 L 396.15,152.42 L 396.33,152.05 L 396.68,151.31 L 398.08,146.34 L 398.81,145.52 L 399.46,144.77 L 402.23,144.71 L 403.67,143.14 L 402.05,138.49 L 404.12,135.88 L 404.47,136.38 L 406.65,137.52 L 408.06,137.15 L 408.06,136.57 L 407.36,135.39 L 407.05,134.84 L 408.71,132.40 L 409.10,131.22 L 410.19,130.37 L 412.73,130.47 L 416.28,132.12 L 416.82,132.23 L 417.35,132.50 L 417.83,132.87 L 418.60,133.28 L 423.83,135.67 L 425.94,135.99 L 427.08,136.27 L 428.97,136.50 L 429.50,137.82 L 428.75,139.15 L 429.57,139.56 L 429.02,141.31 L 429.07,142.39 L 429.20,142.51 L 429.53,144.40 L 429.30,144.59 L 429.73,145.42 L 432.22,150.43 L 432.33,150.37 L 432.60,150.70 L 433.64,152.66 L 434.27,154.36 L 434.39,154.59 L 434.80,155.17 L 436.40,156.46 L 437.61,157.13 L 437.99,157.69 L 438.22,158.08 L 438.54,159.50 L 439.19,161.12 L 443.11,162.74 L 444.15,163.29 L 445.12,163.78 L 446.58,165.93 L 448.62,170.78 L 448.98,171.62 L 450.96,174.66 L 453.20,177.52 L 454.17,179.51 L 454.52,180.27 L 447.28,180.46 L 446.12,180.49 L 442.63,182.11 L 438.62,184.01 L 434.06,186.20 L 431.61,180.80 L 430.38,178.77 L 428.36,177.06 L 425.07,178.64 L 421.87,180.16 L 417.64,182.24 L 414.50,183.12 L 413.24,182.68 L 410.63,183.46 L 409.04,183.96 L 406.78,175.42 L 404.21,176.14 L 401.29,176.32 L 399.89,176.40 L 399.67,177.60 L 398.09,177.28 L 397.17,178.63 L 396.62,178.43 L 396.44,178.36 L 394.40,177.65 L 390.91,178.20 L 390.23,174.41 L 390.04,173.28 Z" data-name="Berkersheim" data-bezirk="Nord-Ost" />
	<path id="stadtteil-25" class="stadtteil-path" d="M 280.39,209.11 L 281.41,211.07 L 282.21,212.61 L 279.76,213.77 L 278.90,214.19 L 279.67,215.90 L 279.79,216.76 L 280.48,217.01 L 280.96,216.43 L 281.93,216.28 L 281.87,219.33 L 281.84,220.50 L 281.83,221.07 L 294.97,220.78 L 296.23,220.74 L 296.22,222.18 L 296.22,222.36 L 296.21,226.20 L 296.19,230.05 L 296.17,235.70 L 295.05,236.59 L 294.75,236.86 L 294.25,238.01 L 294.69,238.25 L 294.50,238.63 L 294.90,239.42 L 294.89,240.05 L 292.86,242.65 L 291.45,243.22 L 290.66,244.33 L 288.98,245.74 L 286.47,247.67 L 285.28,247.07 L 282.20,244.74 L 281.65,245.05 L 280.28,243.51 L 278.80,245.44 L 277.61,247.18 L 275.17,245.88 L 272.75,245.93 L 272.76,246.78 L 269.89,246.82 L 269.70,246.85 L 266.22,246.88 L 266.33,245.50 L 264.81,245.50 L 264.80,245.66 L 263.66,245.64 L 263.01,245.65 L 262.37,247.99 L 262.13,251.03 L 263.26,255.88 L 264.06,257.27 L 263.56,257.50 L 262.12,258.18 L 260.30,258.10 L 260.30,259.96 L 259.94,260.17 L 260.29,260.79 L 261.11,262.27 L 261.27,262.55 L 262.09,264.01 L 260.21,264.99 L 253.81,268.35 L 251.68,269.22 L 250.53,269.53 L 248.43,270.10 L 244.42,270.25 L 241.71,269.92 L 240.13,269.57 L 239.79,269.49 L 239.52,268.13 L 238.42,262.70 L 237.79,260.84 L 235.94,257.23 L 233.04,253.18 L 232.64,252.64 L 231.41,250.94 L 229.40,248.16 L 226.13,243.64 L 225.44,244.05 L 221.35,246.46 L 220.20,247.14 L 220.19,247.14 L 218.98,247.29 L 219.18,246.14 L 219.19,246.11 L 220.11,243.39 L 220.89,241.10 L 221.02,240.73 L 221.24,240.07 L 221.88,238.33 L 221.86,238.06 L 221.97,237.66 L 222.15,237.50 L 224.49,231.41 L 225.30,229.49 L 227.68,222.71 L 229.44,217.81 L 231.21,212.79 L 231.44,212.51 L 231.60,212.01 L 231.62,211.43 L 233.51,206.07 L 234.30,204.04 L 234.30,204.01 L 234.96,201.60 L 234.85,201.33 L 234.89,201.15 L 235.11,200.97 L 235.33,201.03 L 235.80,201.15 L 236.41,201.31 L 236.58,201.58 L 237.48,201.77 L 240.89,201.97 L 242.26,203.04 L 243.45,203.33 L 244.07,203.49 L 250.10,204.93 L 258.59,206.77 L 261.03,207.30 L 262.06,207.71 L 265.30,209.03 L 266.76,209.18 L 268.93,209.23 L 269.51,209.24 L 270.13,209.29 L 270.91,209.33 L 271.90,209.67 L 273.05,209.48 L 272.45,207.74 L 272.14,206.58 L 271.99,205.63 L 272.01,201.30 L 271.91,200.41 L 271.78,199.60 L 271.54,198.65 L 271.15,197.12 L 271.64,197.02 L 274.23,196.37 L 278.46,195.14 L 278.99,194.97 L 278.54,193.44 L 283.03,192.15 L 283.03,192.14 L 288.30,190.06 L 289.16,191.79 L 287.76,193.13 L 287.62,195.01 L 288.24,196.54 L 288.37,196.94 L 289.44,199.49 L 287.87,200.81 L 287.17,201.42 L 286.37,202.09 L 284.24,203.50 L 284.04,203.59 L 283.63,203.78 L 281.41,204.81 L 281.28,204.87 L 279.12,205.88 L 278.80,206.03 L 280.00,208.33 L 280.39,209.11 Z" data-name="Praunheim" data-bezirk="Mitte-West" />
	<path id="stadtteil-26" class="stadtteil-path" d="M 334.11,150.36 L 337.62,153.55 L 338.25,152.72 L 339.65,154.04 L 339.42,154.28 L 342.44,156.21 L 341.51,158.07 L 345.52,159.39 L 349.58,160.70 L 348.76,163.67 L 350.61,164.51 L 347.56,166.99 L 345.65,169.04 L 347.65,171.20 L 351.49,175.94 L 353.27,178.15 L 360.37,184.99 L 361.88,186.14 L 366.45,190.11 L 368.27,191.17 L 368.79,191.56 L 369.30,191.98 L 369.71,192.32 L 370.23,192.79 L 370.49,193.03 L 371.31,193.90 L 371.55,194.52 L 371.52,194.77 L 366.41,194.94 L 365.94,198.51 L 364.57,198.36 L 363.82,200.64 L 362.58,201.67 L 362.26,201.51 L 361.40,200.06 L 359.07,201.18 L 359.03,201.40 L 357.22,203.55 L 358.06,206.94 L 356.86,207.28 L 354.92,207.83 L 354.62,206.75 L 352.83,207.26 L 353.63,210.07 L 351.97,210.77 L 353.06,213.80 L 354.53,217.85 L 352.41,218.35 L 353.49,222.09 L 353.57,222.38 L 353.85,223.34 L 351.50,224.13 L 350.80,223.16 L 350.01,222.11 L 348.62,220.20 L 347.71,218.97 L 346.44,217.26 L 345.78,217.41 L 344.71,217.69 L 344.30,217.78 L 342.25,218.31 L 340.27,218.80 L 339.40,219.01 L 338.53,219.58 L 337.12,220.50 L 336.35,221.02 L 335.23,221.76 L 334.60,222.18 L 333.96,222.58 L 333.90,222.18 L 333.39,218.41 L 331.65,217.37 L 330.39,216.65 L 329.47,216.25 L 328.03,215.59 L 327.13,219.42 L 325.65,219.32 L 322.47,218.25 L 320.37,217.55 L 319.79,217.33 L 320.36,216.27 L 321.67,213.94 L 321.33,213.74 L 320.94,213.53 L 320.44,214.41 L 320.35,214.38 L 317.45,212.27 L 314.69,210.28 L 315.99,207.68 L 315.50,207.86 L 315.33,207.32 L 316.13,207.01 L 316.90,206.60 L 317.63,206.09 L 318.00,205.76 L 318.32,205.45 L 318.91,204.81 L 320.30,203.35 L 321.22,202.34 L 322.11,201.25 L 322.66,200.51 L 323.72,198.73 L 324.11,197.83 L 324.51,196.74 L 324.74,195.99 L 324.99,195.21 L 325.39,194.33 L 325.68,193.85 L 327.13,191.78 L 328.26,186.78 L 326.59,183.51 L 322.80,176.02 L 322.07,171.32 L 321.71,169.09 L 324.04,165.24 L 324.54,163.55 L 326.12,158.19 L 330.32,151.51 L 330.74,151.89 L 331.45,152.56 L 334.11,150.36 Z" data-name="Eschersheim" data-bezirk="Mitte-Nord" />
	<path id="stadtteil-27" class="stadtteil-path" d="M 338.60,249.22 L 337.72,252.26 L 338.09,254.56 L 333.83,254.42 L 331.24,255.95 L 332.09,257.57 L 328.30,257.50 L 327.35,257.49 L 325.68,257.45 L 323.77,257.44 L 321.92,256.90 L 320.55,256.52 L 319.97,256.34 L 317.87,255.65 L 316.44,255.28 L 314.19,255.16 L 314.15,254.73 L 311.94,254.83 L 310.07,254.90 L 308.56,254.97 L 308.40,255.45 L 307.77,255.40 L 307.43,253.97 L 306.46,253.77 L 304.91,253.44 L 304.92,252.91 L 304.49,252.77 L 304.24,252.69 L 303.90,252.60 L 303.90,251.96 L 304.10,251.38 L 302.80,250.52 L 302.88,249.62 L 302.03,249.61 L 298.84,249.44 L 297.53,249.62 L 295.37,250.58 L 295.12,250.79 L 294.64,251.24 L 293.95,251.03 L 293.73,250.53 L 293.85,249.66 L 293.28,248.61 L 291.96,248.11 L 291.81,247.84 L 291.50,247.27 L 288.98,245.74 L 290.66,244.33 L 291.45,243.22 L 292.86,242.65 L 294.89,240.05 L 294.90,239.42 L 294.50,238.63 L 294.69,238.25 L 294.25,238.01 L 294.75,236.86 L 295.05,236.59 L 296.17,235.70 L 296.19,230.05 L 296.21,226.20 L 296.22,222.36 L 296.22,222.18 L 296.23,220.74 L 300.68,220.59 L 301.71,220.56 L 304.67,219.78 L 307.22,217.09 L 309.89,212.72 L 311.71,209.81 L 313.80,207.94 L 315.33,207.32 L 315.50,207.86 L 315.99,207.68 L 314.69,210.28 L 317.45,212.27 L 320.35,214.38 L 320.44,214.41 L 320.94,213.53 L 321.33,213.74 L 321.67,213.94 L 320.36,216.27 L 319.79,217.33 L 320.37,217.55 L 322.47,218.25 L 325.65,219.32 L 327.13,219.42 L 328.03,215.59 L 329.47,216.25 L 330.39,216.65 L 331.65,217.37 L 333.39,218.41 L 333.90,222.18 L 333.96,222.58 L 334.60,222.18 L 335.23,221.76 L 336.35,221.02 L 337.12,220.50 L 338.53,219.58 L 339.40,219.01 L 340.02,221.23 L 340.27,222.15 L 341.02,224.81 L 341.59,226.77 L 342.61,229.16 L 343.26,230.66 L 343.92,232.20 L 345.15,235.03 L 344.34,235.60 L 342.80,236.74 L 344.85,238.60 L 340.72,243.74 L 339.16,245.71 L 339.53,245.99 L 339.08,247.62 L 338.60,249.22 Z" data-name="Ginnheim" data-bezirk="Mitte-Nord" />
	<path id="stadtteil-28" class="stadtteil-path" d="M 256.93,143.13 L 259.33,145.29 L 262.73,148.64 L 274.39,153.05 L 274.84,153.55 L 278.86,149.39 L 283.42,144.54 L 283.88,144.04 L 284.16,144.47 L 284.65,143.90 L 285.15,143.34 L 285.67,142.80 L 286.20,142.26 L 288.51,145.13 L 288.75,144.94 L 290.79,147.45 L 294.64,151.59 L 295.03,152.04 L 295.28,152.40 L 295.53,152.94 L 295.64,153.41 L 295.71,153.72 L 295.75,154.09 L 295.74,154.62 L 295.62,155.29 L 295.38,156.30 L 295.32,156.68 L 295.31,157.13 L 295.35,157.42 L 295.52,158.02 L 295.67,158.37 L 295.97,158.75 L 296.24,159.01 L 296.75,159.46 L 297.80,157.99 L 302.24,151.94 L 302.44,152.15 L 304.20,150.51 L 306.09,149.34 L 313.81,144.63 L 316.54,142.95 L 317.61,142.16 L 317.61,142.17 L 317.60,144.06 L 317.79,146.21 L 318.03,147.45 L 318.59,149.24 L 319.22,150.89 L 320.18,152.47 L 321.15,153.83 L 322.18,154.99 L 323.75,156.43 L 324.74,157.25 L 325.46,157.80 L 326.12,158.19 L 324.54,163.55 L 324.04,165.24 L 321.71,169.09 L 322.07,171.32 L 322.80,176.02 L 322.44,176.37 L 321.02,174.58 L 320.16,173.51 L 318.40,171.34 L 317.25,169.79 L 315.48,168.86 L 313.71,169.00 L 313.52,169.02 L 313.19,169.04 L 312.61,169.09 L 312.02,169.07 L 312.08,169.39 L 311.80,169.45 L 311.50,169.53 L 309.72,168.36 L 308.97,168.50 L 307.48,169.32 L 306.76,169.53 L 304.92,170.49 L 304.67,170.73 L 304.41,172.16 L 302.80,172.26 L 302.55,172.05 L 301.98,171.80 L 300.88,171.52 L 299.97,171.55 L 298.75,171.69 L 296.36,172.16 L 296.18,172.24 L 293.11,172.67 L 292.41,172.84 L 291.73,172.83 L 291.65,172.82 L 292.09,173.64 L 292.32,174.16 L 292.55,174.63 L 292.76,175.24 L 292.80,175.37 L 293.02,176.26 L 293.21,176.95 L 293.55,178.62 L 293.51,178.61 L 293.16,183.59 L 293.17,183.77 L 293.48,187.73 L 292.05,188.19 L 288.99,189.71 L 288.30,190.06 L 283.03,192.14 L 283.03,192.15 L 278.54,193.44 L 278.99,194.97 L 278.46,195.14 L 274.23,196.37 L 271.64,197.02 L 271.15,197.12 L 271.54,198.65 L 271.78,199.60 L 271.91,200.41 L 272.01,201.30 L 271.99,205.63 L 272.14,206.58 L 272.45,207.74 L 273.05,209.48 L 271.90,209.67 L 270.91,209.33 L 270.13,209.29 L 269.51,209.24 L 268.93,209.23 L 266.76,209.18 L 265.30,209.03 L 262.06,207.71 L 261.03,207.30 L 258.59,206.77 L 250.10,204.93 L 244.07,203.49 L 243.45,203.33 L 242.26,203.04 L 240.89,201.97 L 237.48,201.77 L 236.58,201.58 L 236.41,201.31 L 235.80,201.15 L 235.33,201.03 L 235.11,200.97 L 235.12,200.96 L 235.47,200.19 L 235.74,199.71 L 236.05,198.60 L 233.52,197.91 L 231.18,197.27 L 227.03,196.12 L 220.45,192.58 L 218.08,191.32 L 214.60,189.45 L 214.39,189.49 L 212.58,191.79 L 212.53,192.02 L 212.60,192.29 L 212.51,192.33 L 212.17,191.16 L 211.66,188.48 L 211.44,185.55 L 210.79,179.49 L 210.37,176.59 L 209.66,171.20 L 209.48,168.93 L 209.19,166.88 L 209.83,166.18 L 216.67,169.37 L 219.07,165.28 L 222.59,159.33 L 224.53,154.72 L 225.40,152.62 L 235.36,157.25 L 238.37,152.85 L 239.59,151.08 L 244.27,147.97 L 246.38,146.11 L 247.91,144.84 L 248.73,144.02 L 249.16,144.13 L 249.30,144.06 L 249.31,144.06 L 248.41,142.35 L 248.00,141.81 L 247.33,141.10 L 245.82,139.64 L 245.00,138.77 L 244.19,137.95 L 243.72,137.46 L 242.59,136.01 L 241.61,133.90 L 240.91,131.12 L 241.21,130.92 L 243.71,129.56 L 249.28,126.90 L 256.46,125.30 L 256.99,125.13 L 260.16,122.78 L 261.86,121.50 L 263.10,120.85 L 263.94,120.56 L 264.84,120.37 L 264.58,120.84 L 263.68,122.58 L 262.93,124.03 L 263.27,124.30 L 263.61,124.61 L 262.95,125.88 L 262.61,126.50 L 262.33,127.30 L 261.89,128.48 L 260.31,132.87 L 259.81,134.34 L 259.27,135.91 L 258.66,137.76 L 258.12,139.38 L 256.93,143.13 Z" data-name="Niederursel" data-bezirk="Nord-West" />
	<path id="stadtteil-29" class="stadtteil-path" d="M 370.59,198.48 L 370.34,199.05 L 370.02,199.64 L 368.59,202.44 L 367.96,204.01 L 367.36,205.93 L 366.95,207.69 L 366.95,208.14 L 367.05,212.61 L 367.35,213.87 L 368.61,219.19 L 371.21,221.92 L 371.30,222.02 L 372.19,224.08 L 374.36,226.17 L 371.88,229.04 L 371.24,229.94 L 371.17,230.05 L 371.06,230.88 L 370.57,234.50 L 370.51,234.91 L 370.23,238.00 L 370.28,239.60 L 371.11,243.39 L 371.30,243.88 L 371.73,245.00 L 375.06,243.85 L 377.00,243.17 L 378.89,242.51 L 380.44,241.98 L 381.06,241.76 L 382.80,241.16 L 383.60,243.63 L 384.18,246.02 L 384.50,247.42 L 385.18,250.23 L 385.11,250.98 L 384.83,254.13 L 384.41,256.26 L 383.06,256.01 L 382.44,255.88 L 381.14,256.07 L 379.14,256.36 L 377.31,256.64 L 376.91,254.78 L 376.12,254.48 L 371.35,255.39 L 367.25,256.15 L 367.37,257.16 L 366.30,257.27 L 365.26,257.36 L 364.19,257.45 L 363.25,257.53 L 362.17,257.63 L 360.75,257.77 L 360.26,255.35 L 360.17,255.07 L 359.52,252.68 L 358.90,250.42 L 356.78,251.61 L 355.97,252.06 L 354.71,252.78 L 353.22,253.60 L 349.91,255.72 L 348.66,257.08 L 347.06,257.44 L 345.96,257.37 L 342.40,257.09 L 336.17,257.56 L 335.37,257.62 L 332.09,257.57 L 331.24,255.95 L 333.83,254.42 L 338.09,254.56 L 337.72,252.26 L 338.60,249.22 L 339.08,247.62 L 339.53,245.99 L 339.16,245.71 L 340.72,243.74 L 344.85,238.60 L 342.80,236.74 L 344.34,235.60 L 345.15,235.03 L 343.92,232.20 L 343.26,230.66 L 342.61,229.16 L 341.59,226.77 L 341.02,224.81 L 340.27,222.15 L 340.02,221.23 L 339.40,219.01 L 340.27,218.80 L 342.25,218.31 L 344.30,217.78 L 344.71,217.69 L 345.78,217.41 L 346.44,217.26 L 347.71,218.97 L 348.62,220.20 L 350.01,222.11 L 350.80,223.16 L 351.50,224.13 L 353.85,223.34 L 353.57,222.38 L 353.49,222.09 L 352.41,218.35 L 354.53,217.85 L 353.06,213.80 L 351.97,210.77 L 353.63,210.07 L 352.83,207.26 L 354.62,206.75 L 354.92,207.83 L 356.86,207.28 L 358.06,206.94 L 357.22,203.55 L 359.03,201.40 L 359.07,201.18 L 361.40,200.06 L 362.26,201.51 L 362.58,201.67 L 363.82,200.64 L 364.57,198.36 L 365.94,198.51 L 366.41,194.94 L 371.52,194.77 L 371.52,194.78 L 371.45,195.31 L 371.36,195.99 L 371.29,196.52 L 371.27,196.63 L 371.17,196.97 L 370.97,197.64 L 370.91,197.77 L 370.59,198.48 Z" data-name="Dornbusch" data-bezirk="Mitte-Nord" />
	<path id="stadtteil-30" class="stadtteil-path" d="M 345.44,142.76 L 344.53,142.67 L 338.84,136.68 L 338.46,136.27 L 336.75,134.45 L 337.60,133.82 L 333.27,129.77 L 332.40,129.40 L 330.51,128.59 L 329.09,127.79 L 328.41,127.20 L 331.37,124.67 L 331.37,124.66 L 333.62,122.11 L 333.64,122.08 L 334.59,120.35 L 335.55,118.05 L 335.85,116.60 L 336.36,113.89 L 336.17,112.62 L 337.12,112.57 L 339.88,112.56 L 340.71,113.48 L 340.97,113.10 L 341.02,110.90 L 343.25,110.87 L 343.21,112.68 L 345.31,112.33 L 345.74,112.24 L 346.34,111.64 L 346.75,110.94 L 349.05,112.55 L 349.67,113.00 L 350.93,113.04 L 351.10,112.13 L 352.31,111.17 L 354.94,114.40 L 355.09,114.59 L 357.56,111.68 L 360.09,115.06 L 360.26,114.85 L 363.17,117.46 L 365.07,115.34 L 369.83,120.19 L 370.77,121.15 L 374.54,124.86 L 373.66,124.83 L 370.80,127.53 L 368.24,129.98 L 367.04,129.48 L 365.67,132.28 L 364.26,131.80 L 363.57,133.20 L 363.31,133.71 L 362.98,134.41 L 363.82,135.58 L 362.83,136.57 L 360.79,139.63 L 357.43,139.10 L 355.27,139.50 L 353.30,140.79 L 350.84,142.38 L 348.30,142.99 L 346.56,142.85 L 345.44,142.76 Z" data-name="Bonames" data-bezirk="Nord-Ost" />
	<path id="stadtteil-31" class="stadtteil-path" d="M 367.36,205.93 L 367.96,204.01 L 368.59,202.44 L 370.02,199.64 L 370.34,199.05 L 370.59,198.48 L 370.91,197.77 L 370.97,197.64 L 371.17,196.97 L 371.27,196.63 L 371.29,196.52 L 371.36,195.99 L 371.45,195.31 L 371.52,194.78 L 371.52,194.77 L 371.55,194.52 L 371.31,193.90 L 370.49,193.03 L 370.23,192.79 L 369.71,192.32 L 369.30,191.98 L 368.79,191.56 L 368.27,191.17 L 366.45,190.11 L 361.88,186.14 L 361.82,185.70 L 362.71,185.50 L 364.51,185.07 L 363.09,182.97 L 364.45,182.71 L 363.32,181.32 L 366.71,179.53 L 369.45,178.84 L 370.75,178.54 L 371.02,178.95 L 372.86,181.29 L 378.87,189.42 L 379.65,189.85 L 380.07,192.38 L 380.03,192.75 L 379.95,193.71 L 379.20,196.52 L 379.13,196.95 L 378.89,198.51 L 383.22,199.56 L 385.78,201.49 L 385.87,201.59 L 387.67,203.48 L 388.15,206.55 L 388.55,207.59 L 390.55,206.85 L 390.72,206.78 L 391.29,208.31 L 392.10,210.42 L 392.57,211.30 L 393.00,212.11 L 393.01,212.12 L 393.66,213.32 L 394.36,215.45 L 396.46,214.74 L 396.59,215.78 L 397.18,218.01 L 398.05,221.90 L 398.09,222.39 L 398.07,223.24 L 398.06,224.78 L 398.67,227.99 L 398.75,228.27 L 399.35,230.67 L 400.74,232.74 L 401.87,234.43 L 404.41,237.08 L 405.69,238.52 L 403.74,239.67 L 401.97,240.18 L 399.67,240.61 L 401.33,246.74 L 398.88,247.36 L 396.73,247.88 L 395.44,248.19 L 391.79,248.70 L 385.18,250.23 L 384.50,247.42 L 384.18,246.02 L 383.60,243.63 L 382.80,241.16 L 381.06,241.76 L 380.44,241.98 L 378.89,242.51 L 377.00,243.17 L 375.06,243.85 L 371.73,245.00 L 371.30,243.88 L 371.11,243.39 L 370.28,239.60 L 370.23,238.00 L 370.51,234.91 L 370.57,234.50 L 371.06,230.88 L 371.17,230.05 L 371.24,229.94 L 371.88,229.04 L 374.36,226.17 L 372.19,224.08 L 371.30,222.02 L 371.21,221.92 L 368.61,219.19 L 367.35,213.87 L 367.05,212.61 L 366.95,208.14 L 366.95,207.69 L 367.36,205.93 Z" data-name="Eckenheim" data-bezirk="Nord-Ost" />
	<path id="stadtteil-32" class="stadtteil-path" d="M 404.41,237.08 L 401.87,234.43 L 400.74,232.74 L 399.35,230.67 L 398.75,228.27 L 398.67,227.99 L 398.06,224.78 L 398.07,223.24 L 398.09,222.39 L 398.05,221.90 L 397.18,218.01 L 396.59,215.78 L 396.46,214.74 L 394.36,215.45 L 393.66,213.32 L 393.01,212.12 L 393.00,212.11 L 392.57,211.30 L 392.10,210.42 L 391.29,208.31 L 390.72,206.78 L 390.55,206.85 L 388.55,207.59 L 388.15,206.55 L 387.67,203.48 L 385.87,201.59 L 385.78,201.49 L 383.22,199.56 L 378.89,198.51 L 379.13,196.95 L 379.20,196.52 L 379.95,193.71 L 380.03,192.75 L 380.07,192.38 L 379.65,189.85 L 378.87,189.42 L 372.86,181.29 L 375.03,179.18 L 376.76,177.41 L 379.33,176.31 L 379.59,176.66 L 382.05,180.06 L 388.04,175.52 L 390.23,174.41 L 390.91,178.20 L 394.40,177.65 L 396.44,178.36 L 396.62,178.43 L 397.17,178.63 L 398.09,177.28 L 399.67,177.60 L 399.89,176.40 L 401.29,176.32 L 404.21,176.14 L 406.78,175.42 L 409.04,183.96 L 410.63,183.46 L 413.24,182.68 L 414.50,183.12 L 417.64,182.24 L 421.87,180.16 L 425.07,178.64 L 428.36,177.06 L 430.38,178.77 L 431.61,180.80 L 434.06,186.20 L 435.34,189.21 L 436.20,193.84 L 431.43,194.87 L 431.79,196.31 L 432.33,198.57 L 428.43,199.29 L 429.87,206.55 L 431.25,210.54 L 429.18,211.16 L 429.98,214.27 L 427.63,217.34 L 425.13,219.13 L 423.94,219.55 L 424.12,220.13 L 423.30,220.43 L 423.83,221.80 L 423.92,222.00 L 424.76,227.12 L 422.05,228.04 L 421.48,228.24 L 422.07,230.96 L 422.43,232.35 L 421.77,233.63 L 421.58,233.56 L 420.94,234.66 L 421.18,235.41 L 419.71,237.34 L 418.65,238.25 L 417.51,239.08 L 413.98,241.78 L 412.94,242.55 L 411.66,243.49 L 410.79,244.31 L 410.79,244.31 L 405.69,238.52 L 404.41,237.08 Z" data-name="Preungesheim" data-bezirk="Nord-Ost" />
	<path id="stadtteil-33" class="stadtteil-path" d="M 420.94,234.66 L 421.58,233.56 L 421.77,233.63 L 422.43,232.35 L 422.07,230.96 L 421.48,228.24 L 422.05,228.04 L 424.76,227.12 L 423.92,222.00 L 423.83,221.80 L 423.30,220.43 L 424.12,220.13 L 423.94,219.55 L 425.13,219.13 L 427.63,217.34 L 429.98,214.27 L 429.18,211.16 L 431.25,210.54 L 429.87,206.55 L 428.43,199.29 L 432.33,198.57 L 431.79,196.31 L 431.43,194.87 L 436.20,193.84 L 435.34,189.21 L 434.06,186.20 L 438.62,184.01 L 442.63,182.11 L 446.12,180.49 L 447.28,180.46 L 454.52,180.27 L 457.18,180.67 L 458.11,180.98 L 459.96,181.01 L 463.00,181.64 L 465.46,182.09 L 465.61,182.04 L 465.69,182.02 L 465.86,182.22 L 468.53,183.75 L 472.62,183.86 L 473.93,183.55 L 475.96,182.54 L 476.57,182.14 L 477.82,181.77 L 477.82,181.77 L 477.82,181.77 L 477.82,181.77 L 477.91,181.74 L 477.92,181.73 L 481.92,187.26 L 484.05,189.50 L 486.11,196.11 L 486.67,197.90 L 488.38,196.77 L 489.95,200.78 L 487.78,202.04 L 488.46,203.93 L 490.61,210.05 L 491.51,211.96 L 491.87,211.88 L 492.39,212.94 L 492.07,213.21 L 495.92,221.53 L 496.21,222.17 L 493.10,223.07 L 494.32,224.00 L 491.10,225.58 L 492.79,230.68 L 488.17,232.43 L 487.39,232.73 L 487.88,234.01 L 489.24,236.36 L 490.58,238.57 L 491.52,240.11 L 496.36,249.66 L 495.12,250.83 L 497.31,254.52 L 498.37,256.33 L 499.79,258.71 L 498.38,258.54 L 492.14,262.95 L 490.79,265.99 L 488.96,269.96 L 486.72,270.25 L 483.91,270.79 L 483.36,270.88 L 482.06,271.12 L 480.47,271.42 L 480.39,269.62 L 473.02,269.89 L 472.00,269.93 L 472.21,270.66 L 467.82,272.55 L 467.60,272.64 L 465.81,273.86 L 463.04,276.92 L 458.69,280.72 L 457.85,281.25 L 457.56,279.84 L 457.23,277.93 L 457.04,276.28 L 457.01,273.97 L 456.83,268.10 L 456.20,264.69 L 455.35,262.16 L 453.65,259.63 L 451.72,257.55 L 449.94,256.16 L 447.97,254.90 L 445.43,254.09 L 439.98,253.59 L 437.76,253.30 L 436.43,253.01 L 434.68,252.57 L 432.90,251.93 L 431.18,250.95 L 428.90,249.21 L 427.15,247.65 L 425.93,246.26 L 425.00,244.90 L 423.54,242.18 L 422.41,239.37 L 420.94,234.66 Z" data-name="Seckbach" data-bezirk="Ost" />
	<path id="stadtteil-34" class="stadtteil-path" d="M 395.11,75.29 L 392.78,73.01 L 391.54,71.45 L 390.28,69.18 L 387.41,64.10 L 383.15,56.16 L 380.78,52.37 L 379.06,48.94 L 381.33,47.16 L 379.92,44.86 L 378.30,43.32 L 379.84,41.57 L 386.29,33.87 L 386.47,33.92 L 388.96,37.53 L 395.49,32.94 L 395.81,32.34 L 397.28,29.77 L 398.21,30.50 L 399.34,31.52 L 399.84,32.07 L 401.98,29.41 L 403.85,30.93 L 409.73,28.47 L 410.21,28.98 L 411.72,27.70 L 413.77,25.97 L 415.21,27.98 L 415.89,28.43 L 421.25,24.33 L 423.20,22.80 L 422.80,22.31 L 430.00,16.24 L 432.95,13.86 L 431.50,12.26 L 431.44,12.25 L 430.25,3.46 L 429.63,0.25 L 429.54,0.00 L 435.13,0.06 L 435.47,2.60 L 435.89,5.81 L 440.89,3.68 L 441.11,4.02 L 442.48,7.99 L 447.62,5.54 L 448.52,8.06 L 450.37,13.06 L 452.31,15.24 L 452.88,16.45 L 455.49,16.76 L 455.86,18.01 L 456.85,20.97 L 461.44,22.66 L 465.10,24.79 L 469.53,26.93 L 469.65,27.14 L 469.99,28.15 L 470.39,28.63 L 470.72,29.79 L 470.87,30.97 L 470.84,31.97 L 475.95,32.90 L 475.70,34.00 L 475.15,35.68 L 474.39,37.01 L 475.39,41.03 L 475.97,43.39 L 476.30,44.70 L 472.58,45.41 L 468.61,46.19 L 469.37,51.49 L 469.99,55.81 L 469.25,56.03 L 470.43,58.92 L 468.93,61.50 L 468.09,61.91 L 468.48,66.70 L 465.90,68.31 L 466.21,68.90 L 466.55,69.50 L 465.35,70.29 L 455.78,75.81 L 448.84,79.73 L 448.17,82.63 L 447.26,86.16 L 447.28,86.62 L 446.38,87.65 L 444.95,88.23 L 441.84,90.31 L 441.28,90.12 L 441.22,90.17 L 438.27,92.61 L 437.64,92.25 L 437.26,92.21 L 436.53,92.00 L 436.06,91.55 L 435.94,91.34 L 431.98,93.96 L 431.23,94.44 L 422.64,100.09 L 421.55,99.13 L 418.87,96.73 L 416.59,94.53 L 410.02,88.99 L 408.33,87.82 L 402.99,84.15 L 397.41,77.39 L 396.02,76.13 L 395.11,75.29 Z" data-name="Nieder-Erlenbach" data-bezirk="Nieder-Erlenbach" />
	<path id="stadtteil-35" class="stadtteil-path" d="M 557.90,251.47 L 557.59,254.56 L 555.46,254.82 L 553.11,255.49 L 549.42,257.10 L 547.97,257.80 L 546.45,258.76 L 545.39,259.55 L 542.84,262.09 L 541.01,264.39 L 539.34,267.23 L 538.58,269.43 L 538.15,271.42 L 537.98,273.25 L 537.86,275.92 L 538.03,278.12 L 538.68,280.79 L 539.31,282.92 L 539.86,284.28 L 541.14,286.85 L 542.02,288.34 L 542.07,288.46 L 544.03,291.37 L 544.03,291.38 L 545.74,295.17 L 548.42,299.23 L 550.62,302.36 L 551.08,302.90 L 555.45,307.65 L 556.19,308.58 L 557.54,311.23 L 558.95,315.44 L 559.30,317.04 L 559.60,318.66 L 559.71,322.88 L 559.10,325.73 L 558.69,326.87 L 557.67,328.65 L 556.49,330.15 L 554.85,331.61 L 552.12,333.65 L 548.79,335.75 L 546.02,337.00 L 544.67,337.39 L 542.90,337.72 L 540.49,337.80 L 537.78,337.51 L 535.61,336.96 L 532.20,335.60 L 527.59,333.39 L 525.62,332.23 L 522.75,329.65 L 518.50,324.82 L 516.34,321.94 L 514.15,319.67 L 511.38,317.58 L 508.87,316.61 L 507.31,316.28 L 503.64,315.83 L 500.90,315.72 L 497.95,316.02 L 495.59,316.41 L 495.54,316.26 L 495.54,316.26 L 495.54,316.26 L 495.44,316.00 L 495.18,314.08 L 496.66,308.75 L 497.65,305.14 L 498.53,301.95 L 499.10,299.87 L 499.65,297.90 L 499.82,297.25 L 498.51,296.57 L 498.15,296.43 L 495.42,295.26 L 493.17,291.45 L 496.83,289.34 L 492.62,286.73 L 491.83,286.26 L 491.50,286.06 L 491.01,283.79 L 489.18,283.46 L 488.65,282.83 L 488.29,280.13 L 487.92,277.26 L 485.86,277.50 L 485.93,276.31 L 487.76,272.48 L 488.96,269.96 L 490.79,265.99 L 492.14,262.95 L 498.38,258.54 L 499.79,258.71 L 503.45,257.85 L 504.77,255.17 L 507.40,253.37 L 510.36,253.13 L 512.71,253.64 L 516.06,253.41 L 519.23,252.76 L 518.27,250.43 L 521.55,249.23 L 523.75,248.60 L 529.67,246.88 L 532.36,245.57 L 539.22,240.64 L 549.12,237.65 L 554.85,236.25 L 562.25,235.77 L 562.26,236.58 L 562.40,238.33 L 562.45,239.65 L 563.17,240.91 L 563.80,242.33 L 564.51,243.57 L 565.97,245.15 L 566.47,246.57 L 566.91,248.53 L 566.11,248.78 L 557.90,251.47 Z" data-name="Fechenheim" data-bezirk="Ost" />
	<path id="stadtteil-36" class="stadtteil-path" d="M 379.84,41.57 L 378.30,43.32 L 379.92,44.86 L 381.33,47.16 L 379.06,48.94 L 380.78,52.37 L 383.15,56.16 L 387.41,64.10 L 390.28,69.18 L 391.54,71.45 L 392.78,73.01 L 395.11,75.29 L 382.07,90.20 L 379.43,92.88 L 379.55,94.69 L 379.69,96.73 L 378.32,96.97 L 378.17,98.09 L 376.91,98.58 L 374.75,99.40 L 373.78,99.81 L 373.26,100.36 L 370.70,103.11 L 360.26,114.85 L 360.09,115.06 L 357.56,111.68 L 355.09,114.59 L 354.94,114.40 L 352.31,111.17 L 351.10,112.13 L 350.93,113.04 L 349.67,113.00 L 349.05,112.55 L 346.75,110.94 L 346.34,111.64 L 345.74,112.24 L 345.31,112.33 L 343.21,112.68 L 343.25,110.87 L 341.02,110.90 L 340.97,113.10 L 340.71,113.48 L 339.88,112.56 L 337.12,112.57 L 336.17,112.62 L 335.67,108.86 L 333.16,103.32 L 328.02,94.92 L 326.66,92.72 L 319.73,81.52 L 319.48,81.25 L 313.43,74.63 L 313.93,74.20 L 313.24,73.41 L 312.65,72.46 L 311.66,71.21 L 310.95,70.91 L 309.87,70.14 L 314.17,67.78 L 319.62,61.48 L 323.23,57.32 L 326.99,58.12 L 329.54,58.41 L 331.90,56.18 L 332.77,55.06 L 334.68,53.03 L 336.23,50.84 L 336.63,50.15 L 336.91,49.80 L 339.04,52.76 L 339.33,53.31 L 341.95,49.87 L 343.70,47.68 L 346.97,43.64 L 347.35,43.82 L 348.54,42.47 L 348.37,42.38 L 351.09,38.64 L 356.61,28.82 L 360.41,31.14 L 362.75,28.25 L 366.29,31.07 L 370.40,34.07 L 371.26,34.70 L 376.22,38.49 L 379.84,41.57 Z" data-name="Nieder-Eschbach" data-bezirk="Nieder-Eschbach" />
	<path id="stadtteil-37" class="stadtteil-path" d="M 142.78,332.79 L 142.91,333.52 L 142.96,333.51 L 143.19,333.48 L 144.42,333.35 L 144.47,333.34 L 146.38,333.05 L 149.83,327.35 L 150.43,326.87 L 150.45,326.85 L 151.55,325.95 L 152.26,324.98 L 153.22,323.65 L 154.45,321.49 L 154.48,321.44 L 157.36,324.95 L 159.48,327.41 L 159.49,327.43 L 165.35,334.15 L 165.36,334.12 L 166.33,332.32 L 168.57,332.49 L 169.04,332.23 L 170.61,334.80 L 170.63,334.83 L 170.86,335.20 L 169.11,337.71 L 169.06,337.82 L 169.06,337.82 L 168.61,338.83 L 168.21,339.80 L 167.80,342.60 L 168.53,348.18 L 168.00,348.22 L 160.44,348.76 L 160.36,348.76 L 160.36,348.76 L 156.06,349.08 L 156.04,349.08 L 155.77,349.33 L 154.85,350.17 L 154.58,350.42 L 154.10,350.84 L 153.80,351.11 L 152.71,352.12 L 152.42,352.39 L 152.42,352.39 L 152.40,352.41 L 151.81,352.90 L 150.28,353.67 L 150.27,353.67 L 150.62,354.31 L 150.35,354.44 L 150.02,356.86 L 150.02,356.87 L 149.99,357.09 L 147.50,358.80 L 147.43,358.85 L 143.58,361.01 L 143.36,361.34 L 143.19,361.61 L 143.06,361.82 L 142.94,362.00 L 142.94,362.00 L 141.50,364.25 L 137.06,367.69 L 133.05,372.69 L 131.67,374.38 L 130.31,376.03 L 124.00,382.88 L 118.13,386.72 L 113.44,389.77 L 113.35,389.83 L 111.66,391.10 L 110.76,389.95 L 110.71,389.90 L 103.41,395.47 L 99.05,399.70 L 97.34,401.69 L 95.65,403.62 L 94.16,405.76 L 92.89,407.93 L 92.68,408.30 L 91.79,409.94 L 89.59,413.94 L 87.44,412.50 L 86.71,412.01 L 84.92,410.81 L 84.65,410.36 L 82.00,406.08 L 80.86,404.21 L 79.36,401.81 L 78.90,401.12 L 77.99,401.34 L 76.75,401.64 L 76.74,401.63 L 76.57,401.12 L 76.19,399.95 L 76.16,399.87 L 75.28,397.46 L 74.08,394.13 L 74.16,393.72 L 74.79,391.86 L 85.06,378.04 L 85.90,376.93 L 86.51,376.30 L 87.12,375.65 L 92.38,371.90 L 92.66,371.70 L 93.96,370.78 L 101.74,365.19 L 101.76,365.17 L 108.36,360.44 L 113.36,357.62 L 116.95,356.13 L 117.94,355.66 L 120.46,354.53 L 120.43,354.43 L 120.17,353.53 L 120.10,353.33 L 119.96,352.88 L 119.86,352.54 L 119.84,352.48 L 119.76,352.23 L 119.69,352.04 L 119.67,351.96 L 119.52,351.43 L 119.48,351.33 L 119.44,351.19 L 119.26,350.64 L 118.10,347.00 L 118.10,346.99 L 118.12,346.97 L 121.90,344.93 L 121.91,344.92 L 121.91,344.92 L 124.14,343.35 L 124.60,343.04 L 124.70,342.97 L 124.87,342.85 L 125.67,342.27 L 125.68,342.26 L 127.46,341.00 L 127.47,341.00 L 129.82,339.22 L 129.84,339.20 L 127.83,336.39 L 127.83,336.39 L 129.53,334.59 L 133.74,331.33 L 133.73,331.31 L 132.70,329.43 L 132.69,329.42 L 131.66,328.02 L 131.66,328.02 L 132.71,327.50 L 135.92,326.32 L 135.91,326.27 L 135.67,325.08 L 135.29,323.93 L 135.28,323.91 L 136.20,323.39 L 137.81,322.95 L 137.85,322.94 L 137.14,318.20 L 137.14,318.19 L 142.18,317.34 L 142.24,317.33 L 143.09,317.19 L 143.19,317.17 L 146.16,316.68 L 146.16,316.68 L 146.16,316.69 L 146.13,319.66 L 144.58,325.02 L 144.29,326.09 L 144.26,326.17 L 144.26,326.18 L 144.22,326.32 L 143.17,329.95 L 142.85,330.97 L 143.01,331.03 L 143.04,331.04 L 143.18,331.10 L 143.17,331.12 L 142.78,332.79 Z" data-name="Höchst" data-bezirk="West" />
	<path id="stadtteil-38" class="stadtteil-path" d="M 75.28,397.46 L 76.16,399.87 L 76.19,399.95 L 76.57,401.12 L 76.74,401.63 L 76.75,401.64 L 77.99,401.34 L 78.90,401.12 L 79.36,401.81 L 80.86,404.21 L 82.00,406.08 L 84.65,410.36 L 84.92,410.81 L 86.71,412.01 L 87.44,412.50 L 89.59,413.94 L 91.79,409.94 L 92.68,408.30 L 92.89,407.93 L 94.16,405.76 L 95.65,403.62 L 97.34,401.69 L 99.05,399.70 L 103.41,395.47 L 110.71,389.90 L 110.76,389.95 L 111.66,391.10 L 105.94,395.37 L 99.31,401.68 L 96.12,405.77 L 95.08,407.09 L 94.07,408.72 L 92.64,411.03 L 92.24,412.07 L 91.34,414.38 L 90.90,415.52 L 90.33,416.98 L 90.27,417.21 L 89.67,419.65 L 89.66,420.92 L 89.64,423.24 L 89.68,423.52 L 90.12,426.95 L 90.17,427.16 L 90.36,427.91 L 90.85,429.83 L 90.92,430.08 L 92.09,434.21 L 92.69,436.31 L 92.94,436.82 L 93.90,438.75 L 95.06,440.61 L 96.19,442.41 L 96.66,443.16 L 98.02,446.68 L 98.03,446.71 L 98.45,448.75 L 98.49,449.21 L 98.65,451.02 L 98.74,452.60 L 98.77,453.43 L 98.72,453.81 L 98.51,455.56 L 98.42,455.93 L 98.08,457.44 L 96.65,459.76 L 96.09,460.67 L 95.02,461.75 L 93.01,463.76 L 91.93,464.59 L 89.90,466.14 L 89.57,466.39 L 86.54,468.29 L 86.28,467.95 L 85.67,467.11 L 84.33,465.29 L 84.06,464.93 L 82.10,462.83 L 81.71,462.41 L 80.95,461.60 L 80.64,461.27 L 81.79,459.25 L 81.71,459.19 L 79.72,457.71 L 79.52,457.88 L 79.50,457.87 L 77.98,456.74 L 77.09,456.09 L 76.23,455.45 L 76.17,455.44 L 76.13,455.43 L 76.03,455.43 L 75.41,454.95 L 75.13,454.74 L 75.11,454.75 L 74.94,454.89 L 72.18,452.91 L 70.28,451.55 L 69.45,450.96 L 69.32,451.08 L 69.13,450.68 L 68.53,449.44 L 67.78,448.10 L 67.77,448.09 L 67.62,447.70 L 66.55,445.84 L 66.09,445.04 L 65.67,444.43 L 65.39,444.02 L 65.15,443.57 L 65.12,443.53 L 64.80,443.15 L 64.72,443.05 L 63.55,442.02 L 62.38,441.55 L 61.84,441.11 L 61.27,440.64 L 60.78,440.11 L 60.27,439.60 L 60.24,439.57 L 59.99,439.42 L 61.42,437.59 L 62.33,436.43 L 60.54,435.11 L 59.03,434.00 L 58.08,433.37 L 56.80,432.76 L 56.51,432.60 L 55.32,431.94 L 55.06,431.73 L 53.55,430.53 L 53.54,430.52 L 53.13,430.04 L 52.64,429.85 L 51.96,429.61 L 51.94,428.31 L 51.93,427.12 L 51.24,427.54 L 51.24,427.38 L 51.24,427.38 L 50.80,426.50 L 51.01,425.40 L 51.49,422.99 L 51.52,422.53 L 51.61,421.64 L 51.74,420.44 L 51.79,419.97 L 52.18,416.32 L 52.30,416.05 L 52.89,412.86 L 52.74,412.73 L 51.93,412.46 L 49.63,412.24 L 49.23,412.10 L 47.20,410.85 L 47.12,410.62 L 47.26,410.11 L 42.12,406.05 L 42.06,405.99 L 40.38,404.62 L 39.96,404.28 L 40.22,402.07 L 40.47,400.17 L 40.51,399.93 L 40.36,399.96 L 39.91,400.06 L 39.84,399.34 L 39.91,399.33 L 41.66,398.93 L 42.09,398.84 L 43.65,398.49 L 46.29,397.89 L 47.12,397.70 L 45.04,394.42 L 44.87,394.16 L 51.15,391.62 L 51.20,391.60 L 56.64,389.41 L 62.25,387.16 L 62.26,387.16 L 67.36,385.12 L 67.89,384.87 L 75.40,381.87 L 81.95,379.24 L 83.80,378.10 L 84.04,377.95 L 85.06,378.04 L 74.79,391.86 L 74.16,393.72 L 74.08,394.13 L 75.28,397.46 Z" data-name="Sindlingen" data-bezirk="West" />
	<path id="stadtteil-39" class="stadtteil-path" d="M 13.17,331.25 L 15.91,333.14 L 16.84,333.79 L 17.00,333.90 L 17.59,333.05 L 19.29,334.18 L 21.31,335.52 L 23.26,336.81 L 25.42,337.94 L 26.60,338.55 L 26.72,338.63 L 27.27,338.95 L 27.83,339.29 L 29.15,339.10 L 30.46,339.60 L 31.52,340.01 L 31.76,340.12 L 33.80,341.08 L 33.82,341.02 L 34.55,338.11 L 34.80,337.12 L 34.80,337.10 L 35.35,337.66 L 35.45,337.77 L 35.59,337.90 L 38.78,341.21 L 38.82,341.23 L 40.57,342.09 L 42.41,342.99 L 42.64,342.65 L 43.65,341.13 L 45.39,338.53 L 45.40,338.53 L 45.56,338.51 L 45.46,338.44 L 45.46,338.43 L 45.51,338.36 L 45.79,338.55 L 47.06,339.61 L 48.68,340.98 L 48.88,341.00 L 50.77,339.87 L 51.89,339.21 L 53.72,338.12 L 55.79,340.16 L 58.70,343.03 L 60.01,344.36 L 59.01,344.95 L 59.03,344.98 L 59.33,345.38 L 59.68,345.87 L 59.98,346.30 L 59.63,346.50 L 60.56,347.68 L 61.54,347.10 L 63.30,348.66 L 64.52,349.15 L 64.66,349.02 L 67.14,350.97 L 67.63,351.46 L 69.46,353.54 L 70.67,354.90 L 71.20,355.85 L 73.96,353.76 L 77.52,357.58 L 78.61,356.69 L 78.61,356.70 L 80.39,357.93 L 80.39,357.95 L 80.02,359.84 L 79.42,363.00 L 77.82,366.29 L 77.87,367.83 L 85.68,367.52 L 85.92,367.51 L 86.00,367.51 L 86.97,367.47 L 87.47,367.46 L 87.50,367.46 L 87.74,367.45 L 88.08,367.44 L 90.82,367.49 L 92.25,368.51 L 92.27,368.54 L 92.45,368.79 L 92.64,369.05 L 93.10,369.64 L 93.96,370.78 L 92.66,371.70 L 92.38,371.90 L 87.12,375.65 L 86.51,376.30 L 85.90,376.93 L 85.06,378.04 L 84.04,377.95 L 83.80,378.10 L 81.95,379.24 L 75.40,381.87 L 67.89,384.87 L 67.36,385.12 L 62.26,387.16 L 62.25,387.16 L 56.64,389.41 L 51.20,391.60 L 51.15,391.62 L 44.87,394.16 L 45.04,394.42 L 47.12,397.70 L 46.29,397.89 L 43.65,398.49 L 42.09,398.84 L 41.66,398.93 L 39.91,399.33 L 39.84,399.34 L 39.91,400.06 L 39.88,400.45 L 39.88,400.45 L 36.52,401.33 L 35.78,401.52 L 34.97,401.77 L 33.92,402.11 L 31.71,402.50 L 29.70,402.86 L 29.39,404.13 L 27.21,403.02 L 26.82,402.81 L 26.95,402.16 L 27.46,399.95 L 26.83,399.61 L 25.77,399.05 L 26.29,397.24 L 27.20,394.11 L 27.48,393.12 L 24.75,390.92 L 23.04,389.53 L 22.58,389.16 L 23.10,388.38 L 23.06,388.34 L 21.68,387.26 L 20.30,386.18 L 20.12,386.04 L 18.11,384.47 L 15.96,382.78 L 15.74,382.57 L 15.98,382.30 L 16.51,381.69 L 16.49,381.67 L 16.37,381.56 L 15.79,381.03 L 13.82,379.24 L 12.69,378.23 L 13.10,377.70 L 12.27,376.46 L 11.96,376.01 L 10.39,373.68 L 10.43,373.65 L 11.89,372.72 L 12.29,372.47 L 12.94,372.05 L 12.94,372.05 L 10.80,370.51 L 9.43,369.52 L 8.63,368.94 L 7.59,368.23 L 4.95,366.43 L 3.93,365.86 L 1.65,364.61 L 1.28,364.40 L 2.45,362.31 L 0.00,360.52 L 1.13,358.84 L 1.62,358.11 L 1.70,358.16 L 2.15,357.41 L 2.98,356.00 L 5.06,356.74 L 6.96,354.38 L 8.19,352.84 L 8.66,352.26 L 8.66,352.25 L 8.27,351.97 L 8.82,351.36 L 10.97,349.14 L 12.85,347.18 L 14.88,345.08 L 13.92,343.90 L 13.37,343.23 L 11.85,341.60 L 10.43,340.08 L 9.01,338.67 L 7.62,337.29 L 5.64,335.34 L 7.60,332.83 L 8.86,331.21 L 9.16,330.84 L 10.65,331.63 L 10.67,331.64 L 11.46,330.75 L 12.48,329.59 L 12.60,329.89 L 12.84,330.48 L 12.94,330.72 L 13.15,331.23 L 13.17,331.25 Z" data-name="Zeilsheim" data-bezirk="West" />
	<path id="stadtteil-40" class="stadtteil-path" d="M 143.57,303.10 L 143.19,317.17 L 143.09,317.19 L 142.24,317.33 L 142.18,317.34 L 137.14,318.19 L 137.14,318.20 L 137.85,322.94 L 137.81,322.95 L 136.20,323.39 L 135.28,323.91 L 135.29,323.93 L 135.67,325.08 L 135.91,326.27 L 135.92,326.32 L 132.71,327.50 L 131.66,328.02 L 131.66,328.02 L 132.69,329.42 L 132.70,329.43 L 133.73,331.31 L 133.74,331.33 L 129.53,334.59 L 127.83,336.39 L 127.83,336.39 L 129.84,339.20 L 129.82,339.22 L 127.47,341.00 L 127.46,341.00 L 125.68,342.26 L 125.67,342.27 L 124.87,342.85 L 124.70,342.97 L 124.60,343.04 L 124.14,343.35 L 121.91,344.92 L 121.91,344.92 L 121.90,344.93 L 118.12,346.97 L 118.10,346.99 L 118.10,347.00 L 119.26,350.64 L 119.44,351.19 L 119.48,351.33 L 119.52,351.43 L 119.67,351.96 L 119.69,352.04 L 119.76,352.23 L 119.84,352.48 L 119.86,352.54 L 119.96,352.88 L 119.97,352.88 L 120.10,353.33 L 120.17,353.53 L 120.43,354.43 L 120.46,354.53 L 117.94,355.66 L 116.95,356.13 L 113.36,357.62 L 108.36,360.44 L 101.76,365.17 L 101.74,365.19 L 93.96,370.78 L 93.10,369.64 L 92.64,369.05 L 92.45,368.79 L 92.27,368.54 L 92.25,368.51 L 90.82,367.49 L 88.08,367.44 L 87.74,367.45 L 87.50,367.46 L 87.47,367.46 L 87.46,367.46 L 86.97,367.47 L 86.00,367.51 L 85.92,367.51 L 85.92,367.51 L 85.68,367.52 L 77.87,367.83 L 77.82,366.29 L 79.42,363.00 L 80.02,359.84 L 80.39,357.95 L 80.39,357.93 L 78.61,356.70 L 78.61,356.69 L 77.52,357.58 L 73.96,353.76 L 71.20,355.85 L 70.67,354.90 L 69.46,353.54 L 67.63,351.46 L 67.14,350.97 L 64.66,349.02 L 64.52,349.15 L 63.30,348.66 L 61.54,347.10 L 60.56,347.68 L 59.63,346.50 L 59.98,346.30 L 59.68,345.87 L 59.33,345.38 L 59.03,344.98 L 59.01,344.95 L 60.01,344.36 L 58.70,343.03 L 55.79,340.16 L 53.72,338.12 L 51.73,336.44 L 51.51,336.25 L 49.22,334.32 L 49.02,334.16 L 48.94,334.15 L 48.81,334.15 L 48.86,334.09 L 48.98,333.94 L 50.47,332.17 L 51.82,330.56 L 52.37,329.90 L 52.52,329.73 L 52.52,329.73 L 53.80,328.04 L 55.59,325.70 L 56.74,324.20 L 57.07,323.75 L 57.91,322.62 L 58.77,321.46 L 58.80,321.43 L 59.55,320.42 L 61.18,318.26 L 61.44,317.92 L 61.64,317.64 L 62.76,316.08 L 62.68,315.89 L 62.65,315.80 L 62.60,315.70 L 62.70,315.48 L 63.76,313.10 L 64.43,313.21 L 65.11,313.00 L 65.43,312.91 L 66.52,312.28 L 66.96,312.06 L 67.19,311.54 L 67.36,311.11 L 68.87,310.64 L 70.03,311.02 L 70.36,310.95 L 70.39,310.78 L 70.41,310.69 L 70.70,310.12 L 71.03,310.00 L 71.78,310.16 L 71.97,310.36 L 71.99,310.39 L 72.13,310.00 L 72.27,309.60 L 72.44,308.43 L 72.64,307.05 L 72.71,306.53 L 72.74,306.35 L 72.84,305.67 L 72.86,305.50 L 70.82,305.11 L 71.21,304.14 L 72.14,301.89 L 72.65,300.64 L 73.38,299.24 L 74.15,297.75 L 78.53,299.17 L 79.72,299.56 L 81.00,299.98 L 82.31,300.40 L 83.29,299.46 L 85.02,301.08 L 86.77,302.72 L 86.96,302.72 L 86.93,302.88 L 86.91,302.97 L 87.22,302.66 L 88.46,301.43 L 88.50,301.39 L 89.47,300.60 L 90.66,302.70 L 91.21,303.67 L 91.26,303.77 L 91.66,303.43 L 91.67,303.45 L 93.11,305.34 L 93.26,305.54 L 94.27,306.87 L 94.82,307.64 L 94.97,307.53 L 95.06,307.47 L 96.11,309.07 L 96.41,309.53 L 96.42,309.55 L 97.46,309.00 L 97.52,308.97 L 98.13,309.85 L 99.21,311.43 L 100.46,313.02 L 100.76,313.40 L 100.90,313.58 L 100.96,313.64 L 102.54,315.26 L 102.86,315.59 L 102.98,315.61 L 103.06,315.63 L 103.89,315.00 L 105.31,313.92 L 105.73,314.82 L 106.31,314.90 L 106.63,314.94 L 107.28,315.03 L 108.28,315.17 L 108.67,315.22 L 109.06,316.13 L 109.15,316.32 L 109.16,316.35 L 109.35,316.67 L 109.43,316.62 L 109.85,316.38 L 110.15,316.21 L 110.41,316.06 L 110.17,315.71 L 110.81,315.33 L 111.67,314.57 L 112.32,314.56 L 113.61,313.84 L 115.66,312.71 L 117.29,311.81 L 119.89,310.33 L 121.51,309.41 L 126.02,306.84 L 127.71,305.88 L 127.87,305.79 L 131.68,303.73 L 133.05,302.99 L 134.02,302.38 L 135.31,301.57 L 137.61,300.12 L 138.21,299.75 L 138.39,299.63 L 138.47,299.59 L 139.62,298.97 L 143.03,297.14 L 143.76,296.75 L 143.74,297.32 L 143.71,298.22 L 143.71,298.40 L 143.67,299.37 L 143.67,299.44 L 143.69,299.57 L 143.60,302.36 L 143.60,302.38 L 143.59,302.55 L 143.58,302.74 L 143.57,303.10 Z" data-name="Unterliederbach" data-bezirk="West" />
	<path id="stadtteil-41" class="stadtteil-path" d="M 330.32,151.51 L 332.57,147.90 L 338.05,146.24 L 338.61,145.79 L 341.47,143.39 L 343.78,142.59 L 344.53,142.67 L 345.44,142.76 L 346.56,142.85 L 348.30,142.99 L 350.84,142.38 L 353.30,140.79 L 355.27,139.50 L 357.43,139.10 L 360.79,139.63 L 362.28,139.88 L 365.32,141.45 L 367.43,143.86 L 370.43,145.64 L 370.88,146.17 L 372.06,147.30 L 376.03,148.17 L 379.13,148.01 L 383.06,150.79 L 386.77,155.99 L 387.39,157.62 L 387.54,158.55 L 387.59,158.93 L 387.85,160.56 L 387.99,161.35 L 388.89,162.99 L 389.37,163.86 L 389.41,164.11 L 389.58,165.33 L 389.45,166.36 L 389.20,168.59 L 389.57,170.57 L 389.63,171.02 L 390.04,173.28 L 390.23,174.41 L 388.04,175.52 L 382.05,180.06 L 379.59,176.66 L 379.33,176.31 L 376.76,177.41 L 375.03,179.18 L 372.86,181.29 L 371.02,178.95 L 370.75,178.54 L 369.45,178.84 L 366.71,179.53 L 363.32,181.32 L 364.45,182.71 L 363.09,182.97 L 364.51,185.07 L 362.71,185.50 L 361.82,185.70 L 361.88,186.14 L 360.37,184.99 L 353.27,178.15 L 351.49,175.94 L 347.65,171.20 L 345.65,169.04 L 347.56,166.99 L 350.61,164.51 L 348.76,163.67 L 349.58,160.70 L 345.52,159.39 L 341.51,158.07 L 342.44,156.21 L 339.42,154.28 L 339.65,154.04 L 338.25,152.72 L 337.62,153.55 L 334.11,150.36 L 331.45,152.56 L 330.74,151.89 L 330.32,151.51 Z" data-name="Frankfurter Berg" data-bezirk="Nord-Ost" />
	<path id="stadtteil-42" class="stadtteil-path" d="M 205.72,275.21 L 206.26,275.52 L 208.39,275.45 L 212.80,278.50 L 213.09,278.70 L 213.64,279.09 L 213.71,279.48 L 215.84,286.65 L 218.69,293.38 L 219.15,294.45 L 219.67,295.62 L 220.90,298.54 L 221.12,299.12 L 222.49,302.38 L 222.63,302.75 L 223.89,305.73 L 224.73,307.74 L 227.58,314.65 L 228.03,315.72 L 228.24,316.21 L 227.57,316.49 L 224.11,317.93 L 223.27,318.28 L 222.76,318.48 L 222.13,318.72 L 221.03,319.15 L 220.53,319.35 L 219.28,319.83 L 218.55,320.09 L 213.51,321.94 L 213.37,321.97 L 213.36,321.98 L 207.47,323.31 L 205.77,323.63 L 199.87,324.70 L 196.38,325.46 L 193.30,326.14 L 190.64,327.60 L 190.26,327.87 L 185.19,331.76 L 183.88,332.80 L 180.51,335.34 L 177.56,335.64 L 176.66,335.33 L 173.94,334.41 L 172.00,334.51 L 170.86,335.20 L 170.63,334.83 L 170.61,334.80 L 169.04,332.23 L 168.57,332.49 L 166.33,332.32 L 165.36,334.12 L 165.35,334.15 L 159.49,327.43 L 159.48,327.41 L 157.36,324.95 L 154.48,321.44 L 154.45,321.49 L 153.22,323.65 L 152.26,324.98 L 151.55,325.95 L 150.45,326.85 L 150.43,326.87 L 149.83,327.35 L 146.38,333.05 L 144.47,333.34 L 144.42,333.35 L 143.19,333.48 L 142.96,333.51 L 142.91,333.52 L 142.78,332.79 L 143.17,331.12 L 143.18,331.10 L 143.04,331.04 L 143.01,331.03 L 142.85,330.97 L 143.17,329.95 L 144.22,326.32 L 144.26,326.18 L 144.26,326.17 L 144.29,326.09 L 144.58,325.02 L 146.13,319.66 L 146.16,316.69 L 146.16,316.68 L 146.16,316.68 L 143.19,317.17 L 143.57,303.10 L 143.58,302.74 L 143.59,302.55 L 143.60,302.38 L 143.60,302.36 L 143.69,299.57 L 143.67,299.44 L 143.67,299.37 L 143.71,298.40 L 143.71,298.22 L 143.74,297.32 L 143.76,296.75 L 145.65,295.51 L 149.24,293.15 L 150.76,292.15 L 150.77,292.14 L 155.52,288.98 L 156.92,288.05 L 159.46,286.36 L 159.64,286.59 L 161.64,285.29 L 163.04,284.39 L 165.86,282.56 L 165.91,282.59 L 165.91,282.63 L 165.94,282.61 L 165.94,282.62 L 165.97,282.59 L 167.94,281.29 L 168.00,281.25 L 169.32,280.39 L 172.19,278.51 L 172.34,278.42 L 173.77,277.47 L 175.14,276.57 L 175.28,276.48 L 175.64,276.24 L 176.24,275.84 L 178.34,274.46 L 179.16,273.93 L 181.51,272.37 L 184.15,270.63 L 186.09,269.35 L 186.14,269.31 L 187.77,268.24 L 190.07,266.75 L 191.90,265.57 L 192.19,265.38 L 192.79,265.00 L 194.01,264.21 L 194.02,264.19 L 194.31,263.98 L 195.60,263.05 L 196.20,262.62 L 196.82,263.50 L 197.63,265.32 L 198.30,266.80 L 198.63,267.53 L 198.72,267.73 L 199.07,268.45 L 199.21,268.73 L 199.23,268.77 L 201.78,272.87 L 203.20,273.76 L 205.69,275.19 L 205.72,275.21 Z" data-name="Sossenheim" data-bezirk="West" />
	<path id="stadtteil-43" class="stadtteil-path" d="M 288.51,145.13 L 286.20,142.26 L 285.67,142.80 L 285.15,143.34 L 284.65,143.90 L 284.16,144.47 L 283.88,144.04 L 283.42,144.54 L 278.86,149.39 L 274.84,153.55 L 274.39,153.05 L 262.73,148.64 L 259.33,145.29 L 256.93,143.13 L 258.12,139.38 L 258.66,137.76 L 259.27,135.91 L 259.81,134.34 L 260.31,132.87 L 261.89,128.48 L 262.33,127.30 L 262.61,126.50 L 262.95,125.88 L 263.61,124.61 L 263.27,124.30 L 262.93,124.03 L 263.68,122.58 L 264.58,120.84 L 264.84,120.37 L 267.06,116.89 L 269.03,114.22 L 270.12,112.77 L 271.35,111.17 L 271.46,111.03 L 273.15,109.15 L 274.31,108.04 L 276.38,106.67 L 281.36,102.09 L 283.68,99.87 L 283.89,99.87 L 284.08,99.67 L 284.13,99.45 L 285.12,98.57 L 286.74,97.29 L 287.67,96.25 L 288.97,95.10 L 291.41,92.84 L 292.04,92.12 L 291.14,90.72 L 294.32,86.55 L 296.21,84.06 L 301.45,71.90 L 311.88,75.85 L 313.43,74.63 L 319.48,81.25 L 319.73,81.52 L 326.66,92.72 L 328.02,94.92 L 333.16,103.32 L 335.67,108.86 L 336.17,112.62 L 336.36,113.89 L 335.85,116.60 L 335.55,118.05 L 334.59,120.35 L 333.64,122.08 L 333.62,122.11 L 331.37,124.66 L 331.37,124.67 L 328.41,127.20 L 329.09,127.79 L 330.51,128.59 L 332.40,129.40 L 333.27,129.77 L 337.60,133.82 L 336.75,134.45 L 338.46,136.27 L 338.84,136.68 L 344.53,142.67 L 343.78,142.59 L 341.47,143.39 L 338.61,145.79 L 338.05,146.24 L 332.57,147.90 L 330.32,151.51 L 326.12,158.19 L 325.46,157.80 L 324.74,157.25 L 323.75,156.43 L 322.18,154.99 L 321.15,153.83 L 320.18,152.47 L 319.22,150.89 L 318.59,149.24 L 318.03,147.45 L 317.79,146.21 L 317.60,144.06 L 317.61,142.17 L 317.61,142.16 L 316.54,142.95 L 313.81,144.63 L 306.09,149.34 L 304.20,150.51 L 302.44,152.15 L 302.24,151.94 L 297.80,157.99 L 296.75,159.46 L 296.24,159.01 L 295.97,158.75 L 295.67,158.37 L 295.52,158.02 L 295.35,157.42 L 295.31,157.13 L 295.32,156.68 L 295.38,156.30 L 295.62,155.29 L 295.74,154.62 L 295.75,154.09 L 295.71,153.72 L 295.64,153.41 L 295.53,152.94 L 295.28,152.40 L 295.03,152.04 L 294.64,151.59 L 290.79,147.45 L 288.75,144.94 L 288.51,145.13 Z" data-name="Kalbach-Riedberg" data-bezirk="Kalbach-Riedberg" />
	<path id="stadtteil-44" class="stadtteil-path" d="M 370.88,146.17 L 370.43,145.64 L 367.43,143.86 L 365.32,141.45 L 362.28,139.88 L 360.79,139.63 L 362.83,136.57 L 363.82,135.58 L 362.98,134.41 L 363.31,133.71 L 363.57,133.20 L 364.26,131.80 L 365.67,132.28 L 367.04,129.48 L 368.24,129.98 L 370.80,127.53 L 373.66,124.83 L 374.54,124.86 L 370.77,121.15 L 369.83,120.19 L 365.07,115.34 L 363.17,117.46 L 360.26,114.85 L 370.70,103.11 L 373.26,100.36 L 373.78,99.81 L 374.75,99.40 L 376.91,98.58 L 378.17,98.09 L 378.32,96.97 L 379.69,96.73 L 379.55,94.69 L 379.43,92.88 L 382.07,90.20 L 395.11,75.29 L 396.02,76.13 L 397.41,77.39 L 402.99,84.15 L 408.33,87.82 L 410.02,88.99 L 416.59,94.53 L 418.87,96.73 L 421.55,99.13 L 422.64,100.09 L 422.61,100.12 L 422.58,100.14 L 432.70,109.39 L 427.79,119.95 L 426.51,122.68 L 424.88,122.31 L 421.63,120.53 L 420.87,120.11 L 416.45,131.66 L 416.28,132.12 L 412.73,130.47 L 410.19,130.37 L 409.10,131.22 L 408.71,132.40 L 407.05,134.84 L 407.36,135.39 L 408.06,136.57 L 408.06,137.15 L 406.65,137.52 L 404.47,136.38 L 404.12,135.88 L 402.05,138.49 L 403.67,143.14 L 402.23,144.71 L 399.46,144.77 L 398.81,145.52 L 398.08,146.34 L 396.68,151.31 L 396.33,152.05 L 396.15,152.42 L 394.91,155.03 L 391.62,158.42 L 389.74,158.99 L 387.39,157.62 L 386.77,155.99 L 383.06,150.79 L 379.13,148.01 L 376.03,148.17 L 372.06,147.30 L 370.88,146.17 Z" data-name="Harheim" data-bezirk="Harheim" />
	<path id="stadtteil-45" class="stadtteil-path" d="M 499.79,258.71 L 498.37,256.33 L 497.31,254.52 L 495.12,250.83 L 496.36,249.66 L 491.52,240.11 L 490.58,238.57 L 489.24,236.36 L 487.88,234.01 L 487.39,232.73 L 488.17,232.43 L 492.79,230.68 L 491.10,225.58 L 494.32,224.00 L 493.10,223.07 L 496.21,222.17 L 495.92,221.53 L 492.07,213.21 L 492.39,212.94 L 491.87,211.88 L 491.51,211.96 L 490.61,210.05 L 488.46,203.93 L 487.78,202.04 L 489.95,200.78 L 488.38,196.77 L 486.67,197.90 L 486.11,196.11 L 484.05,189.50 L 481.92,187.26 L 477.92,181.73 L 478.23,181.62 L 478.87,181.47 L 479.10,182.04 L 479.23,182.00 L 479.91,183.20 L 480.28,183.12 L 481.87,182.79 L 482.35,182.55 L 482.92,181.88 L 483.63,181.47 L 484.68,181.06 L 485.09,180.37 L 486.47,179.75 L 487.77,179.44 L 490.00,178.49 L 491.46,177.39 L 493.22,175.09 L 495.12,173.38 L 496.57,172.49 L 497.30,171.92 L 499.72,170.43 L 501.36,169.36 L 503.37,167.04 L 502.89,166.26 L 505.98,164.42 L 507.02,163.50 L 507.79,162.99 L 509.48,161.81 L 510.77,160.81 L 511.33,160.30 L 512.80,159.44 L 515.88,157.94 L 517.53,157.09 L 518.10,156.43 L 518.00,156.21 L 521.88,154.34 L 525.04,153.98 L 527.11,153.84 L 527.16,153.59 L 526.51,151.33 L 526.59,145.08 L 526.48,145.02 L 526.51,144.46 L 526.55,142.48 L 526.92,142.54 L 526.53,136.36 L 535.05,134.75 L 537.63,134.04 L 541.51,133.76 L 541.76,133.77 L 548.78,133.22 L 552.48,132.91 L 555.52,132.37 L 554.33,136.03 L 553.74,137.19 L 553.68,138.36 L 553.83,138.49 L 556.34,138.53 L 556.41,141.64 L 562.71,141.68 L 563.94,142.75 L 567.19,143.20 L 571.08,143.79 L 576.08,144.26 L 576.81,145.92 L 580.25,150.20 L 580.38,150.05 L 581.60,151.67 L 583.39,154.51 L 587.60,149.02 L 588.72,149.53 L 590.89,151.17 L 593.65,152.98 L 592.99,153.89 L 595.00,158.22 L 594.29,158.61 L 594.56,161.33 L 594.58,162.11 L 594.60,162.83 L 594.54,163.56 L 591.01,163.33 L 590.82,165.73 L 590.35,169.10 L 586.04,169.54 L 584.13,170.74 L 584.72,175.05 L 584.95,176.99 L 584.90,177.46 L 585.30,178.95 L 585.22,179.15 L 585.05,179.20 L 584.59,179.03 L 583.39,181.40 L 582.27,181.08 L 579.61,180.54 L 576.98,180.25 L 576.72,181.70 L 575.29,186.00 L 577.87,186.94 L 577.19,190.21 L 577.20,190.66 L 577.30,191.38 L 577.39,193.08 L 577.27,193.22 L 576.67,193.11 L 575.87,193.00 L 575.33,193.22 L 575.12,193.20 L 571.00,191.70 L 570.71,191.95 L 570.65,192.12 L 569.07,193.34 L 568.76,193.42 L 567.50,193.49 L 566.08,193.96 L 565.39,194.12 L 564.63,194.39 L 564.21,194.47 L 564.24,196.26 L 564.16,196.47 L 564.28,197.98 L 564.62,199.24 L 564.67,199.27 L 565.38,201.86 L 564.59,202.05 L 564.33,202.03 L 562.05,202.74 L 562.19,203.30 L 562.34,204.27 L 562.40,205.46 L 562.36,206.82 L 562.57,207.70 L 562.76,208.82 L 562.93,210.18 L 562.84,211.41 L 562.72,213.57 L 562.71,214.91 L 562.51,218.42 L 562.45,221.32 L 562.39,223.05 L 562.08,233.50 L 562.25,235.77 L 554.85,236.25 L 549.12,237.65 L 539.22,240.64 L 532.36,245.57 L 529.67,246.88 L 523.75,248.60 L 521.55,249.23 L 518.27,250.43 L 519.23,252.76 L 516.06,253.41 L 512.71,253.64 L 510.36,253.13 L 507.40,253.37 L 504.77,255.17 L 503.45,257.85 L 499.79,258.71 Z" data-name="Bergen-Enkheim" data-bezirk="Bergen-Enkheim" />
  </g>
  <g id="map-labels-group" style="pointer-events: none;"></g>
</svg>