<svg xmlns="http://www.w3.org/2000/svg" viewBox="0 0 371 600" class="city-map-svg">
  <g class="stadtteile-group">
	<path id="stadtteil-0" class="stadtteil-path" d="M 50.64,421.31 L 50.19,454.08 L 34.66,452.32 L 17.66,457.45 L 15.51,469.11 L 3.88,473.29 L 4.03,471.65 L 6.55,464.70 L 9.37,464.31 L 12.01,463.20 L 12.72,462.60 L 13.43,460.93 L 12.28,458.49 L 11.08,456.58 L 10.17,455.24 L 10.03,452.83 L 11.69,450.07 L 12.91,449.08 L 13.82,447.33 L 14.31,445.08 L 13.80,443.35 L 13.27,442.60 L 12.77,441.32 L 11.95,432.53 L 12.70,431.16 L 13.18,430.95 L 16.48,431.22 L 19.60,430.07 L 20.90,429.26 L 22.46,428.24 L 23.09,427.34 L 23.22,426.67 L 22.21,425.32 L 20.89,424.95 L 19.74,424.67 L 18.69,424.65 L 17.42,424.35 L 16.73,423.53 L 16.67,422.78 L 16.67,421.96 L 16.67,421.21 L 16.98,419.86 L 18.05,418.97 L 19.31,418.67 L 20.51,418.67 L 22.52,418.67 L 24.35,417.84 L 25.04,415.60 L 24.83,411.59 L 25.06,408.95 L 26.94,406.01 L 28.05,404.28 L 28.50,403.55 L 33.45,403.93 L 38.54,416.68 L 50.64,421.31 Z" data-name="Adams" data-bezirk="Adams" />
	<path id="stadtteil-1" class="stadtteil-path" d="M 298.80,0.10 L 332.00,0.00 L 332.01,0.00 L 341.37,0.05 L 343.15,0.06 L 342.95,29.92 L 305.94,29.77 L 302.33,17.08 L 294.94,17.10 L 294.98,0.11 L 298.80,0.10 Z" data-name="Alcorn" data-bezirk="Alcorn" />
	<path id="stadtteil-2" class="stadtteil-path" d="M 85.03,497.30 L 85.01,497.30 L 60.46,497.35 L 60.54,462.15 L 56.77,457.28 L 64.88,453.98 L 105.21,453.75 L 114.13,453.72 L 114.19,497.25 L 112.14,497.25 L 110.43,497.25 L 110.33,497.25 L 110.03,497.27 L 109.89,497.26 L 103.60,497.28 L 103.34,497.28 L 94.61,497.31 L 94.60,497.31 L 92.06,497.27 L 90.95,497.29 L 90.25,497.28 L 89.85,497.28 L 89.44,497.29 L 85.03,497.30 Z" data-name="Amite" data-bezirk="Amite" />
	<path id="stadtteil-3" class="stadtteil-path" d="M 208.79,212.84 L 228.86,212.78 L 243.26,212.83 L 243.11,234.82 L 242.97,256.87 L 226.81,256.93 L 199.89,257.08 L 199.90,262.70 L 175.18,263.35 L 182.55,256.32 L 197.87,221.68 L 208.79,212.84 Z" data-name="Attala" data-bezirk="Attala" />
	<path id="stadtteil-4" class="stadtteil-path" d="M 261.86,0.21 L 274.64,0.17 L 274.59,17.09 L 267.20,22.49 L 267.16,49.50 L 250.68,49.58 L 250.68,51.37 L 245.16,51.40 L 245.06,18.87 L 239.46,18.87 L 239.46,0.20 L 255.64,0.20 L 261.85,0.22 L 261.86,0.21 Z" data-name="Benton" data-bezirk="Benton" />
	<path id="stadtteil-5" class="stadtteil-path" d="M 42.42,179.58 L 42.84,178.69 L 43.28,177.77 L 50.82,175.86 L 52.72,174.39 L 53.10,172.96 L 50.26,170.45 L 47.22,167.99 L 46.53,166.63 L 46.99,165.06 L 47.28,163.84 L 48.31,163.22 L 51.24,163.84 L 52.10,163.29 L 52.85,162.75 L 53.36,161.79 L 53.48,160.29 L 52.50,157.70 L 51.60,155.03 L 52.11,151.67 L 59.69,143.79 L 62.91,134.55 L 57.53,128.90 L 57.43,127.34 L 64.79,123.54 L 70.47,122.95 L 78.57,119.89 L 79.44,115.79 L 78.47,113.06 L 75.99,112.05 L 74.24,110.54 L 73.90,109.00 L 102.47,109.15 L 102.73,125.48 L 102.56,171.68 L 91.57,171.70 L 91.56,182.49 L 44.16,182.49 L 42.42,179.58 Z" data-name="Bolivar" data-bezirk="Bolivar" />
	<path id="stadtteil-6" class="stadtteil-path" d="M 223.27,158.55 L 223.25,140.43 L 222.99,103.77 L 250.22,103.90 L 250.70,103.88 L 250.81,114.74 L 261.84,114.71 L 261.98,147.31 L 256.33,156.46 L 256.31,158.51 L 223.27,158.55 Z" data-name="Calhoun" data-bezirk="Calhoun" />
	<path id="stadtteil-7" class="stadtteil-path" d="M 153.30,206.88 L 153.28,196.48 L 160.97,191.26 L 158.21,164.13 L 193.94,164.16 L 194.12,196.57 L 208.68,198.28 L 208.79,212.84 L 197.87,221.68 L 153.30,206.88 Z" data-name="Carroll" data-bezirk="Carroll" />
	<path id="stadtteil-8" class="stadtteil-path" d="M 294.83,114.61 L 305.25,114.63 L 305.89,114.66 L 305.79,147.41 L 283.65,147.28 L 283.60,154.51 L 272.81,156.36 L 256.33,156.46 L 261.98,147.31 L 261.84,114.71 L 294.83,114.61 Z" data-name="Chickasaw" data-bezirk="Chickasaw" />
	<path id="stadtteil-9" class="stadtteil-path" d="M 265.02,221.50 L 254.06,223.78 L 254.01,234.75 L 243.11,234.82 L 243.26,212.83 L 228.86,212.78 L 228.83,194.46 L 236.48,191.09 L 245.39,185.31 L 265.35,182.05 L 267.16,182.02 L 267.18,212.78 L 265.02,212.78 L 265.02,221.50 Z" data-name="Choctaw" data-bezirk="Choctaw" />
	<path id="stadtteil-10" class="stadtteil-path" d="M 94.42,399.40 L 82.22,399.49 L 83.33,394.38 L 65.34,389.98 L 40.76,388.98 L 53.35,374.55 L 63.13,360.22 L 63.84,358.76 L 72.53,362.85 L 76.44,356.38 L 90.38,353.63 L 95.22,344.78 L 96.30,366.77 L 96.46,392.13 L 94.42,399.40 Z" data-name="Claiborne" data-bezirk="Claiborne" />
	<path id="stadtteil-11" class="stadtteil-path" d="M 285.82,394.36 L 285.46,344.89 L 336.01,344.46 L 335.28,351.29 L 335.27,351.38 L 333.57,367.74 L 333.56,367.85 L 332.13,381.10 L 332.11,381.47 L 332.00,386.01 L 316.02,390.56 L 285.82,394.36 Z" data-name="Clarke" data-bezirk="Clarke" />
	<path id="stadtteil-12" class="stadtteil-path" d="M 274.48,178.42 L 274.48,174.57 L 272.81,156.36 L 283.60,154.51 L 283.65,147.28 L 305.79,147.41 L 305.82,163.72 L 329.22,163.74 L 327.39,167.46 L 330.91,183.32 L 310.89,185.38 L 310.87,178.04 L 274.48,178.42 Z" data-name="Clay" data-bezirk="Clay" />
	<path id="stadtteil-13" class="stadtteil-path" d="M 111.83,58.63 L 111.97,58.66 L 129.72,71.20 L 129.77,91.40 L 124.37,91.29 L 124.32,114.86 L 124.37,123.92 L 124.32,125.72 L 102.73,125.48 L 102.47,109.15 L 73.90,109.00 L 73.78,108.45 L 73.63,107.74 L 75.32,104.73 L 77.99,104.58 L 79.32,102.86 L 79.26,101.50 L 77.68,100.06 L 75.87,97.76 L 76.05,96.18 L 77.80,95.32 L 80.53,95.54 L 81.83,94.21 L 91.50,78.72 L 102.57,77.19 L 107.24,75.32 L 111.29,72.28 L 112.29,69.76 L 111.83,58.63 Z" data-name="Coahoma" data-bezirk="Coahoma" />
	<path id="stadtteil-14" class="stadtteil-path" d="M 94.36,410.31 L 94.42,399.40 L 96.46,392.13 L 96.30,366.77 L 147.46,366.60 L 157.71,390.59 L 158.75,403.56 L 145.90,407.94 L 142.25,410.13 L 94.36,410.31 Z" data-name="Copiah" data-bezirk="Copiah" />
	<path id="stadtteil-15" class="stadtteil-path" d="M 234.59,443.21 L 232.31,443.21 L 229.09,443.21 L 214.91,443.25 L 214.90,433.33 L 197.22,421.35 L 197.27,400.83 L 207.97,400.08 L 234.37,398.07 L 234.44,411.84 L 234.59,443.21 Z" data-name="Covington" data-bezirk="Covington" />
	<path id="stadtteil-16" class="stadtteil-path" d="M 193.07,0.22 L 200.50,0.16 L 200.60,27.71 L 200.57,27.86 L 180.80,27.82 L 168.45,35.85 L 158.09,29.30 L 150.61,33.80 L 150.41,16.88 L 140.79,16.86 L 145.38,11.04 L 145.97,7.27 L 144.98,5.11 L 139.18,0.04 L 182.78,0.21 L 183.83,0.22 L 187.48,0.23 L 193.07,0.22 Z" data-name="DeSoto" data-bezirk="DeSoto" />
	<path id="stadtteil-17" class="stadtteil-path" d="M 239.85,495.93 L 239.96,454.08 L 229.15,454.12 L 229.09,443.21 L 232.31,443.21 L 234.59,443.21 L 261.12,443.21 L 261.97,508.43 L 240.70,508.43 L 239.85,495.93 Z" data-name="Forrest" data-bezirk="Forrest" />
	<path id="stadtteil-18" class="stadtteil-path" d="M 94.31,421.18 L 105.22,421.14 L 105.21,453.75 L 64.88,453.98 L 56.77,457.28 L 50.19,454.08 L 50.64,421.31 L 94.31,421.18 Z" data-name="Franklin" data-bezirk="Franklin" />
	<path id="stadtteil-19" class="stadtteil-path" d="M 288.54,530.12 L 288.48,508.32 L 293.78,508.37 L 293.80,497.47 L 296.42,497.54 L 336.64,497.43 L 338.02,530.12 L 288.54,530.12 Z" data-name="George" data-bezirk="George" />
	<path id="stadtteil-20" class="stadtteil-path" d="M 293.80,497.47 L 293.11,497.41 L 293.03,443.25 L 334.15,442.99 L 334.23,444.80 L 334.23,444.85 L 334.59,452.92 L 334.59,452.94 L 335.32,468.44 L 335.34,468.59 L 335.97,482.99 L 336.62,497.08 L 336.63,497.19 L 336.64,497.43 L 296.42,497.54 L 293.80,497.47 Z" data-name="Greene" data-bezirk="Greene" />
	<path id="stadtteil-21" class="stadtteil-path" d="M 157.26,158.57 L 157.29,147.66 L 179.33,145.85 L 179.35,136.63 L 195.79,136.73 L 195.81,140.44 L 223.25,140.43 L 223.27,158.55 L 223.29,159.52 L 223.30,164.05 L 193.94,164.16 L 158.21,164.13 L 157.24,164.13 L 157.26,158.57 Z" data-name="Grenada" data-bezirk="Grenada" />
	<path id="stadtteil-22" class="stadtteil-path" d="M 240.64,541.05 L 240.69,575.24 L 239.80,575.48 L 239.40,575.76 L 238.29,577.17 L 238.05,577.82 L 240.17,578.89 L 240.91,578.97 L 241.57,579.60 L 242.64,581.91 L 242.62,582.46 L 241.84,583.95 L 240.29,585.16 L 238.84,585.70 L 238.09,586.19 L 236.64,588.00 L 236.20,588.32 L 232.47,590.00 L 231.92,591.11 L 231.93,591.89 L 231.31,593.87 L 229.52,596.12 L 229.48,598.58 L 228.08,599.90 L 227.83,600.00 L 227.18,599.71 L 226.55,597.81 L 226.09,597.54 L 225.05,598.29 L 223.68,598.87 L 221.62,598.86 L 221.45,599.15 L 216.40,599.13 L 215.55,598.48 L 212.73,594.63 L 208.98,585.85 L 208.97,585.17 L 209.27,584.15 L 210.40,581.70 L 210.39,579.41 L 204.79,565.43 L 204.04,564.56 L 219.35,557.33 L 219.38,540.97 L 240.64,541.05 Z" data-name="Hancock" data-bezirk="Hancock" />
	<path id="stadtteil-23" class="stadtteil-path" d="M 266.41,592.81 L 268.33,592.82 L 269.39,590.51 L 269.72,591.00 L 269.61,591.79 L 268.72,593.86 L 266.84,596.47 L 264.04,593.85 L 260.00,592.94 L 266.41,592.81 Z M 286.88,593.70 L 285.89,594.22 L 282.14,595.56 L 279.09,595.84 L 278.50,595.77 L 278.08,595.47 L 278.30,595.31 L 278.86,595.39 L 281.90,594.99 L 284.76,594.20 L 285.98,593.59 L 287.98,591.82 L 289.24,591.48 L 289.68,591.56 L 286.88,593.70 Z M 288.54,537.37 L 288.68,569.53 L 292.62,571.22 L 291.34,572.76 L 292.00,574.94 L 288.96,573.54 L 288.61,573.22 L 288.50,572.87 L 287.55,572.69 L 284.60,572.64 L 279.45,573.02 L 274.72,573.88 L 267.71,575.84 L 256.84,580.43 L 253.32,581.52 L 247.94,583.63 L 246.48,583.93 L 245.88,583.91 L 245.56,583.37 L 245.84,580.82 L 246.26,580.18 L 246.91,580.34 L 247.10,578.12 L 245.77,576.15 L 243.40,574.93 L 241.21,575.11 L 240.69,575.24 L 240.64,541.05 L 251.26,537.39 L 288.54,537.37 Z" data-name="Harrison" data-bezirk="Harrison" />
	<path id="stadtteil-24" class="stadtteil-path" d="M 124.42,301.40 L 124.45,312.07 L 146.06,312.13 L 146.05,323.01 L 156.22,323.04 L 156.80,323.08 L 164.71,323.08 L 154.78,334.42 L 145.88,351.46 L 147.46,366.60 L 96.30,366.77 L 95.22,344.78 L 98.79,328.87 L 104.91,326.19 L 113.54,309.63 L 124.42,301.40 Z" data-name="Hinds" data-bezirk="Hinds" />
	<path id="stadtteil-25" class="stadtteil-path" d="M 136.84,210.68 L 137.90,201.69 L 153.30,206.88 L 197.87,221.68 L 182.55,256.32 L 175.18,263.35 L 133.44,247.04 L 126.35,236.31 L 136.97,231.21 L 136.84,210.68 Z" data-name="Holmes" data-bezirk="Holmes" />
	<path id="stadtteil-26" class="stadtteil-path" d="M 124.09,207.37 L 124.03,215.10 L 132.45,218.23 L 136.84,210.68 L 136.97,231.21 L 126.35,236.31 L 133.44,247.04 L 124.50,247.24 L 124.44,257.91 L 102.77,258.00 L 102.62,236.35 L 98.03,236.38 L 100.28,223.23 L 96.51,214.76 L 113.40,214.70 L 113.36,207.40 L 124.09,207.37 Z" data-name="Humphreys" data-bezirk="Humphreys" />
	<path id="stadtteil-27" class="stadtteil-path" d="M 96.11,295.79 L 95.25,302.33 L 81.39,301.22 L 81.30,317.78 L 71.88,317.50 L 70.54,301.17 L 57.26,302.62 L 56.63,301.04 L 55.86,300.04 L 54.21,300.03 L 53.36,299.81 L 51.97,298.48 L 51.44,297.62 L 50.91,296.15 L 50.65,294.24 L 50.83,292.97 L 54.37,288.92 L 56.42,287.52 L 58.80,286.47 L 60.07,285.33 L 60.79,284.13 L 61.06,282.92 L 60.40,282.27 L 58.68,281.64 L 53.86,280.37 L 50.58,280.42 L 49.64,279.84 L 49.44,279.31 L 49.54,275.01 L 49.82,271.70 L 50.17,270.47 L 51.57,267.91 L 53.36,266.40 L 54.60,266.32 L 55.70,265.98 L 57.68,264.12 L 59.37,262.22 L 60.08,260.34 L 60.06,257.80 L 57.67,251.32 L 56.89,250.31 L 55.60,249.74 L 53.66,250.27 L 52.68,250.78 L 52.24,251.93 L 53.04,252.86 L 52.92,257.93 L 52.72,258.61 L 51.56,260.12 L 50.00,260.82 L 48.38,260.81 L 46.14,259.96 L 44.94,258.89 L 44.46,258.05 L 44.33,257.03 L 45.61,253.19 L 49.36,247.85 L 50.24,246.97 L 75.75,247.40 L 70.57,268.50 L 70.45,290.32 L 95.79,290.40 L 96.88,292.86 L 98.95,293.14 L 98.48,295.01 L 96.11,295.79 Z" data-name="Issaquena" data-bezirk="Issaquena" />
	<path id="stadtteil-28" class="stadtteil-path" d="M 324.44,66.04 L 346.75,66.25 L 364.98,66.32 L 363.90,76.27 L 363.87,76.54 L 363.06,83.99 L 362.83,86.34 L 362.72,87.37 L 359.92,113.17 L 324.30,112.86 L 324.44,66.04 Z" data-name="Itawamba" data-bezirk="Itawamba" />
	<path id="stadtteil-29" class="stadtteil-path" d="M 292.62,571.22 L 288.68,569.53 L 288.54,537.37 L 288.54,532.91 L 288.54,532.83 L 288.54,532.72 L 288.54,530.12 L 338.02,530.12 L 338.04,530.59 L 338.05,530.76 L 338.12,532.93 L 338.14,533.76 L 338.33,538.44 L 338.48,542.39 L 338.55,543.05 L 338.54,544.16 L 338.91,553.82 L 338.92,554.03 L 338.96,555.31 L 339.09,558.08 L 339.85,575.68 L 339.62,575.89 L 339.43,576.76 L 339.64,577.50 L 339.94,577.78 L 339.96,578.18 L 339.21,578.79 L 338.29,579.07 L 337.36,577.61 L 335.78,577.51 L 334.46,578.37 L 334.44,579.63 L 333.69,580.63 L 331.79,581.82 L 330.93,582.03 L 328.34,581.64 L 328.19,581.53 L 328.18,580.91 L 326.49,579.33 L 325.05,578.93 L 320.51,578.82 L 318.75,577.05 L 318.44,576.98 L 318.18,577.36 L 316.92,577.71 L 315.79,577.01 L 311.67,576.59 L 310.02,577.38 L 308.70,578.43 L 307.82,578.88 L 306.40,579.07 L 304.85,579.01 L 302.96,578.39 L 300.36,576.18 L 296.18,573.75 L 296.08,573.41 L 296.34,572.96 L 296.33,572.53 L 294.91,571.58 L 293.06,570.68 L 292.62,571.22 Z M 328.11,594.97 L 328.85,595.01 L 332.44,596.44 L 333.73,596.60 L 334.86,596.47 L 336.15,595.69 L 339.18,595.49 L 338.85,595.99 L 336.36,596.94 L 333.70,597.18 L 329.53,596.02 L 328.56,595.45 L 328.11,594.97 Z M 306.76,590.44 L 312.41,592.53 L 321.19,593.94 L 321.71,593.93 L 322.34,593.34 L 321.97,593.92 L 321.60,594.10 L 319.68,594.37 L 314.83,593.48 L 311.46,593.17 L 306.64,591.45 L 303.62,591.95 L 302.35,591.93 L 301.17,591.60 L 300.33,591.09 L 304.47,590.99 L 305.98,590.17 L 306.76,590.44 Z" data-name="Jackson" data-bezirk="Jackson" />
	<path id="stadtteil-30" class="stadtteil-path" d="M 242.77,387.08 L 242.60,344.98 L 264.10,344.92 L 285.46,344.89 L 285.82,394.36 L 284.18,394.48 L 283.56,394.51 L 282.37,394.62 L 243.25,397.41 L 243.19,388.43 L 242.77,387.08 Z" data-name="Jasper" data-bezirk="Jasper" />
	<path id="stadtteil-31" class="stadtteil-path" d="M 94.42,399.40 L 94.36,410.31 L 94.31,421.18 L 50.64,421.31 L 38.54,416.68 L 33.45,403.93 L 28.50,403.55 L 28.44,402.56 L 28.64,400.12 L 29.08,397.75 L 30.53,392.34 L 31.29,391.30 L 32.50,390.84 L 36.01,390.19 L 40.76,388.98 L 65.34,389.98 L 83.33,394.38 L 82.22,399.49 L 94.42,399.40 Z" data-name="Jefferson" data-bezirk="Jefferson" />
	<path id="stadtteil-32" class="stadtteil-path" d="M 175.91,448.63 L 174.11,432.21 L 174.27,402.45 L 197.27,400.83 L 197.22,421.35 L 214.90,433.33 L 214.91,443.25 L 207.85,443.24 L 190.03,443.20 L 190.12,448.69 L 175.91,448.63 Z" data-name="Jefferson Davis" data-bezirk="Jefferson Davis" />
	<path id="stadtteil-33" class="stadtteil-path" d="M 238.70,397.75 L 243.25,397.41 L 282.37,394.62 L 282.36,443.28 L 261.12,443.21 L 234.59,443.21 L 234.44,411.84 L 234.37,398.07 L 238.70,397.75 Z" data-name="Jones" data-bezirk="Jones" />
	<path id="stadtteil-34" class="stadtteil-path" d="M 296.06,257.57 L 344.81,257.19 L 341.11,294.78 L 341.11,294.81 L 340.51,300.86 L 285.39,301.00 L 285.40,257.50 L 296.06,257.57 Z" data-name="Kemper" data-bezirk="Kemper" />
	<path id="stadtteil-35" class="stadtteil-path" d="M 222.99,103.77 L 223.03,100.18 L 200.84,99.98 L 200.81,54.97 L 206.36,54.96 L 226.46,54.98 L 231.94,59.34 L 250.63,62.27 L 250.61,76.74 L 250.70,103.88 L 250.22,103.90 L 222.99,103.77 Z" data-name="Lafayette" data-bezirk="Lafayette" />
	<path id="stadtteil-36" class="stadtteil-path" d="M 207.86,450.49 L 207.83,446.87 L 207.85,443.24 L 214.91,443.25 L 229.09,443.21 L 229.15,454.12 L 239.96,454.08 L 239.85,495.93 L 226.53,499.34 L 223.87,495.49 L 207.87,496.90 L 207.86,450.49 Z" data-name="Lamar" data-bezirk="Lamar" />
	<path id="stadtteil-37" class="stadtteil-path" d="M 285.39,301.00 L 340.51,300.86 L 338.93,316.81 L 338.93,316.83 L 337.08,334.38 L 336.01,344.46 L 285.46,344.89 L 285.39,301.00 Z" data-name="Lauderdale" data-bezirk="Lauderdale" />
	<path id="stadtteil-38" class="stadtteil-path" d="M 174.27,402.45 L 174.11,432.21 L 175.91,448.63 L 167.36,448.11 L 167.36,455.41 L 146.03,453.63 L 145.90,407.94 L 158.75,403.56 L 174.27,402.45 Z" data-name="Lawrence" data-bezirk="Lawrence" />
	<path id="stadtteil-39" class="stadtteil-path" d="M 199.87,293.87 L 199.89,287.54 L 199.90,262.70 L 199.89,257.08 L 226.81,256.93 L 242.97,256.87 L 243.14,301.06 L 242.61,301.07 L 199.89,300.96 L 199.87,293.87 Z" data-name="Leake" data-bezirk="Leake" />
	<path id="stadtteil-40" class="stadtteil-path" d="M 294.83,114.61 L 294.78,78.55 L 298.50,62.35 L 304.06,60.61 L 324.47,60.58 L 324.44,66.04 L 324.30,112.86 L 305.92,112.82 L 305.89,114.66 L 305.25,114.63 L 294.83,114.61 Z" data-name="Lee" data-bezirk="Lee" />
	<path id="stadtteil-41" class="stadtteil-path" d="M 157.26,158.57 L 157.24,164.13 L 158.21,164.13 L 160.97,191.26 L 153.28,196.48 L 153.30,206.88 L 137.90,201.69 L 136.84,210.68 L 132.45,218.23 L 124.03,215.10 L 124.09,207.37 L 124.26,147.40 L 152.46,147.66 L 152.14,153.11 L 140.73,154.92 L 143.39,161.61 L 157.26,158.57 Z" data-name="Leflore" data-bezirk="Leflore" />
	<path id="stadtteil-42" class="stadtteil-path" d="M 94.36,410.31 L 142.25,410.13 L 145.90,407.94 L 146.03,453.63 L 144.30,453.63 L 114.13,453.72 L 105.21,453.75 L 105.22,421.14 L 94.31,421.18 L 94.36,410.31 Z" data-name="Lincoln" data-bezirk="Lincoln" />
	<path id="stadtteil-43" class="stadtteil-path" d="M 352.18,184.60 L 350.74,198.71 L 349.34,212.49 L 311.12,212.66 L 310.89,185.38 L 330.91,183.32 L 327.39,167.46 L 342.44,163.02 L 347.18,155.59 L 355.22,155.68 L 354.59,161.42 L 354.57,161.79 L 354.41,163.40 L 354.39,163.50 L 353.27,174.42 L 353.26,174.70 L 353.15,175.57 L 353.05,176.58 L 353.01,177.08 L 352.95,177.34 L 352.47,181.92 L 352.24,184.10 L 352.18,184.60 Z" data-name="Lowndes" data-bezirk="Lowndes" />
	<path id="stadtteil-44" class="stadtteil-path" d="M 199.90,262.70 L 199.89,287.54 L 199.87,293.87 L 196.85,296.45 L 195.63,298.23 L 194.47,298.46 L 194.23,299.76 L 186.39,300.02 L 175.58,311.66 L 164.39,318.28 L 164.71,323.08 L 156.80,323.08 L 156.22,323.04 L 146.05,323.01 L 146.06,312.13 L 124.45,312.07 L 124.42,301.40 L 133.46,297.73 L 142.45,290.62 L 150.87,290.19 L 166.45,281.25 L 175.18,263.35 L 199.90,262.70 Z" data-name="Madison" data-bezirk="Madison" />
	<path id="stadtteil-45" class="stadtteil-path" d="M 207.85,443.24 L 207.83,446.87 L 207.86,450.49 L 207.87,496.90 L 200.10,496.93 L 200.10,496.91 L 199.64,496.62 L 197.53,496.99 L 190.84,496.96 L 189.99,496.96 L 188.84,496.96 L 188.80,496.96 L 188.81,487.89 L 178.09,482.41 L 168.26,475.35 L 167.36,455.41 L 167.36,448.11 L 175.91,448.63 L 190.12,448.69 L 190.03,443.20 L 207.85,443.24 Z" data-name="Marion" data-bezirk="Marion" />
	<path id="stadtteil-46" class="stadtteil-path" d="M 200.50,0.16 L 208.89,0.09 L 222.85,0.16 L 224.67,0.21 L 239.46,0.20 L 239.46,18.87 L 245.06,18.87 L 245.16,51.40 L 250.68,51.37 L 250.65,56.38 L 250.79,56.46 L 250.65,56.58 L 250.63,62.27 L 231.94,59.34 L 226.46,54.98 L 206.36,54.96 L 206.28,38.61 L 200.71,38.64 L 200.57,27.86 L 200.60,27.71 L 200.50,0.16 Z" data-name="Marshall" data-bezirk="Marshall" />
	<path id="stadtteil-47" class="stadtteil-path" d="M 305.79,147.41 L 305.89,114.66 L 305.92,112.82 L 324.30,112.86 L 359.92,113.17 L 359.54,116.68 L 357.53,134.78 L 357.52,134.93 L 357.52,134.94 L 355.22,155.68 L 347.18,155.59 L 342.44,163.02 L 327.39,167.46 L 329.22,163.74 L 305.82,163.72 L 305.79,147.41 Z" data-name="Monroe" data-bezirk="Monroe" />
	<path id="stadtteil-48" class="stadtteil-path" d="M 228.86,212.78 L 208.79,212.84 L 208.68,198.28 L 194.12,196.57 L 193.94,164.16 L 223.30,164.05 L 223.34,191.15 L 236.48,191.09 L 228.83,194.46 L 228.86,212.78 Z" data-name="Montgomery" data-bezirk="Montgomery" />
	<path id="stadtteil-49" class="stadtteil-path" d="M 285.40,257.50 L 285.39,301.00 L 243.14,301.06 L 242.97,256.87 L 285.40,257.50 Z" data-name="Neshoba" data-bezirk="Neshoba" />
	<path id="stadtteil-50" class="stadtteil-path" d="M 264.10,344.92 L 242.60,344.98 L 242.61,301.07 L 243.14,301.06 L 285.39,301.00 L 285.46,344.89 L 264.10,344.92 Z" data-name="Newton" data-bezirk="Newton" />
	<path id="stadtteil-51" class="stadtteil-path" d="M 311.12,212.66 L 349.34,212.49 L 345.57,249.46 L 344.81,257.19 L 296.06,257.57 L 296.03,212.72 L 311.12,212.66 Z" data-name="Noxubee" data-bezirk="Noxubee" />
	<path id="stadtteil-52" class="stadtteil-path" d="M 296.03,212.72 L 277.64,212.77 L 267.18,212.78 L 267.16,182.02 L 267.18,178.43 L 274.48,178.42 L 310.87,178.04 L 310.89,185.38 L 311.12,212.66 L 296.03,212.72 Z" data-name="Oktibbeha" data-bezirk="Oktibbeha" />
	<path id="stadtteil-53" class="stadtteil-path" d="M 200.81,54.97 L 200.84,99.98 L 200.80,103.59 L 178.78,103.49 L 157.40,104.02 L 157.51,90.94 L 151.25,86.43 L 150.79,60.34 L 150.78,54.95 L 200.81,54.97 Z" data-name="Panola" data-bezirk="Panola" />
	<path id="stadtteil-54" class="stadtteil-path" d="M 239.85,495.93 L 240.70,508.43 L 240.64,541.05 L 219.38,540.97 L 219.35,557.33 L 204.04,564.56 L 200.47,560.44 L 199.64,560.36 L 196.70,557.47 L 191.85,550.47 L 190.12,545.93 L 188.10,538.77 L 188.10,538.77 L 189.82,529.99 L 193.63,515.69 L 195.35,509.95 L 195.61,509.73 L 197.12,509.61 L 198.35,507.30 L 200.07,500.81 L 200.10,496.93 L 207.87,496.90 L 223.87,495.49 L 226.53,499.34 L 239.85,495.93 Z" data-name="Pearl River" data-bezirk="Pearl River" />
	<path id="stadtteil-55" class="stadtteil-path" d="M 293.03,443.25 L 293.11,497.41 L 293.80,497.47 L 293.78,508.37 L 288.48,508.32 L 261.97,508.43 L 261.12,443.21 L 282.36,443.28 L 293.03,443.25 Z" data-name="Perry" data-bezirk="Perry" />
	<path id="stadtteil-56" class="stadtteil-path" d="M 132.88,497.17 L 127.35,497.24 L 126.85,497.24 L 125.75,497.25 L 125.29,497.25 L 125.22,497.25 L 121.90,497.24 L 121.71,497.25 L 121.57,497.25 L 120.67,497.25 L 120.58,497.25 L 114.19,497.25 L 114.13,453.72 L 144.30,453.63 L 144.39,497.13 L 135.33,497.17 L 135.20,497.17 L 135.20,497.17 L 132.88,497.17 Z" data-name="Pike" data-bezirk="Pike" />
	<path id="stadtteil-57" class="stadtteil-path" d="M 294.78,78.55 L 294.83,114.61 L 261.84,114.71 L 250.81,114.74 L 250.70,103.88 L 250.61,76.74 L 283.88,76.73 L 294.78,78.55 Z" data-name="Pontotoc" data-bezirk="Pontotoc" />
	<path id="stadtteil-58" class="stadtteil-path" d="M 304.06,60.61 L 304.17,49.72 L 306.02,49.72 L 305.94,29.77 L 342.95,29.92 L 346.59,31.77 L 346.75,66.25 L 324.44,66.04 L 324.47,60.58 L 304.06,60.61 Z" data-name="Prentiss" data-bezirk="Prentiss" />
	<path id="stadtteil-59" class="stadtteil-path" d="M 124.32,114.86 L 124.37,91.29 L 129.77,91.40 L 129.72,71.20 L 139.96,71.11 L 139.70,60.53 L 150.79,60.34 L 151.25,86.43 L 157.51,90.94 L 157.40,104.02 L 157.38,114.86 L 124.32,114.86 Z" data-name="Quitman" data-bezirk="Quitman" />
	<path id="stadtteil-60" class="stadtteil-path" d="M 147.46,366.60 L 145.88,351.46 L 154.78,334.42 L 164.71,323.08 L 164.39,318.28 L 175.58,311.66 L 186.39,300.02 L 194.23,299.76 L 199.90,328.90 L 199.86,345.16 L 199.79,345.16 L 199.90,366.93 L 147.46,366.60 Z" data-name="Rankin" data-bezirk="Rankin" />
	<path id="stadtteil-61" class="stadtteil-path" d="M 242.60,344.98 L 199.86,345.16 L 199.90,328.90 L 194.23,299.76 L 194.47,298.46 L 195.63,298.23 L 196.85,296.45 L 199.87,293.87 L 199.89,300.96 L 242.61,301.07 L 242.60,344.98 Z" data-name="Scott" data-bezirk="Scott" />
	<path id="stadtteil-62" class="stadtteil-path" d="M 98.03,236.38 L 102.62,236.35 L 102.77,258.00 L 91.96,268.80 L 98.78,271.30 L 93.75,282.05 L 101.95,287.04 L 95.79,290.40 L 70.45,290.32 L 70.57,268.50 L 75.75,247.40 L 75.74,236.24 L 98.03,236.38 Z" data-name="Sharkey" data-bezirk="Sharkey" />
	<path id="stadtteil-63" class="stadtteil-path" d="M 199.90,366.93 L 207.02,366.91 L 207.97,400.08 L 197.27,400.83 L 174.27,402.45 L 158.75,403.56 L 157.71,390.59 L 147.46,366.60 L 199.90,366.93 Z" data-name="Simpson" data-bezirk="Simpson" />
	<path id="stadtteil-64" class="stadtteil-path" d="M 238.70,397.75 L 234.37,398.07 L 207.97,400.08 L 207.02,366.91 L 199.90,366.93 L 199.79,345.16 L 199.86,345.16 L 242.60,344.98 L 242.77,387.08 L 243.19,388.43 L 243.25,397.41 L 238.70,397.75 Z" data-name="Smith" data-bezirk="Smith" />
	<path id="stadtteil-65" class="stadtteil-path" d="M 288.54,530.12 L 288.54,532.72 L 288.54,532.83 L 288.54,532.91 L 288.54,537.37 L 251.26,537.39 L 240.64,541.05 L 240.70,508.43 L 261.97,508.43 L 288.48,508.32 L 288.54,530.12 Z" data-name="Stone" data-bezirk="Stone" />
	<path id="stadtteil-66" class="stadtteil-path" d="M 124.26,147.40 L 124.09,207.37 L 113.36,207.40 L 113.40,214.70 L 96.51,214.76 L 91.53,214.72 L 91.56,182.49 L 91.57,171.70 L 102.56,171.68 L 102.73,125.48 L 124.32,125.72 L 124.40,127.55 L 124.26,147.40 Z" data-name="Sunflower" data-bezirk="Sunflower" />
	<path id="stadtteil-67" class="stadtteil-path" d="M 179.35,136.63 L 179.33,145.85 L 157.29,147.66 L 157.26,158.57 L 143.39,161.61 L 140.73,154.92 L 152.14,153.11 L 152.46,147.66 L 124.26,147.40 L 124.40,127.55 L 124.32,125.72 L 124.37,123.92 L 124.32,114.86 L 157.38,114.86 L 157.40,104.02 L 178.78,103.49 L 179.35,136.63 Z" data-name="Tallahatchie" data-bezirk="Tallahatchie" />
	<path id="stadtteil-68" class="stadtteil-path" d="M 150.61,33.80 L 158.09,29.30 L 168.45,35.85 L 180.80,27.82 L 200.57,27.86 L 200.71,38.64 L 206.28,38.61 L 206.36,54.96 L 200.81,54.97 L 150.78,54.95 L 146.44,46.01 L 150.61,33.80 Z" data-name="Tate" data-bezirk="Tate" />
	<path id="stadtteil-69" class="stadtteil-path" d="M 274.64,0.17 L 294.98,0.11 L 294.94,17.10 L 302.33,17.08 L 305.94,29.77 L 306.02,49.72 L 304.17,49.72 L 267.16,49.50 L 267.20,22.49 L 274.59,17.09 L 274.64,0.17 Z" data-name="Tippah" data-bezirk="Tippah" />
	<path id="stadtteil-70" class="stadtteil-path" d="M 354.20,0.07 L 354.65,0.06 L 360.29,0.05 L 368.15,11.67 L 371.00,12.92 L 368.85,33.81 L 366.72,50.62 L 366.66,50.80 L 366.59,51.56 L 364.98,66.32 L 346.75,66.25 L 346.59,31.77 L 342.95,29.92 L 343.15,0.06 L 354.20,0.07 Z" data-name="Tishomingo" data-bezirk="Tishomingo" />
	<path id="stadtteil-71" class="stadtteil-path" d="M 140.79,16.86 L 150.41,16.88 L 150.61,33.80 L 146.44,46.01 L 150.78,54.95 L 150.79,60.34 L 139.70,60.53 L 139.96,71.11 L 129.72,71.20 L 111.97,58.66 L 111.83,58.63 L 111.24,44.08 L 111.16,42.14 L 112.47,41.10 L 113.96,41.51 L 115.10,41.93 L 116.93,41.41 L 118.24,39.44 L 118.16,38.09 L 115.71,35.91 L 113.44,33.42 L 113.96,28.96 L 115.27,26.36 L 117.11,26.57 L 119.05,28.14 L 119.73,28.44 L 121.30,28.23 L 122.62,26.57 L 121.48,20.35 L 121.92,17.85 L 123.23,17.34 L 125.85,17.54 L 127.17,20.09 L 128.11,20.43 L 128.83,20.32 L 139.38,18.65 L 140.79,16.86 Z" data-name="Tunica" data-bezirk="Tunica" />
	<path id="stadtteil-72" class="stadtteil-path" d="M 304.17,49.72 L 304.06,60.61 L 298.50,62.35 L 294.78,78.55 L 283.88,76.73 L 250.61,76.74 L 250.63,62.27 L 250.65,56.58 L 250.79,56.46 L 250.65,56.38 L 250.68,51.37 L 250.68,49.58 L 267.16,49.50 L 304.17,49.72 Z" data-name="Union" data-bezirk="Union" />
	<path id="stadtteil-73" class="stadtteil-path" d="M 167.36,455.41 L 168.26,475.35 L 178.09,482.41 L 188.81,487.89 L 188.80,496.96 L 186.61,496.96 L 182.85,497.00 L 182.34,496.98 L 179.66,497.04 L 179.24,497.04 L 174.45,497.04 L 174.18,497.01 L 171.04,497.05 L 169.28,497.05 L 168.50,497.07 L 166.29,497.07 L 158.14,497.09 L 157.83,497.10 L 154.38,497.09 L 154.34,497.09 L 144.39,497.13 L 144.30,453.63 L 146.03,453.63 L 167.36,455.41 Z" data-name="Walthall" data-bezirk="Walthall" />
	<path id="stadtteil-74" class="stadtteil-path" d="M 96.11,295.79 L 102.98,304.85 L 113.54,309.63 L 104.91,326.19 L 98.79,328.87 L 95.22,344.78 L 90.38,353.63 L 76.44,356.38 L 72.53,362.85 L 63.84,358.76 L 63.88,358.68 L 63.93,357.80 L 63.95,357.39 L 63.61,356.64 L 63.16,356.01 L 62.52,355.70 L 61.88,355.52 L 61.28,355.70 L 60.74,355.93 L 59.75,356.35 L 53.00,357.09 L 49.70,356.28 L 49.43,356.08 L 48.77,354.84 L 48.47,353.51 L 48.84,350.82 L 49.56,348.29 L 50.20,347.66 L 52.77,346.23 L 53.92,345.80 L 61.90,342.78 L 62.68,342.63 L 64.52,343.41 L 66.11,344.90 L 66.29,345.99 L 76.71,333.53 L 77.40,331.84 L 77.10,330.75 L 75.96,330.55 L 68.17,329.02 L 66.76,328.28 L 66.40,327.73 L 66.30,326.98 L 67.39,322.54 L 63.67,318.85 L 61.22,318.24 L 59.41,317.40 L 56.78,315.71 L 55.36,314.05 L 54.61,312.67 L 54.54,310.56 L 56.51,305.01 L 56.94,304.46 L 57.40,303.94 L 57.27,302.77 L 57.26,302.62 L 70.54,301.17 L 71.88,317.50 L 81.30,317.78 L 81.39,301.22 L 95.25,302.33 L 96.11,295.79 Z" data-name="Warren" data-bezirk="Warren" />
	<path id="stadtteil-75" class="stadtteil-path" d="M 96.51,214.76 L 100.28,223.23 L 98.03,236.38 L 75.74,236.24 L 75.75,247.40 L 50.24,246.97 L 53.60,243.60 L 57.59,230.30 L 57.76,220.78 L 55.18,217.76 L 51.97,211.23 L 47.44,196.16 L 52.95,194.85 L 54.35,192.48 L 53.66,189.53 L 44.16,182.49 L 91.56,182.49 L 91.53,214.72 L 96.51,214.76 Z" data-name="Washington" data-bezirk="Washington" />
	<path id="stadtteil-76" class="stadtteil-path" d="M 282.37,394.62 L 283.56,394.51 L 284.18,394.48 L 285.82,394.36 L 316.02,390.56 L 332.00,386.01 L 331.86,391.28 L 331.88,391.34 L 332.58,410.37 L 332.58,410.38 L 333.07,419.57 L 333.09,419.87 L 334.15,442.99 L 293.03,443.25 L 282.36,443.28 L 282.37,394.62 Z" data-name="Wayne" data-bezirk="Wayne" />
	<path id="stadtteil-77" class="stadtteil-path" d="M 267.16,182.02 L 265.35,182.05 L 245.39,185.31 L 236.48,191.09 L 223.34,191.15 L 223.30,164.05 L 223.29,159.52 L 223.27,158.55 L 256.31,158.51 L 256.33,156.46 L 272.81,156.36 L 274.48,174.57 L 274.48,178.42 L 267.18,178.43 L 267.16,182.02 Z" data-name="Webster" data-bezirk="Webster" />
	<path id="stadtteil-78" class="stadtteil-path" d="M 50.19,454.08 L 56.77,457.28 L 60.54,462.15 L 60.46,497.35 L 59.61,497.35 L 58.30,497.35 L 55.44,497.36 L 55.42,497.36 L 48.31,497.32 L 48.30,497.32 L 43.28,497.32 L 43.20,497.32 L 22.36,497.34 L 22.14,497.34 L 10.30,497.29 L 1.24,497.32 L 0.00,497.29 L 5.48,494.70 L 6.84,493.51 L 7.81,491.84 L 8.08,490.48 L 7.93,489.64 L 7.63,488.90 L 6.24,487.49 L 3.43,477.99 L 3.88,473.29 L 15.51,469.11 L 17.66,457.45 L 34.66,452.32 L 50.19,454.08 Z" data-name="Wilkinson" data-bezirk="Wilkinson" />
	<path id="stadtteil-79" class="stadtteil-path" d="M 265.02,221.50 L 265.02,212.78 L 267.18,212.78 L 277.64,212.77 L 296.03,212.72 L 296.06,257.57 L 285.40,257.50 L 242.97,256.87 L 243.11,234.82 L 254.01,234.75 L 254.06,223.78 L 265.02,221.50 Z" data-name="Winston" data-bezirk="Winston" />
	<path id="stadtteil-80" class="stadtteil-path" d="M 200.84,99.98 L 223.03,100.18 L 222.99,103.77 L 223.25,140.43 L 195.81,140.44 L 195.79,136.73 L 179.35,136.63 L 178.78,103.49 L 200.80,103.59 L 200.84,99.98 Z" data-name="Yalobusha" data-bezirk="Yalobusha" />
	<path id="stadtteil-81" class="stadtteil-path" d="M 175.18,263.35 L 166.45,281.25 L 150.87,290.19 L 142.45,290.62 L 133.46,297.73 L 124.42,301.40 L 113.54,309.63 L 102.98,304.85 L 96.11,295.79 L 98.48,295.01 L 98.95,293.14 L 96.88,292.86 L 95.79,290.40 L 101.95,287.04 L 93.75,282.05 L 98.78,271.30 L 91.96,268.80 L 102.77,258.00 L 124.44,257.91 L 124.50,247.24 L 133.44,247.04 L 175.18,263.35 Z" data-name="Yazoo" data-bezirk="Yazoo" />
  </g>
  <g id="map-labels-group" style="pointer-events: none;"></g>
</svg>