<svg xmlns="http://www.w3.org/2000/svg" viewBox="0 0 1130 600" class="city-map-svg">
  <g class="stadtteile-group">
	<path id="arrondissement-0" class="stadtteil-path" d="M 439.50,269.48 L 460.17,227.90 L 459.80,224.51 L 473.10,220.77 L 483.68,232.49 L 579.34,266.87 L 562.69,311.14 L 560.65,312.22 L 556.27,323.48 L 549.61,333.07 L 539.75,324.37 L 530.80,313.43 L 515.88,301.68 L 489.04,293.13 L 439.50,269.48 Z" data-name="1er arrondissement" data-bezirk="1er arrondissement" data-quartier="Louvre" data-arrondissement="1" />
	<path id="arrondissement-1" class="stadtteil-path" d="M 528.62,206.60 L 565.19,215.56 L 595.03,225.29 L 579.50,266.84 L 483.64,232.43 L 473.99,222.38 L 473.35,220.95 L 528.62,206.60 Z" data-name="2e arrondissement" data-bezirk="2e arrondissement" data-quartier="Bourse" data-arrondissement="2" />
	<path id="arrondissement-2" class="stadtteil-path" d="M 632.24,235.17 L 643.38,245.53 L 652.33,268.40 L 660.48,320.33 L 641.40,315.96 L 628.87,310.17 L 614.94,299.64 L 606.59,290.10 L 590.68,282.32 L 575.76,276.55 L 594.66,225.44 L 632.24,235.17 Z" data-name="3e arrondissement" data-bezirk="3e arrondissement" data-quartier="Temple" data-arrondissement="3" />
	<path id="arrondissement-3" class="stadtteil-path" d="M 642.86,389.61 L 625.47,370.93 L 596.61,355.36 L 575.57,347.41 L 560.83,338.10 L 549.71,332.97 L 556.27,323.32 L 561.00,312.27 L 562.59,310.98 L 575.75,276.57 L 590.25,282.14 L 606.39,289.74 L 614.72,299.69 L 629.05,310.20 L 641.37,316.20 L 660.05,319.99 L 663.94,341.54 L 650.50,382.78 L 642.86,389.61 Z" data-name="4e arrondissement" data-bezirk="4e arrondissement" data-quartier="Hôtel-de-Ville" data-arrondissement="4" />
	<path id="arrondissement-4" class="stadtteil-path" d="M 583.30,454.71 L 554.06,448.72 L 512.23,434.47 L 540.56,359.53 L 548.08,334.85 L 549.48,332.89 L 560.41,338.10 L 575.75,347.27 L 597.21,355.79 L 625.85,371.14 L 649.11,396.60 L 644.15,400.95 L 629.83,431.81 L 583.30,454.71 Z" data-name="5e arrondissement" data-bezirk="5e arrondissement" data-quartier="Panthéon" data-arrondissement="5" />
	<path id="arrondissement-5" class="stadtteil-path" d="M 419.58,383.53 L 431.49,376.49 L 455.03,359.15 L 468.57,350.01 L 476.07,347.59 L 489.69,316.68 L 500.17,296.66 L 517.03,301.52 L 531.37,313.78 L 540.27,324.37 L 549.32,333.21 L 548.32,334.80 L 540.85,358.89 L 512.50,434.42 L 435.89,395.87 L 419.58,383.53 Z" data-name="6e arrondissement" data-bezirk="6e arrondissement" data-quartier="Luxembourg" data-arrondissement="6" />
	<path id="arrondissement-6" class="stadtteil-path" d="M 387.43,390.87 L 377.28,381.41 L 296.35,303.62 L 319.02,277.76 L 344.27,266.22 L 428.20,263.83 L 489.06,293.16 L 500.10,296.66 L 489.65,317.25 L 484.18,330.17 L 479.02,342.51 L 475.23,348.48 L 468.87,350.06 L 432.58,376.84 L 406.52,390.17 L 395.88,395.06 L 387.43,390.87 Z" data-name="7e arrondissement" data-bezirk="7e arrondissement" data-quartier="Palais-Bourbon" data-arrondissement="7" />
	<path id="arrondissement-7" class="stadtteil-path" d="M 350.44,258.46 L 342.65,254.72 L 337.69,229.64 L 330.74,212.30 L 322.58,197.44 L 318.09,197.92 L 315.59,194.56 L 317.30,190.18 L 321.98,189.99 L 332.92,165.80 L 332.32,163.83 L 334.22,160.80 L 337.69,162.28 L 385.01,146.71 L 420.23,140.50 L 469.35,125.63 L 467.68,178.78 L 466.58,182.33 L 468.27,193.46 L 467.77,196.95 L 465.09,202.11 L 466.09,203.00 L 462.91,223.70 L 459.82,224.70 L 460.32,227.32 L 439.50,269.05 L 427.97,264.02 L 351.00,266.06 L 350.44,258.46 Z" data-name="8e arrondissement" data-bezirk="8e arrondissement" data-quartier="Élysée" data-arrondissement="8" />
	<path id="arrondissement-8" class="stadtteil-path" d="M 526.77,135.77 L 572.74,123.30 L 574.36,145.07 L 571.30,157.84 L 570.33,169.54 L 566.34,180.53 L 565.00,193.13 L 565.19,215.56 L 528.81,206.60 L 462.77,223.43 L 466.15,203.00 L 465.18,202.17 L 467.82,196.87 L 468.28,193.78 L 466.67,182.09 L 467.55,178.48 L 469.17,125.85 L 472.69,124.43 L 479.87,117.17 L 516.60,133.94 L 526.77,135.77 Z" data-name="9e arrondissement" data-bezirk="9e arrondissement" data-quartier="Opéra" data-arrondissement="9" />
	<path id="arrondissement-9" class="stadtteil-path" d="M 661.88,121.20 L 663.67,126.77 L 668.64,131.36 L 668.84,159.59 L 671.42,163.16 L 670.43,167.14 L 699.87,205.56 L 681.17,215.87 L 640.79,235.98 L 637.42,239.96 L 632.45,235.17 L 594.86,225.44 L 565.42,215.28 L 564.83,192.63 L 566.42,179.89 L 570.20,169.13 L 571.59,155.42 L 574.38,145.07 L 572.58,123.19 L 617.73,118.43 L 643.58,119.22 L 661.88,121.20 Z" data-name="10e arrondissement" data-bezirk="10e arrondissement" data-quartier="Enclos-St-Laurent" data-arrondissement="10" />
	<path id="arrondissement-10" class="stadtteil-path" d="M 728.70,240.74 L 731.49,248.11 L 748.58,270.99 L 758.73,301.84 L 770.67,307.99 L 780.36,315.20 L 799.25,351.97 L 803.03,370.44 L 802.34,374.71 L 787.67,372.96 L 733.88,360.15 L 713.99,357.94 L 674.80,344.02 L 668.84,338.64 L 663.87,339.63 L 652.53,268.40 L 643.18,245.72 L 637.42,239.75 L 640.79,235.98 L 699.47,205.56 L 728.70,240.74 Z" data-name="11e arrondissement" data-bezirk="11e arrondissement" data-quartier="Popincourt" data-arrondissement="11" />
	<path id="arrondissement-11" class="stadtteil-path" d="M 873.86,383.83 L 864.69,456.27 L 851.20,472.19 L 871.88,476.22 L 909.27,461.05 L 900.51,427.67 L 896.11,417.29 L 899.31,406.51 L 907.65,399.77 L 919.98,419.28 L 984.44,427.67 L 988.43,399.77 L 995.98,400.52 L 995.56,389.82 L 1022.63,390.23 L 1021.42,397.00 L 1063.96,402.94 L 1100.20,416.08 L 1130.00,456.27 L 1126.85,473.05 L 1108.91,491.73 L 1104.56,519.20 L 1112.53,521.59 L 1106.92,551.83 L 1096.58,576.56 L 1079.49,592.83 L 1056.40,594.04 L 1031.76,585.73 L 980.46,583.74 L 979.67,575.35 L 954.59,554.23 L 934.72,543.50 L 908.44,543.07 L 898.10,543.85 L 886.98,540.33 L 857.97,537.50 L 837.68,523.55 L 822.94,507.21 L 811.82,504.47 L 786.38,516.03 L 763.66,522.02 L 753.75,527.16 L 642.34,388.61 L 651.10,382.27 L 663.85,339.29 L 669.41,339.29 L 674.80,344.31 L 714.78,358.75 L 734.65,360.79 L 787.95,373.13 L 873.86,383.83 Z" data-name="12e arrondissement" data-bezirk="12e arrondissement" data-quartier="Reuilly" data-arrondissement="12" />
	<path id="arrondissement-12" class="stadtteil-path" d="M 538.07,443.64 L 553.79,448.69 L 569.99,452.48 L 583.72,454.85 L 630.25,431.59 L 644.15,400.95 L 648.92,396.60 L 753.66,527.07 L 738.41,535.41 L 708.48,562.31 L 636.78,600.00 L 606.47,597.82 L 595.36,590.35 L 582.70,586.91 L 560.32,598.04 L 547.39,597.82 L 547.62,589.44 L 549.89,577.10 L 546.88,570.78 L 539.84,562.45 L 535.39,546.97 L 536.27,527.59 L 534.69,492.21 L 533.77,488.56 L 538.07,443.64 Z" data-name="13e arrondissement" data-bezirk="13e arrondissement" data-quartier="Gobelins" data-arrondissement="13" />
	<path id="arrondissement-13" class="stadtteil-path" d="M 350.04,534.49 L 440.72,421.22 L 443.11,424.79 L 457.23,406.08 L 511.92,433.96 L 538.38,443.90 L 533.80,488.31 L 535.59,510.78 L 536.19,533.28 L 535.59,549.81 L 540.16,563.55 L 547.33,571.91 L 549.71,577.29 L 547.92,589.84 L 547.52,597.39 L 508.74,595.22 L 495.62,583.47 L 350.04,534.49 Z" data-name="14e arrondissement" data-bezirk="14e arrondissement" data-quartier="Observatoire" data-arrondissement="14" />
	<path id="arrondissement-14" class="stadtteil-path" d="M 307.88,519.95 L 236.68,475.76 L 223.95,499.25 L 227.53,503.64 L 217.19,509.61 L 206.85,515.57 L 194.12,515.17 L 191.73,494.47 L 207.24,476.97 L 200.48,464.63 L 186.57,468.99 L 177.02,465.81 L 242.25,368.29 L 286.00,321.33 L 296.74,303.03 L 386.23,390.57 L 395.79,394.56 L 419.64,383.80 L 435.95,395.36 L 457.04,406.49 L 443.51,424.42 L 440.33,420.41 L 350.04,533.90 L 307.88,519.95 Z" data-name="15e arrondissement" data-bezirk="15e arrondissement" data-quartier="Vaugirard" data-arrondissement="15" />
	<path id="arrondissement-15" class="stadtteil-path" d="M 250.90,161.98 L 319.80,193.22 L 331.15,212.01 L 338.80,231.50 L 342.84,253.75 L 350.54,258.65 L 351.60,267.19 L 315.82,279.18 L 291.96,307.86 L 278.43,330.90 L 238.66,375.52 L 176.61,466.19 L 147.97,462.27 L 129.66,436.76 L 133.65,393.77 L 112.94,392.99 L 73.17,373.13 L 6.35,371.49 L 0.00,322.94 L 26.23,244.93 L 62.06,217.11 L 96.26,175.74 L 135.23,190.82 L 149.54,146.28 L 250.90,161.98 Z" data-name="16e arrondissement" data-bezirk="16e arrondissement" data-quartier="Passy" data-arrondissement="16" />
	<path id="arrondissement-16" class="stadtteil-path" d="M 250.53,161.49 L 265.64,130.42 L 305.49,90.61 L 332.51,81.96 L 371.92,43.46 L 408.51,21.99 L 444.65,4.70 L 482.88,3.38 L 461.98,96.47 L 469.35,125.63 L 421.62,140.77 L 383.44,147.11 L 334.31,162.97 L 320.18,192.87 L 250.53,161.49 Z" data-name="17e arrondissement" data-bezirk="17e arrondissement" data-quartier="Batignolles-Monceau" data-arrondissement="17" />
	<path id="arrondissement-17" class="stadtteil-path" d="M 669.41,3.95 L 669.41,32.20 L 676.18,41.72 L 668.99,48.06 L 654.12,96.45 L 652.03,103.41 L 643.18,118.86 L 615.70,118.86 L 572.74,124.03 L 527.41,136.77 L 515.90,133.84 L 480.10,118.73 L 472.64,125.10 L 469.27,125.88 L 461.91,96.26 L 483.26,3.17 L 589.84,0.00 L 669.41,3.95 Z" data-name="18e arrondissement" data-bezirk="18e arrondissement" data-quartier="Butte-Montmartre" data-arrondissement="18" />
	<path id="arrondissement-18" class="stadtteil-path" d="M 847.22,165.05 L 817.37,178.14 L 784.69,183.35 L 761.31,181.31 L 749.76,188.48 L 744.20,187.65 L 735.86,193.22 L 699.25,204.78 L 669.41,163.40 L 668.62,130.42 L 662.64,126.42 L 661.48,120.83 L 643.28,118.92 L 652.73,102.82 L 659.99,78.06 L 668.99,47.71 L 675.76,40.93 L 668.94,32.63 L 669.41,3.52 L 699.62,7.12 L 753.33,4.35 L 769.64,10.30 L 777.99,21.42 L 793.93,108.51 L 815.38,137.54 L 837.26,149.11 L 847.22,165.05 Z" data-name="19e arrondissement" data-bezirk="19e arrondissement" data-quartier="Buttes-Chaumont" data-arrondissement="19" />
	<path id="arrondissement-19" class="stadtteil-path" d="M 868.31,253.75 L 872.20,297.57 L 871.46,334.50 L 874.68,343.21 L 877.44,354.10 L 873.45,383.88 L 802.23,374.74 L 803.43,369.88 L 799.03,352.46 L 780.77,315.39 L 758.71,301.65 L 748.14,270.01 L 730.21,247.41 L 728.77,240.55 L 699.25,204.69 L 737.02,192.51 L 744.16,187.36 L 750.55,188.48 L 762.05,181.36 L 784.85,183.70 L 816.92,178.48 L 846.44,165.10 L 857.51,190.04 L 868.68,212.73 L 868.31,253.75 Z" data-name="20e arrondissement" data-bezirk="20e arrondissement" data-quartier="Ménilmontant" data-arrondissement="20" />
  </g>
</svg>
