<svg xmlns="http://www.w3.org/2000/svg" viewBox="0 0 633 600" class="city-map-svg">
  <g class="stadtteile-group">
	<path id="stadtteil-0" class="stadtteil-path" d="M 605.61,123.12 L 605.91,123.94 L 604.18,125.32 L 603.19,126.39 L 602.63,127.60 L 601.76,128.45 L 601.79,128.97 L 601.15,130.06 L 598.53,132.97 L 597.62,134.13 L 596.20,135.22 L 594.92,136.53 L 593.51,137.69 L 593.57,138.38 L 590.61,140.89 L 589.92,142.09 L 589.72,143.22 L 589.64,145.13 L 589.08,146.16 L 588.92,147.29 L 588.38,148.51 L 587.33,150.56 L 587.43,151.21 L 586.07,153.82 L 584.66,155.64 L 583.69,157.03 L 582.31,156.15 L 581.18,156.68 L 576.77,158.29 L 571.33,160.45 L 567.71,161.97 L 566.18,157.49 L 565.47,157.61 L 565.30,156.86 L 564.83,153.94 L 564.53,152.85 L 565.01,150.49 L 565.72,146.86 L 566.26,143.92 L 567.19,140.63 L 568.00,137.91 L 568.81,134.29 L 568.96,132.33 L 568.71,130.96 L 568.43,129.08 L 567.72,128.22 L 567.08,126.97 L 566.53,125.64 L 566.21,124.54 L 566.21,123.80 L 566.36,123.07 L 566.04,122.55 L 566.61,119.08 L 566.49,118.54 L 564.93,117.49 L 563.58,117.08 L 562.53,117.02 L 560.01,117.74 L 559.83,117.37 L 558.51,116.58 L 555.21,115.45 L 553.23,114.72 L 553.25,114.21 L 550.73,112.73 L 549.50,111.99 L 548.05,111.55 L 546.76,110.74 L 545.90,110.08 L 544.98,109.93 L 544.76,109.89 L 544.24,109.34 L 542.62,108.09 L 540.90,106.58 L 539.10,110.02 L 537.55,112.87 L 537.53,113.04 L 537.40,114.28 L 537.38,114.49 L 536.87,113.50 L 536.63,113.03 L 534.91,111.07 L 532.80,108.35 L 532.60,108.11 L 530.72,105.92 L 530.12,105.31 L 528.48,103.97 L 528.45,103.74 L 528.24,102.09 L 528.84,98.90 L 532.48,91.63 L 532.56,91.03 L 532.62,90.14 L 531.74,88.72 L 531.34,87.98 L 530.68,86.44 L 529.21,84.70 L 529.34,84.18 L 528.24,83.87 L 527.13,83.72 L 525.81,83.49 L 525.63,83.83 L 524.59,85.78 L 523.16,87.19 L 522.12,87.30 L 520.75,87.42 L 519.42,87.67 L 518.58,88.16 L 518.13,87.75 L 517.69,88.52 L 511.14,94.73 L 506.46,98.83 L 503.48,102.26 L 502.11,103.58 L 502.12,103.56 L 494.15,100.89 L 492.96,95.64 L 488.75,95.56 L 483.04,95.27 L 482.11,92.88 L 481.85,91.52 L 481.56,90.76 L 480.80,89.43 L 480.30,87.82 L 479.59,86.34 L 479.15,84.84 L 477.80,85.27 L 476.33,85.57 L 474.45,85.83 L 472.24,86.01 L 470.80,86.03 L 467.03,85.56 L 459.48,84.75 L 453.22,83.97 L 455.79,69.71 L 453.78,69.25 L 454.40,65.74 L 453.20,65.32 L 448.26,64.04 L 444.54,75.47 L 442.43,75.32 L 442.68,74.30 L 442.77,72.55 L 442.71,71.47 L 442.79,68.81 L 442.67,66.23 L 442.46,64.55 L 442.42,62.94 L 442.43,61.55 L 442.07,60.92 L 441.61,60.28 L 440.85,59.74 Z" data-name="Ravensburg" data-bezirk="Ravensburg" />
	<path id="stadtteil-1" class="stadtteil-path" d="M 580.60,241.87 L 580.61,241.45 L 580.88,239.80 L 580.94,238.47 L 580.67,237.41 L 580.19,234.70 L 580.05,232.07 L 579.71,230.89 L 579.02,229.42 L 577.80,225.40 L 576.89,221.35 L 576.58,218.62 L 576.43,217.87 L 576.37,217.54 L 576.27,217.04 L 577.81,215.69 L 581.50,213.43 L 583.37,211.73 L 586.03,209.24 L 587.04,208.15 L 588.85,205.30 L 589.45,204.12 L 585.15,202.27 L 582.06,200.74 L 577.66,199.58 L 575.71,198.97 L 576.22,195.92 L 576.07,194.12 L 575.66,192.27 L 574.92,192.14 L 574.56,188.25 L 574.91,184.01 L 575.62,180.83 L 575.73,180.46 L 578.14,180.10 L 578.15,178.22 L 578.30,175.41 L 578.49,173.90 L 578.50,171.74 L 578.56,169.16 L 578.88,168.13 L 579.80,166.68 L 579.91,165.76 L 579.73,164.90 L 579.82,164.03 L 579.97,163.33 L 580.46,162.42 L 580.96,161.33 L 581.22,160.49 L 581.30,159.99 L 581.31,158.97 L 581.62,158.16 L 582.10,157.80 L 582.05,158.52 L 582.14,159.45 L 582.12,160.91 L 582.15,161.73 L 581.92,163.76 L 581.99,165.98 L 582.17,167.30 L 582.93,168.11 L 585.48,169.71 L 585.83,169.82 L 586.18,169.72 L 587.12,168.82 L 587.07,165.76 L 586.92,164.85 L 586.64,163.72 L 585.70,162.06 L 585.36,161.05 L 584.87,158.63 L 586.56,160.43 L 589.12,162.83 L 590.42,164.03 L 591.35,164.82 L 592.64,165.55 L 594.86,167.06 L 595.86,167.60 L 598.63,167.92 L 602.33,168.33 L 603.52,168.36 L 604.08,170.85 L 601.51,171.30 L 601.56,172.10 L 596.60,173.92 L 596.48,176.79 L 596.65,178.79 L 596.62,179.52 L 596.69,180.10 L 596.91,180.69 L 597.11,181.29 L 597.24,181.83 L 597.32,182.43 L 597.43,182.99 L 597.50,183.54 L 597.54,183.81 L 599.14,183.84 L 600.19,183.72 L 601.25,183.18 L 602.61,182.11 L 604.79,179.84 L 606.11,177.97 L 606.80,178.54 L 608.03,181.05 L 609.21,183.97 L 609.39,184.12 L 611.90,184.33 L 611.96,186.91 L 613.19,185.81 L 614.06,184.85 L 614.46,184.31 L 616.42,185.50 L 615.73,188.45 L 614.54,191.37 L 613.44,194.54 L 612.62,197.24 L 610.76,200.67 L 609.69,202.56 L 610.99,203.07 L 612.76,202.73 L 614.70,202.84 L 617.06,203.51 L 620.84,204.59 L 621.55,204.72 L 621.79,203.33 L 622.20,200.43 L 622.62,197.91 L 623.71,195.71 L 624.90,194.03 L 625.10,193.65 L 625.27,193.14 L 626.28,193.89 L 628.10,193.40 L 630.41,193.80 L 630.91,193.77 L 630.18,191.87 L 630.04,190.20 L 629.54,188.41 L 629.26,187.15 L 629.34,186.56 L 629.94,184.76 L 631.15,180.74 L 631.00,179.68 L 631.52,177.81 L 632.63,176.15 L 633.00,174.57 L 632.71,171.59 L 632.08,170.14 L 632.87,167.89 L 632.68,167.71 L 632.22,167.25 L 632.11,166.90 L 632.06,166.36 L 632.18,165.89 L 632.29,165.27 L 632.33,164.73 L 632.20,164.38 L 631.97,164.09 L 631.50,163.52 L 630.72,162.86 L 628.03,160.81 L 626.56,159.94 L 625.72,159.80 L 624.81,159.78 L 624.07,159.81 L 623.47,159.73 L 622.60,159.57 L 621.81,159.40 L 621.14,159.16 L 620.36,158.89 L 619.71,158.51 L 619.10,159.87 L 618.40,161.93 L 617.85,163.54 L 617.67,164.61 L 617.40,165.54 L 617.11,166.62 L 617.00,167.38 L 617.49,168.46 L 617.93,169.24 L 618.26,170.25 L 616.90,170.46 L 615.46,169.94 L 614.74,169.57 L 613.92,169.20 L 613.31,168.53 L 612.70,167.78 L 612.25,167.22 L 612.39,165.01 L 614.89,162.85 L 616.67,160.80 L 617.90,158.88 L 618.40,157.98 L 617.88,155.59 L 618.27,155.42 L 618.57,154.72 L 617.33,153.40 L 616.60,154.37 L 613.98,154.10 L 613.01,150.48 L 614.27,149.76 L 614.13,149.62 L 613.71,149.21 L 613.26,148.63 L 612.59,146.60 L 612.45,146.16 L 612.32,145.68 L 612.24,145.20 L 612.07,144.88 L 611.78,144.53 L 611.55,144.10 L 611.38,143.48 L 611.40,143.24 L 611.11,142.53 L 610.55,141.62 L 610.42,141.41 L 610.35,141.02 L 610.28,140.58 L 610.23,140.11 L 610.51,139.07 L 610.45,138.41 L 610.44,137.71 L 610.34,137.26 L 610.06,136.64 L 609.90,136.11 L 609.56,135.36 L 609.21,134.82 L 608.90,134.28 L 608.62,133.37 L 608.30,132.19 L 608.05,131.12 L 607.82,129.85 L 607.71,128.80 L 607.73,126.93 L 607.72,126.16 L 607.68,125.31 L 607.73,124.46 L 607.80,123.95 L 607.82,123.82 L 607.76,123.52 L 607.67,123.14 L 607.06,122.73 L 606.19,122.65 L 605.61,123.12 Z" data-name="Ravensburg" data-bezirk="Ravensburg" />
	<path id="stadtteil-2" class="stadtteil-path" d="M 580.60,241.87 L 580.54,243.32 L 580.82,245.20 L 580.94,245.86 L 580.32,248.01 L 578.85,253.76 L 574.52,253.67 L 574.45,259.80 L 571.63,259.67 L 567.46,259.97 L 565.62,260.47 L 563.62,261.14 L 564.61,262.23 L 566.65,264.10 L 569.58,267.15 L 571.13,269.53 L 571.83,271.18 L 572.05,271.68 L 568.19,273.98 L 566.63,273.62 L 565.25,275.12 L 563.60,277.40 L 562.05,279.92 L 560.91,281.95 L 558.61,281.16 L 558.23,279.41 L 550.88,280.12 L 549.71,280.48 L 548.89,281.20 L 548.49,282.97 L 548.48,284.25 L 548.70,285.50 L 549.12,286.79 L 549.32,288.01 L 549.21,288.53 L 548.68,290.50 L 548.22,292.75 L 548.15,294.11 L 548.24,294.98 L 548.29,295.77 L 543.38,298.79 L 543.95,299.96 L 544.55,301.85 L 544.76,303.44 L 544.63,305.44 L 543.96,308.16 L 543.36,310.03 L 542.98,310.79 L 541.62,310.12 L 538.74,314.46 L 537.20,315.33 L 532.71,318.03 L 531.22,318.85 L 529.43,318.76 L 529.21,321.37 L 527.20,321.36 L 526.63,321.99 L 526.23,323.18 L 525.43,324.20 L 524.90,325.23 L 524.75,325.63 L 524.78,326.08 L 524.92,326.86 L 525.14,328.73 L 525.16,330.91 L 524.84,334.05 L 524.73,336.40 L 524.86,339.15 L 523.42,343.33 L 522.50,345.37 L 521.98,348.56 L 520.89,353.12 L 519.90,355.20 L 520.24,356.24 L 520.58,356.70 L 520.45,356.88 Z" data-name="Ravensburg" data-bezirk="Ravensburg" />
	<path id="stadtteil-3" class="stadtteil-path" d="M 379.09,97.85 L 378.07,99.14 L 377.24,99.74 L 376.23,100.35 L 375.30,101.74 L 373.35,101.23 L 372.20,101.02 L 370.30,100.66 L 368.82,100.42 L 367.33,100.35 L 366.53,100.52 L 365.12,100.90 L 364.30,100.98 L 363.74,100.81 L 363.41,100.75 L 362.60,100.35 L 361.44,102.11 L 359.33,105.33 L 357.74,104.40 L 353.39,106.86 L 350.51,108.87 L 349.93,108.49 L 353.03,106.09 L 353.79,105.33 L 354.47,103.60 L 356.01,98.20 L 357.14,96.05 L 357.30,95.91 L 358.67,92.82 L 359.29,91.60 L 359.59,90.86 L 359.80,90.11 L 360.63,89.20 L 360.08,88.65 L 359.69,88.41 L 359.29,88.23 L 358.66,88.03 L 356.92,87.51 L 354.64,87.01 L 353.76,86.98 L 352.91,86.90 L 349.39,86.40 L 347.02,85.32 L 346.15,87.89 L 345.76,89.90 L 345.47,90.42 L 345.13,90.86 L 344.59,91.61 L 344.28,91.88 L 344.61,94.47 L 343.62,96.04 L 343.23,96.97 L 343.01,97.42 L 342.74,97.92 L 342.53,98.57 L 342.50,98.92 L 342.22,99.87 L 342.24,100.59 L 342.07,101.06 L 343.63,101.71 L 343.96,101.96 L 344.23,102.27 L 344.46,103.04 L 344.79,104.01 L 344.80,105.01 L 344.92,105.75 L 345.04,106.79 L 345.08,107.45 L 344.96,108.44 L 340.01,106.64 L 338.58,106.05 L 338.06,106.34 L 336.95,107.26 L 335.76,108.93 L 334.72,107.92 L 334.17,107.50 L 332.36,108.28 L 331.62,108.41 L 331.05,108.83 L 330.40,109.50 L 329.46,110.22 L 329.05,110.02 L 328.98,109.86 L 329.45,109.29 L 330.49,108.30 L 330.89,107.82 L 331.21,107.32 L 331.31,106.88 L 331.33,105.84 L 331.31,105.27 L 331.47,104.31 L 331.79,102.21 L 331.79,101.22 L 331.53,100.31 L 331.31,99.24 L 330.76,97.88 L 330.36,97.00 L 329.93,95.91 Z" data-name="Ravensburg" data-bezirk="Ravensburg" />
	<path id="stadtteil-4" class="stadtteil-path" d="M 440.85,59.74 L 439.93,60.53 L 438.02,61.84 L 436.55,62.82 L 435.87,63.22 L 434.73,63.62 L 435.17,64.09 L 435.46,65.09 L 435.43,66.15 L 435.19,67.05 L 435.27,68.36 L 429.94,68.29 L 429.86,69.33 L 429.69,71.99 L 429.60,73.08 L 429.33,74.16 L 429.29,75.43 L 428.84,76.67 L 428.67,78.27 L 428.84,79.54 L 430.38,79.87 L 429.71,82.02 L 428.86,84.23 L 428.39,85.82 L 428.27,87.44 L 427.57,89.68 L 427.14,92.55 L 425.44,96.82 L 425.18,96.67 L 424.86,95.57 L 424.48,95.31 L 423.89,95.07 L 422.95,95.21 L 421.51,95.85 L 419.26,95.70 L 419.21,95.77 L 415.55,101.99 L 409.07,98.48 L 406.76,101.05 L 405.95,100.31 L 404.64,99.47 L 399.72,102.18 L 398.06,100.24 L 393.74,103.97 L 386.91,95.43 L 381.52,92.19 L 380.84,93.86 L 379.99,95.84 L 379.09,97.85 Z" data-name="Ravensburg" data-bezirk="Ravensburg" />
	<path id="stadtteil-5" class="stadtteil-path" d="M 341.90,222.68 L 343.51,220.36 L 344.04,219.77 L 344.52,218.67 L 345.20,216.32 L 346.30,216.13 L 347.21,214.48 L 347.76,213.75 L 349.44,207.32 L 351.57,202.37 L 359.07,204.98 L 362.28,205.94 L 362.66,206.24 L 364.54,206.87 L 369.81,209.14 L 372.56,205.58 L 373.88,203.70 L 374.40,202.76 L 376.12,203.48 L 378.70,204.57 L 380.28,200.22 L 382.56,201.24 L 392.07,205.51 L 389.51,209.33 L 388.21,211.52 L 387.24,213.56 L 382.05,226.91 L 386.16,227.30 L 390.29,226.86 L 392.79,225.37 L 393.07,224.47 L 397.14,225.50 L 400.54,233.22 L 401.89,235.67 L 402.32,234.71 L 408.47,241.62 L 409.87,242.42 L 421.92,251.90 L 430.37,258.09 L 434.21,261.22 L 432.58,265.09 L 431.90,266.26 L 431.39,267.46 L 433.53,268.35 L 433.47,269.09 L 435.98,270.06 L 434.95,271.64 L 436.08,272.39 L 435.64,272.76 L 436.29,273.18 L 435.91,273.79 L 435.66,274.67 L 436.88,275.09 L 437.62,274.60 L 438.71,275.11 L 440.83,275.80 L 443.68,277.80 L 443.77,278.02 L 446.06,278.98 L 448.77,279.73 L 449.33,280.08 L 451.84,281.15 L 453.05,281.40 L 452.96,284.27 L 459.85,285.99 L 461.91,280.04 L 463.55,279.48 L 463.91,277.83 L 464.24,274.54 Z" data-name="Eschach" data-bezirk="Eschach" />
	<path id="stadtteil-6" class="stadtteil-path" d="M 464.24,274.54 L 465.25,274.67 L 468.65,275.66 L 468.35,276.62 L 469.54,277.36 L 482.95,283.27 L 483.91,283.37 L 484.04,282.65 L 487.43,282.69 L 489.96,286.08 L 490.37,286.24 L 490.35,287.09 L 491.25,291.02 L 493.50,299.04 L 494.22,300.37 L 497.13,303.58 L 497.87,304.69 L 498.74,307.54 L 499.20,309.70 L 499.92,312.29 L 501.45,317.23 L 502.11,320.57 L 502.14,323.37 L 504.35,323.16 L 505.31,325.92 L 507.26,329.57 L 506.84,331.58 Z" data-name="Eschach" data-bezirk="Eschach" />
	<path id="stadtteil-7" class="stadtteil-path" d="M 506.84,331.58 L 507.89,331.86 L 511.09,333.26 L 513.17,333.51 L 513.19,330.81 L 513.44,327.43 L 514.06,325.90 L 514.14,324.11 L 513.97,322.49 L 514.09,321.39 L 513.94,319.98 L 513.97,316.17 L 515.57,316.30 L 517.77,327.77 L 516.79,334.97 L 514.71,335.29 L 514.58,338.40 L 514.56,338.98 L 514.33,340.36 L 513.58,342.65 L 516.64,342.58 L 516.57,342.99 L 516.71,343.51 L 517.33,344.81 L 517.41,346.12 L 517.17,346.75 L 515.51,348.91 L 514.03,352.52 L 517.32,355.03 L 520.45,356.88 Z" data-name="Eschach" data-bezirk="Eschach" />
	<path id="stadtteil-8" class="stadtteil-path" d="M 520.45,356.88 L 521.42,357.51 L 522.18,357.42 L 525.87,366.15 L 527.94,365.05 L 528.19,364.90 L 532.07,368.70 L 533.16,369.42 L 534.75,369.77 L 538.50,369.96 L 539.46,369.79 L 540.38,370.80 L 541.20,372.66 L 541.39,373.69 L 542.23,376.04 L 542.65,377.39 L 542.97,378.70 L 543.10,379.17 L 543.24,379.70 L 546.23,379.50 L 548.72,379.22 L 550.29,378.84 L 551.08,378.41 L 551.47,378.22 L 552.70,377.99 L 554.19,378.15 L 555.06,378.18 L 555.08,379.47 L 557.09,379.09 L 558.58,378.57 L 560.03,378.01 L 561.47,377.73 L 563.45,377.63 L 564.40,377.68 L 563.60,380.22 L 562.49,382.12 L 562.03,383.28 L 561.71,383.78 L 561.63,384.35 L 561.74,384.99 L 562.18,386.34 L 562.92,391.09 L 559.82,392.85 L 555.72,395.21 L 554.35,395.88 L 552.56,397.49 L 548.86,401.46 L 548.54,402.21 L 548.34,402.92 L 548.40,403.80 L 548.60,404.76 L 548.85,405.53 L 549.14,406.28 L 549.29,406.56 L 549.88,407.51 L 548.40,409.49 L 547.87,410.41 L 547.13,410.98 L 546.37,411.59 L 543.90,412.86 L 544.86,414.43 L 545.93,416.37 L 548.56,415.52 L 550.15,414.78 L 551.31,414.37 L 552.23,414.25 L 553.35,414.51 L 554.38,415.21 L 556.38,415.86 L 556.57,417.25 L 556.56,418.23 L 557.30,420.04 L 557.82,421.01 L 560.20,421.62 L 560.33,423.05 L 560.55,424.58 L 559.91,424.91 L 559.32,425.48 L 559.83,426.99 L 559.47,427.39 L 557.94,428.48 L 555.67,430.04 L 553.28,431.39 L 552.60,431.86 L 552.06,436.14 L 557.78,435.71 L 564.25,435.37 L 564.49,436.58 L 566.79,437.52 L 568.87,438.04 L 569.44,438.17 L 569.42,439.42 L 569.65,440.67 L 569.76,441.54 L 569.53,442.99 L 569.19,443.68 L 568.02,444.68 L 566.32,445.42 L 565.98,445.96 L 566.05,446.82 L 566.17,451.25 L 565.79,451.74 L 564.54,452.49 L 563.64,453.57 L 562.60,455.28 L 560.85,457.86 L 559.80,458.88 L 558.50,459.21 L 557.29,459.18 L 556.96,459.87 L 557.09,460.52 L 557.41,461.36 L 558.31,462.38 L 559.72,464.09 L 560.09,464.94 L 560.41,467.14 L 561.00,473.23 L 561.03,473.41 L 554.78,473.60 L 554.45,469.30 L 554.40,468.91 L 553.94,467.40 L 548.10,468.77 L 546.63,475.10 L 547.27,477.15 L 548.08,479.58 L 548.42,480.73 L 545.74,481.78 L 540.16,482.87 L 540.50,480.50 L 538.38,479.11 L 536.30,481.08 L 535.49,481.80 L 535.02,481.65 L 533.88,480.62 L 532.47,479.24 L 531.94,478.59 L 531.34,477.87 L 530.72,477.33 L 529.61,476.84 L 528.70,476.53 L 528.36,476.94 L 527.56,478.56 L 525.78,482.41 L 521.18,491.42 L 520.94,492.82 L 520.94,494.61 L 521.18,496.03 L 522.35,496.05 L 524.08,496.37 L 525.09,496.52 L 526.66,496.74 L 527.27,496.28 L 528.44,497.21 L 529.51,498.43 L 530.13,499.67 L 530.37,500.09 L 531.78,499.92 L 533.19,499.53 L 533.68,499.05 L 536.22,495.23 L 538.11,496.31 L 539.23,497.34 L 539.48,497.84 L 539.80,498.75 L 539.90,500.02 L 539.55,502.58 L 535.90,504.86 L 535.45,505.47 L 534.79,507.06 L 534.94,507.62 L 537.90,510.38 L 539.08,507.83 L 539.95,506.59 L 540.62,506.63 L 541.22,505.89 L 542.62,504.40 L 544.11,502.82 L 545.19,501.03 L 546.27,499.14 L 547.38,500.62 L 548.87,502.68 L 549.67,504.31 L 549.80,504.98 L 550.99,505.92 L 554.47,509.45 L 555.99,509.24 L 558.13,510.88 L 559.85,510.05 L 559.25,508.84 L 560.13,508.22 L 560.99,509.49 L 563.62,507.34 L 563.93,506.78 L 564.58,505.96 L 565.33,504.82 L 565.90,505.27 L 565.26,507.43 L 564.50,508.15 L 563.11,509.14 L 561.61,510.51 L 561.36,510.70 L 561.73,511.02 L 564.19,512.92 L 566.27,514.53 L 567.18,516.59 L 568.41,518.70 L 568.62,519.13 L 567.67,520.20 L 566.93,522.04 L 566.37,523.31 L 565.89,524.31 L 566.32,526.09 L 566.44,528.26 L 566.34,530.79 L 565.61,533.24 L 564.27,536.15 L 564.18,536.33 L 565.98,536.40 L 567.58,537.29 L 570.64,538.67 L 571.93,539.40 L 573.60,542.61 L 573.72,542.82 L 579.53,537.22 L 579.91,536.33 L 582.90,534.67 L 584.34,536.63 L 585.51,538.22 L 587.41,540.52 L 588.79,539.49 L 590.62,542.01 L 591.05,542.89 L 596.55,541.12 L 599.86,540.38 L 603.14,539.99 Z" data-name="Eschach" data-bezirk="Eschach" />
	<path id="stadtteil-9" class="stadtteil-path" d="M 602.99,577.13 L 601.17,575.04 L 598.32,571.61 L 597.47,570.74 L 597.11,569.72 L 597.03,567.72 L 597.00,565.86 L 596.70,564.05 L 595.96,562.61 L 594.79,560.78 L 593.72,559.65 L 592.54,558.77 L 592.72,558.36 L 593.38,558.34 L 596.04,558.30 L 598.05,557.71 L 600.33,556.98 L 602.84,556.11 L 602.88,555.10 L 603.02,551.29 L 603.12,547.20 L 603.14,539.99 Z" data-name="Eschach" data-bezirk="Eschach" />
	<path id="stadtteil-10" class="stadtteil-path" d="M 506.93,599.35 L 507.64,599.69 L 508.06,599.78 L 508.50,599.94 L 508.98,600.00 L 509.71,599.71 L 511.52,598.31 L 513.04,597.21 L 513.74,596.60 L 514.31,596.42 L 515.01,596.23 L 516.13,596.11 L 516.77,596.06 L 517.07,592.10 L 517.15,590.96 L 517.23,589.58 L 517.28,589.21 L 518.14,588.25 L 518.50,588.05 L 519.32,588.06 L 519.86,588.33 L 520.23,588.36 L 520.62,588.21 L 521.03,588.02 L 521.60,587.81 L 521.60,587.04 L 521.78,586.36 L 522.17,585.61 L 522.43,585.12 L 522.52,584.36 L 522.60,584.04 L 522.81,583.69 L 523.45,583.42 L 524.06,583.45 L 524.77,583.61 L 525.59,583.58 L 526.34,583.25 L 526.72,582.90 L 527.69,582.37 L 529.02,581.49 L 530.53,581.01 L 531.65,580.70 L 532.81,580.52 L 534.85,580.50 L 538.12,580.70 L 545.86,580.96 L 552.41,581.15 L 554.02,581.27 L 554.95,581.10 L 555.56,581.03 L 556.86,580.66 L 569.17,591.83 L 571.66,594.09 L 578.51,590.14 L 580.54,592.59 L 580.76,592.57 L 580.30,590.08 L 580.08,588.32 L 579.89,585.86 L 581.12,585.64 L 587.78,584.38 L 592.43,583.68 L 592.53,583.67 L 596.57,583.08 L 597.19,582.99 L 599.50,580.66 L 602.99,577.13 Z" data-name="Eschach" data-bezirk="Eschach" />
	<path id="stadtteil-11" class="stadtteil-path" d="M 271.91,434.48 L 272.16,434.76 L 272.21,436.24 L 273.00,437.06 L 274.60,438.61 L 275.27,439.16 L 275.46,439.70 L 279.06,438.92 L 280.73,442.00 L 285.27,440.26 L 286.65,438.39 L 288.58,435.73 L 291.53,431.58 L 297.43,423.39 L 295.25,421.01 L 293.10,419.59 L 290.90,418.82 L 291.79,416.09 L 293.33,416.12 L 295.29,416.46 L 296.81,416.96 L 298.02,417.41 L 298.78,416.48 L 299.67,415.51 L 300.27,415.10 L 300.60,414.36 L 301.07,413.66 L 301.79,413.45 L 302.45,413.62 L 303.42,414.61 L 304.50,414.14 L 304.92,414.71 L 306.00,415.18 L 306.77,415.90 L 308.07,416.18 L 309.52,417.19 L 310.29,418.47 L 310.59,419.55 L 311.27,420.72 L 312.05,420.60 L 312.38,420.83 L 312.69,421.35 L 313.61,422.41 L 313.94,423.27 L 314.77,423.94 L 314.75,424.39 L 315.41,424.68 L 316.45,425.60 L 316.12,427.77 L 318.47,427.94 L 322.51,426.60 L 324.02,426.90 L 331.23,429.62 L 330.61,431.51 L 334.16,432.88 L 335.18,433.56 L 336.16,434.42 L 336.82,435.57 L 337.11,436.28 L 338.09,437.49 L 337.53,437.69 L 336.33,437.83 L 336.10,438.12 L 336.01,438.79 L 336.11,439.42 L 336.30,439.87 L 336.79,440.45 L 337.96,443.58 L 339.84,448.31 L 341.91,445.94 L 343.30,444.36 L 344.04,444.39 L 345.23,444.44 L 346.30,445.58 L 348.34,447.74 L 351.36,449.82 L 354.67,451.69 L 356.97,452.58 L 362.36,455.07 L 363.88,455.79 L 364.83,456.61 L 366.95,460.39 L 365.57,460.94 L 366.57,461.91 L 367.86,463.52 L 369.53,465.54 L 370.37,467.18 L 371.16,467.54 L 371.72,467.95 L 371.85,468.22 L 371.93,468.77 L 373.34,469.34 L 372.87,467.62 L 377.33,467.05 L 376.97,466.39 L 381.36,465.66 L 385.18,466.53 L 384.80,469.47 L 385.49,470.30 L 386.83,471.07 L 387.27,471.09 L 387.70,471.15 L 388.82,470.89 L 390.13,469.71 L 391.48,468.39 L 393.85,465.65 L 401.22,467.80 L 403.03,470.71 L 405.13,473.01 L 408.72,476.92 L 413.15,480.18 L 416.33,482.39 L 418.65,484.30 L 414.55,485.57 L 415.26,487.77 L 412.85,488.81 L 413.15,489.18 L 411.52,490.14 L 413.27,491.57 L 414.73,492.17 L 415.40,492.70 L 415.58,493.28 L 415.84,494.06 L 416.17,494.70 L 416.64,495.20 L 417.40,495.69 L 418.52,496.53 L 419.28,497.59 L 419.73,499.97 L 424.41,495.24 L 424.96,495.98 L 425.18,496.28 L 425.80,497.30 L 426.27,497.81 L 426.86,498.38 L 427.89,498.99 L 430.07,499.60 L 431.16,499.89 L 432.14,499.92 L 433.00,499.74 L 433.57,499.68 L 434.41,499.79 L 434.95,500.22 L 435.20,500.65 L 435.69,501.64 L 435.78,501.99 L 436.25,502.52 L 436.84,502.79 L 437.48,502.65 L 438.30,502.37 L 438.79,502.35 L 439.21,502.47 L 439.47,502.73 L 439.72,503.39 L 440.07,504.24 L 440.38,505.01 L 441.01,505.77 L 442.14,506.65 L 443.29,507.57 L 444.37,508.51 L 444.94,509.05 L 445.31,509.08 L 445.83,508.93 L 447.76,508.53 L 448.65,508.53 L 449.39,508.94 L 449.48,509.49 L 449.27,509.94 L 448.73,510.16 L 448.02,510.67 L 448.21,511.28 L 448.67,512.05 L 449.41,512.96 L 450.68,513.83 L 451.62,514.40 L 452.35,515.34 L 452.92,515.96 L 454.09,516.59 L 454.84,517.20 L 455.88,518.55 L 457.27,519.91 L 458.46,520.97 L 459.45,521.76 L 459.85,522.26 L 460.41,522.71 L 461.14,522.74 L 462.17,522.38 L 462.55,522.71 L 463.03,523.69 L 463.55,524.99 L 463.59,525.85 L 462.86,526.71 L 462.50,527.22 L 462.49,527.51 L 462.79,527.88 L 463.33,528.15 L 463.61,528.59 L 463.63,529.25 L 462.98,529.18 L 460.18,528.88 L 457.81,528.60 L 457.62,530.20 L 456.35,533.68 L 456.45,535.77 L 456.32,536.39 L 455.79,538.25 L 455.31,541.11 L 455.03,541.92 L 456.07,543.53 L 456.42,544.67 L 456.32,545.77 L 456.19,546.66 L 456.16,547.20 L 456.41,547.65 L 456.65,547.86 L 457.84,545.77 L 458.72,544.54 L 459.38,543.74 L 460.05,543.44 L 461.10,543.24 L 461.57,545.41 L 461.71,546.75 L 462.27,546.78 L 462.58,546.91 L 462.96,548.36 L 463.55,549.97 L 463.80,550.90 L 463.75,551.48 L 463.62,551.89 L 467.22,550.34 L 469.43,548.64 L 471.16,547.71 L 472.81,546.78 L 473.73,546.78 L 474.54,547.19 L 475.72,547.55 L 476.41,547.44 L 477.48,547.53 L 478.17,547.60 L 479.73,548.56 L 483.13,547.52 L 483.84,546.46 L 484.17,547.87 L 484.23,548.77 L 483.89,549.87 L 483.53,550.71 L 483.37,551.22 L 483.44,551.80 L 482.31,552.05 L 482.23,558.99 L 482.22,561.09 L 487.15,563.69 L 487.60,563.84 L 487.77,563.94 L 488.03,564.33 L 488.35,565.24 L 488.79,566.02 L 489.31,566.90 L 489.71,567.42 L 490.40,568.32 L 490.66,568.76 L 490.80,569.26 L 490.73,569.79 L 494.42,572.20 L 494.55,574.86 L 494.78,579.51 L 494.80,580.01 L 495.11,583.43 L 495.91,586.87 L 496.90,589.73 L 491.97,590.44 L 491.88,592.38 L 492.08,593.68 L 492.80,595.05 L 493.69,596.44 L 494.69,597.36 L 494.97,597.53 L 495.70,597.97 L 497.12,598.44 L 499.31,599.04 L 503.43,598.94 L 505.10,598.86 L 506.37,599.03 L 506.93,599.35 Z" data-name="Eschach" data-bezirk="Eschach" />
	<path id="stadtteil-12" class="stadtteil-path" d="M 271.91,434.48 L 272.85,431.85 L 273.12,430.63 L 273.20,428.80 L 272.15,420.30 L 272.84,416.61 L 273.85,414.68 L 274.21,413.37 L 273.96,410.66 L 274.05,408.29 L 274.38,406.20 L 274.17,405.17 L 273.61,404.30 L 272.20,402.92 L 271.25,401.79 L 271.23,401.34 L 271.44,400.95 L 274.41,398.64 L 275.61,397.40 L 276.58,395.93 L 276.73,395.00 L 276.69,390.94 L 275.84,389.46 L 274.76,388.32 L 274.52,387.44 L 274.55,386.56 L 275.06,384.20 L 275.36,379.90 L 275.72,377.01 L 275.96,376.05 L 276.36,374.60 L 278.92,367.44 L 279.52,366.35 L 280.21,365.49 L 281.59,364.25 L 282.84,363.58 L 284.41,363.17 L 285.75,363.16 L 286.98,363.44 L 288.17,363.99 L 288.93,364.51 L 291.86,367.04 L 292.89,367.60 L 294.13,368.08 L 295.86,368.35 L 297.94,368.20 L 298.98,367.91 L 300.08,367.44 Z" data-name="Eschach" data-bezirk="Eschach" />
	<path id="stadtteil-13" class="stadtteil-path" d="M 300.08,367.44 L 308.60,366.73 L 309.35,366.54 L 309.84,366.61 L 310.36,366.30 L 310.60,367.06 L 312.69,365.55 L 317.18,360.79 L 319.92,359.01 L 320.01,358.21 L 322.55,357.14 L 323.90,357.37 L 329.47,354.52 L 332.30,353.46 L 333.38,352.51 L 335.11,350.33 L 334.13,349.82 L 334.99,345.46 Z" data-name="Eschach" data-bezirk="Eschach" />
	<path id="stadtteil-14" class="stadtteil-path" d="M 334.99,345.46 L 340.01,347.21 L 341.91,347.69 L 342.55,347.85 L 345.53,348.16 L 348.52,348.03 L 351.09,347.54 L 354.46,346.29 L 357.26,344.83 L 361.37,342.47 L 364.19,340.44 L 365.95,338.76 L 367.69,336.59 L 369.14,333.97 L 370.63,330.13 L 375.09,316.20 L 375.60,314.26 L 375.95,312.23 L 376.05,309.76 L 375.90,307.77 L 375.25,304.65 L 374.54,302.68 L 373.65,300.79 L 372.40,298.76 L 371.46,297.50 L 363.30,288.52 L 362.62,287.48 L 361.97,286.13 L 361.30,285.21 L 360.65,284.52 L 358.27,282.67 L 357.33,281.74 L 356.40,280.38 L 356.00,279.22 L 355.87,277.28 L 356.37,273.15 L 357.37,271.01 L 357.30,270.87 L 355.61,270.43 L 355.04,269.99 L 352.14,270.10 L 351.99,267.54 L 352.19,265.40 Z" data-name="Eschach" data-bezirk="Eschach" />
	<path id="stadtteil-15" class="stadtteil-path" d="M 352.19,265.40 L 352.63,264.13 L 353.10,261.67 L 356.10,253.40 L 353.54,253.52 L 351.71,254.00 L 350.85,254.44 L 350.04,253.79 L 349.01,251.03 L 349.27,250.07 L 349.70,249.28 L 348.17,248.76 L 345.94,248.24 L 345.63,247.76 L 346.84,245.62 L 346.78,243.60 L 346.25,242.11 L 344.18,241.96 L 342.90,243.04 L 341.20,243.56 L 341.21,243.42 L 339.43,241.57 L 337.01,240.61 L 335.44,238.71 L 335.93,236.93 L 336.64,235.49 L 336.38,234.83 L 337.19,234.31 L 338.22,230.75 L 337.97,230.48 L 338.76,228.33 L 339.71,226.28 L 341.90,222.68 Z" data-name="Eschach" data-bezirk="Eschach" />
	<path id="stadtteil-16" class="stadtteil-path" d="M 262.88,213.40 L 262.44,213.66 L 262.09,214.08 L 261.20,214.13 L 259.99,215.17 L 259.68,215.20 L 259.29,215.04 L 258.55,214.15 L 257.96,213.88 L 257.29,213.82 L 256.71,213.94 L 256.08,214.48 L 255.85,214.53 L 254.97,213.94 L 257.67,212.55 L 257.89,211.83 L 258.71,211.58 L 259.82,210.59 L 260.99,208.30 L 261.95,206.02 L 262.88,204.67 L 264.05,203.50 L 263.76,203.13 L 263.31,203.05 L 263.08,202.67 L 262.78,202.71 L 262.58,202.54 L 262.50,202.31 L 262.67,202.14 L 262.53,201.42 L 262.56,201.11 L 262.78,200.73 L 262.37,200.52 L 262.14,200.14 L 262.16,199.93 L 262.46,199.52 L 261.77,199.20 L 261.52,198.60 L 261.54,197.24 L 261.92,196.95 L 262.15,197.01 L 262.48,196.85 L 262.97,196.42 L 263.50,196.31 L 263.69,195.94 L 263.55,195.59 L 263.65,195.20 L 263.95,195.03 L 264.24,194.47 L 264.60,194.32 L 264.84,193.88 L 265.65,193.46 L 266.27,192.47 L 266.52,191.79 L 273.97,185.69 L 271.47,184.90 L 271.39,184.29 L 269.89,178.86 L 267.53,176.28 L 269.61,171.29 L 271.11,171.19 L 281.44,175.10 L 285.58,171.26 L 287.88,172.23 L 289.77,168.91 L 290.18,168.52 L 291.94,169.29 L 291.52,167.52 L 291.14,166.46 L 290.42,165.28 L 288.69,163.22 L 285.73,160.23 L 283.34,158.47 L 283.43,158.35 L 285.40,158.81 L 286.20,158.71 L 286.82,159.07 L 288.08,158.40 L 286.72,158.11 L 284.73,157.47 L 283.65,157.00 L 280.66,155.38 L 279.34,154.83 L 274.09,153.74 L 273.39,154.72 L 272.55,154.32 L 268.69,151.64 L 268.96,151.46 L 269.74,151.26 L 270.00,151.30 L 270.43,151.66 L 270.56,151.66 L 271.09,151.28 L 271.73,150.37 L 272.02,150.25 L 273.57,150.10 L 275.02,150.38 L 276.44,151.35 L 277.74,151.96 L 279.91,152.31 L 281.07,151.83 L 282.72,151.79 L 282.97,151.65 L 284.98,151.37 L 285.97,150.79 L 287.49,150.27 L 287.99,149.61 L 288.13,149.10 L 288.67,148.70 L 291.25,148.02 L 291.73,147.67 L 292.94,147.14 L 293.55,146.57 L 293.83,146.47 L 294.35,146.54 L 295.18,146.90 L 296.64,148.20 L 297.77,149.62 L 298.56,150.35 L 300.87,151.23 L 301.63,151.66 L 302.29,151.85 L 302.97,151.81 L 304.50,151.35 L 308.38,150.59 L 309.43,150.06 L 311.44,150.37 L 312.09,150.57 L 311.28,146.39 L 313.30,142.71 L 314.24,139.62 L 314.88,137.87 L 315.25,135.48 L 316.50,131.73 L 320.00,127.30 L 320.66,125.76 L 321.59,124.05 L 323.33,122.41 L 324.21,121.25 L 325.86,118.56 L 326.06,118.15 L 324.86,118.30 L 324.50,118.20 L 327.84,112.47 L 328.37,110.25 L 325.94,108.37 L 324.21,107.25 L 323.78,106.47 L 323.45,106.18 L 319.45,103.45 L 320.56,101.66 L 321.53,101.14 L 323.68,100.70 L 326.10,99.03 L 328.19,97.23 L 329.93,95.91 Z" data-name="Schmalegg" data-bezirk="Schmalegg" />
	<path id="stadtteil-17" class="stadtteil-path" d="M 329.93,95.91 L 327.74,94.63 L 327.76,92.89 L 326.66,86.54 L 326.67,85.75 L 325.97,84.28 L 325.15,82.64 L 325.03,82.35 L 324.00,80.97 L 322.93,81.34 L 322.47,81.10 L 322.01,80.86 L 321.20,78.86 L 321.09,78.20 L 321.65,76.54 L 321.57,76.50 L 322.26,75.16 L 322.69,74.31 L 324.75,73.48 L 327.25,72.58 L 328.42,71.66 L 329.87,70.42 L 330.78,69.39 L 332.34,67.09 L 334.62,64.39 L 333.52,62.79 L 331.55,64.05 L 330.79,64.28 L 327.96,64.30 L 329.82,61.72 L 331.66,59.54 L 333.09,57.89 L 333.58,57.25 L 333.92,56.66 L 333.47,56.33 L 332.16,55.59 L 331.56,55.36 L 331.15,55.08 L 330.88,54.67 L 330.55,54.15 L 330.22,53.54 L 329.66,53.02 L 328.89,52.25 L 328.21,51.67 L 326.78,50.62 L 325.19,49.47 L 324.35,49.58 L 323.97,49.57 L 323.52,49.44 L 322.98,49.18 L 322.55,48.60 L 323.77,47.64 L 323.86,46.62 L 324.19,46.60 L 324.57,46.41 L 325.08,46.12 L 325.43,45.56 L 325.74,45.16 L 325.85,44.83 L 325.91,44.44 L 326.10,43.87 L 326.38,43.21 L 326.79,42.81 L 327.11,42.45 L 327.51,42.01 L 327.28,41.48 L 328.01,40.63 L 328.59,40.21 L 329.13,39.98 L 329.64,39.41 L 329.99,38.86 L 330.19,38.49 L 330.44,38.16 L 330.70,37.74 L 331.07,37.48 L 330.73,34.40 L 330.36,31.39 L 330.06,28.99 L 329.77,28.20 L 329.12,25.89 L 327.12,26.60 L 325.39,27.28 L 324.98,27.44 L 322.30,28.40 L 321.59,28.55 L 320.18,28.73 L 319.98,28.72 L 319.23,28.73 L 319.27,28.25 L 319.48,27.41 L 320.11,26.37 L 320.76,25.04 L 320.17,25.63 L 319.40,26.36 L 318.84,26.69 L 318.13,27.14 L 316.98,27.53 L 315.74,27.99 L 314.25,28.47 L 313.29,28.89 L 312.82,29.14 L 312.44,29.62 L 312.02,30.31 L 311.54,30.63 L 310.99,30.62 L 310.57,30.30 L 310.37,29.52 L 310.22,28.78 L 310.15,27.75 L 309.79,26.94 L 309.37,26.38 L 308.88,25.87 L 308.39,25.68 L 308.04,25.63 L 307.41,25.64 L 306.60,25.84 L 305.82,26.18 L 305.29,26.49 L 304.37,26.97 L 303.64,27.17 L 302.88,27.22 L 302.06,27.11 L 301.02,26.90 L 301.26,27.44 L 301.57,28.34 L 302.14,29.36 L 302.44,30.99 L 300.24,31.77 L 299.58,32.00 L 298.93,32.08 L 298.28,32.16 L 297.53,32.06 L 296.82,31.87 L 296.09,31.57 L 295.38,31.18 L 294.64,30.75 L 293.91,30.24 L 293.65,30.15 L 293.32,30.46 L 293.07,30.71 L 292.61,30.74 L 291.95,30.69 L 291.30,30.62 L 290.43,30.74 L 289.83,30.85 L 288.47,30.85 L 287.61,28.07 L 286.90,28.51 L 286.59,28.83 L 286.17,29.38 L 285.64,30.08 L 284.97,30.60 L 284.26,30.85 L 283.50,31.08 L 283.18,31.38 L 282.58,31.97 L 281.53,32.66 L 280.90,31.10 L 279.81,28.33 L 278.41,27.86 L 274.55,27.65 L 273.11,25.81 L 272.46,25.00 L 272.30,24.39 L 272.21,23.41 L 272.09,22.70 L 271.55,22.16 L 271.13,21.92 L 270.48,21.88 L 269.97,21.93 L 269.50,22.08 L 269.03,22.48 L 268.54,23.09 L 268.02,23.65 L 267.51,24.03 L 266.93,24.12 L 266.21,24.00 L 265.85,23.76 L 265.36,23.08 L 264.85,22.17 L 264.33,20.88 L 265.23,18.06 L 263.51,16.59 L 262.10,15.45 L 260.99,14.52 L 260.56,14.30 L 259.59,14.50 L 258.98,14.50 L 258.48,14.19 L 258.03,13.16 L 257.75,12.04 L 257.61,11.06 L 257.50,10.11 L 257.42,7.31 L 254.21,5.84 L 253.78,7.11 L 253.48,7.77 L 253.08,8.31 L 252.35,8.91 L 251.42,9.64 L 250.42,10.35 L 249.66,10.85 L 248.71,10.96 L 247.86,10.86 L 246.74,10.84 L 245.81,11.04 L 245.15,11.55 L 244.62,12.03 L 244.16,12.69 L 243.53,13.59 L 242.94,14.26 L 242.28,13.86 L 241.57,13.16 L 241.22,12.61 L 241.15,11.85 L 241.36,10.96 L 241.39,10.01 L 241.22,8.97 L 240.86,8.37 L 240.19,7.59 L 239.22,6.77 L 238.14,6.03 L 236.20,4.75 L 234.80,4.05 L 233.61,3.66 L 232.16,3.44 L 231.21,3.44 L 229.88,3.53 L 229.21,3.76 L 228.38,4.21 L 227.48,4.62 L 226.39,5.09 L 224.71,5.42 L 223.84,5.15 L 222.90,5.08 L 221.98,5.26 L 221.02,5.55 L 220.14,5.84 L 219.26,6.24 L 218.03,6.38 L 216.49,6.36 L 215.37,6.34 L 214.61,6.05 L 214.09,5.50 L 213.59,4.74 L 213.06,4.43 L 212.49,4.37 L 210.92,4.72 L 209.74,5.10 L 208.54,5.63 L 207.23,6.09 L 206.67,6.02 L 206.00,5.79 L 205.28,5.39 L 204.34,5.40 L 204.92,7.81 L 206.16,12.72 L 206.93,16.30 L 207.33,18.10 L 206.40,18.13 L 205.82,18.18 L 204.59,18.22 L 203.31,18.25 L 201.99,18.28 L 201.55,18.24 L 201.16,18.34 L 200.78,18.46 L 200.33,18.67 L 199.90,18.92 L 199.46,19.20 L 199.03,19.35 L 198.27,19.58 L 197.74,19.63 L 197.32,19.76 L 197.02,19.86 L 196.45,20.25 L 195.77,20.60 L 194.87,20.93 L 193.78,21.32 L 192.90,21.82 L 192.10,22.34 L 191.50,22.63 L 191.05,22.78 L 190.38,22.78 L 189.76,22.69 L 189.13,22.50 L 188.70,22.38 L 188.46,22.40 L 188.24,22.52 L 187.77,22.76 L 187.30,23.07 L 186.61,23.37 L 185.63,23.71 L 184.09,24.22 L 182.04,24.75 L 180.66,25.02 L 179.87,25.05 L 178.88,24.94 L 178.18,24.88 L 177.52,24.88 L 176.88,24.78 L 176.07,24.57 L 175.41,24.08 L 175.01,23.88 L 174.42,23.62 L 173.87,23.40 L 173.27,22.81 L 173.19,22.27 L 172.72,21.10 L 172.85,20.12 L 172.35,19.09 L 171.64,17.92 L 170.92,16.51 L 170.32,15.02 L 170.00,14.31 L 169.82,13.79 L 169.50,12.40 L 169.37,10.97 L 169.62,9.41 L 170.16,7.54 Z" data-name="Schmalegg" data-bezirk="Schmalegg" />
	<path id="stadtteil-18" class="stadtteil-path" d="M 170.16,7.54 L 169.90,6.37 L 169.62,5.62 L 169.19,4.83 L 168.62,4.23 L 168.01,3.71 L 167.53,3.11 L 167.10,2.71 L 166.50,2.36 L 165.69,2.19 L 165.26,2.02 L 164.49,1.89 L 163.79,1.90 L 162.83,1.96 L 161.59,1.97 L 160.63,2.06 L 159.27,2.12 L 158.13,2.19 L 156.66,2.17 L 155.53,2.13 L 154.55,2.03 L 153.63,1.84 L 152.87,1.54 L 152.17,1.10 L 151.70,0.68 L 152.01,4.41 L 152.42,8.70 L 152.76,12.44 L 152.85,14.20 L 151.22,15.93 L 150.96,16.11 L 149.03,12.64 L 147.94,10.76 L 146.95,9.20 L 145.82,7.72 L 144.71,6.40 L 143.63,5.55 L 142.42,4.89 L 141.12,4.36 L 140.63,4.13 L 139.87,6.68 L 139.49,7.55 L 138.65,8.77 L 137.73,9.87 L 136.48,11.29 L 134.28,13.34 L 132.43,15.45 L 131.78,15.03 L 130.82,14.31 L 129.52,13.17 L 127.25,11.36 L 125.57,12.06 L 122.93,7.65 L 122.62,7.15 L 123.86,4.37 L 120.73,0.00 L 117.49,1.66 L 114.49,3.02 L 113.65,3.45 L 113.89,4.01 L 114.18,4.66 L 114.45,5.31 L 114.71,6.00 L 114.69,6.61 L 114.55,7.32 L 114.57,8.00 L 114.64,8.57 L 114.73,9.13 L 114.85,9.88 L 114.93,10.31 L 114.95,10.83 L 115.13,11.44 L 115.38,11.80 L 115.76,12.13 L 116.23,12.67 L 116.58,13.08 L 116.84,13.68 L 116.93,14.18 L 117.02,14.76 L 117.27,15.31 L 117.67,15.87 L 117.86,16.64 L 117.99,17.31 L 117.92,17.79 L 118.22,18.58 L 118.68,19.02 L 119.18,19.25 L 119.63,19.44 L 120.35,19.79 L 121.06,20.31 L 121.89,20.88 L 122.65,21.27 L 123.36,21.88 L 124.10,22.43 L 124.94,23.51 L 125.15,24.01 L 125.55,24.40 L 126.46,24.59 L 124.90,27.58 L 126.52,28.20 L 128.37,27.92 L 129.38,28.84 L 128.31,29.61 L 126.83,29.97 L 125.86,32.42 L 126.16,33.25 L 126.16,34.41 L 126.74,35.53 L 125.81,35.84 L 125.24,36.14 L 124.91,36.51 L 124.62,36.92 L 124.26,37.59 L 123.74,37.90 L 123.17,38.28 L 122.62,38.74 L 122.22,39.21 L 121.83,39.56 L 121.11,39.73 L 119.90,39.85 L 118.03,39.95 L 116.39,40.05 L 115.23,40.01 L 114.33,40.08 L 113.63,40.29 L 112.81,40.52 L 111.72,40.67 L 110.76,40.72 L 109.63,40.71 L 108.17,40.74 L 107.00,40.76 L 105.95,40.71 L 105.19,40.68 L 104.95,40.89 L 104.49,40.99 L 103.94,41.13 L 103.44,41.27 L 103.06,41.50 L 102.30,41.75 L 101.70,42.02 L 101.01,42.40 L 100.35,42.94 L 100.07,42.77 L 99.55,42.48 L 98.99,42.02 L 98.23,41.55 L 97.50,41.25 L 96.74,41.00 L 96.16,40.72 L 95.01,40.09 L 93.63,40.10 L 93.40,41.18 Z" data-name="Schmalegg" data-bezirk="Schmalegg" />
	<path id="stadtteil-19" class="stadtteil-path" d="M 93.40,41.18 L 93.00,42.32 L 91.60,44.07 L 91.04,44.70 L 90.05,45.26 L 89.73,45.63 L 89.59,45.87 L 89.30,46.26 L 88.82,46.66 L 88.18,46.81 L 87.58,47.03 L 87.06,47.23 L 86.76,47.65 L 86.11,48.61 L 85.64,49.60 L 85.72,50.62 L 85.64,50.86 L 85.39,51.46 L 85.14,52.19 L 84.64,53.70 L 84.40,54.33 L 84.05,55.24 L 83.58,56.41 L 83.48,56.65 L 82.78,58.47 L 82.04,60.44 L 81.87,60.89 L 81.34,62.29 L 80.61,64.99 L 80.61,65.01 L 80.55,65.22 L 80.03,67.18 L 79.77,68.13 L 79.45,69.27 L 78.85,71.32 L 78.51,72.65 L 83.86,74.76 L 86.30,75.54 L 88.08,75.97 L 90.68,76.41 L 91.17,76.59 L 93.13,81.42 L 99.08,79.57 L 99.04,79.35 L 101.82,78.77 L 103.87,78.57 L 104.54,78.56 L 104.88,78.75 L 104.16,82.43 L 108.52,83.88 L 107.80,86.38 L 106.62,91.06 L 106.21,92.64 L 105.79,94.23 L 105.38,95.06 L 105.15,95.62 L 104.90,96.23 L 104.73,96.83 L 104.76,97.10 L 104.98,97.40 L 105.70,97.86 L 106.35,98.06 L 106.75,98.40 L 106.69,98.91 L 106.39,99.22 L 104.23,100.99 L 102.92,102.42 L 102.12,103.23 L 101.34,104.09 L 100.93,104.85 L 97.84,104.27 L 94.72,104.16 L 94.44,105.40 L 95.89,106.59 L 97.81,108.37 L 100.75,111.41 L 102.81,113.54 L 100.75,121.28 L 89.76,127.25 L 92.52,131.89 L 95.36,135.61 L 96.86,136.74 L 98.96,137.93 L 101.92,138.50 L 104.38,147.60 L 105.25,149.90 L 107.58,149.65 L 110.33,149.50 L 113.97,149.14 L 117.74,149.01 L 118.42,146.69 L 119.12,145.61 L 119.70,145.04 L 120.27,144.50 L 120.45,144.17 L 121.75,137.41 L 124.81,136.90 L 126.31,138.77 L 127.11,140.12 L 128.16,141.43 L 130.31,143.71 L 132.29,146.62 L 134.21,149.93 L 135.33,152.01 L 136.49,153.97 L 139.01,156.48 L 140.33,157.30 L 141.94,157.74 L 141.42,158.67 L 140.69,159.70 L 139.47,161.05 L 138.38,163.58 L 138.88,163.86 L 137.33,167.35 L 136.88,168.37 L 136.55,168.74 L 137.49,169.23 L 137.26,171.63 L 136.26,175.38 L 139.14,176.86 L 138.04,178.96 L 136.63,182.20 L 135.90,184.72 L 137.30,185.67 L 137.77,185.90 L 137.53,186.91 L 137.02,188.96 L 135.68,193.45 L 135.36,194.41 L 134.19,196.58 L 133.50,198.31 L 132.24,201.30 L 132.07,202.32 L 132.77,202.50 L 132.80,203.17 L 133.95,204.13 L 135.39,205.47 L 136.98,207.24 L 137.92,208.60 L 138.52,210.30 L 138.45,211.33 L 138.31,212.71 L 137.72,213.69 L 135.22,215.34 L 134.45,215.67 L 133.17,216.54 L 132.38,217.31 L 131.88,217.88 L 131.84,218.55 L 131.56,218.69 L 130.46,218.31 L 129.85,217.87 L 129.56,217.46 L 129.10,217.27 L 128.20,217.09 L 127.63,216.94 L 126.98,216.60 L 126.75,216.07 L 126.57,215.80 L 126.24,215.54 L 125.81,215.21 L 125.41,214.73 L 124.87,214.50 L 123.64,214.30 L 122.81,214.21 L 122.01,214.25 L 120.98,214.35 L 120.06,214.41 L 119.67,214.27 L 119.11,213.88 L 118.70,213.40 L 118.31,212.82 L 117.30,214.09 L 117.10,214.22 L 116.88,212.39 L 116.97,211.34 L 117.08,210.50 L 117.05,209.53 L 116.95,208.97 L 116.57,208.32 L 115.87,207.59 L 115.07,208.89 L 115.50,210.10 L 115.84,211.53 L 116.09,213.33 L 116.58,214.73 L 117.09,215.57 L 117.68,216.23 L 117.76,217.36 L 117.52,219.12 L 116.33,224.37 L 117.25,224.57 L 117.83,224.78 L 118.46,224.84 L 118.92,225.20 L 119.58,226.72 Z" data-name="Schmalegg" data-bezirk="Schmalegg" />
	<path id="stadtteil-20" class="stadtteil-path" d="M 262.88,213.40 L 262.88,213.52 L 262.88,216.81 L 262.43,218.57 L 261.56,220.45 L 259.74,223.52 L 259.13,224.17 L 257.18,223.20 L 250.40,236.82 L 255.27,239.34 L 250.52,242.16 L 248.24,243.67 L 245.57,245.63 L 244.96,245.91 L 243.24,247.11 L 244.43,246.21 L 244.61,245.72 L 244.55,245.42 L 243.46,243.63 L 234.72,232.43 L 233.94,232.06 L 233.58,231.71 L 233.31,231.82 L 232.95,231.40 L 221.05,240.78 L 218.38,238.79 L 205.74,230.90 L 202.43,236.06 L 200.74,238.27 L 199.28,240.66 L 196.40,243.56 L 194.59,246.23 L 193.32,245.25 L 192.11,244.01 L 186.67,248.66 L 185.51,248.95 L 183.09,254.26 L 181.40,258.29 L 179.12,256.62 L 176.61,255.16 L 173.76,254.29 L 173.86,255.80 L 173.62,257.40 L 173.16,258.12 L 171.75,259.23 L 170.28,259.10 L 169.30,258.62 L 167.01,256.62 L 167.32,255.78 L 164.31,254.78 L 160.85,253.34 L 162.21,251.64 L 152.81,244.33 L 143.09,234.86 L 142.94,234.47 L 143.06,233.32 L 136.27,232.63 L 135.18,235.73 L 132.89,234.95 L 130.20,233.08 L 128.39,231.33 L 125.98,228.68 L 125.23,227.52 L 122.68,226.71 L 121.12,226.55 L 119.58,226.72 Z" data-name="Schmalegg" data-bezirk="Schmalegg" />
	<path id="stadtteil-21" class="stadtteil-path" d="M 57.38,433.47 L 57.73,433.11 L 57.91,432.08 L 58.54,430.81 L 59.82,429.49 L 62.11,427.81 L 65.32,426.02 L 68.00,424.97 L 71.25,424.26 L 74.57,424.17 L 77.30,422.88 L 79.26,422.58 L 80.43,422.56 L 80.95,422.72 L 81.21,423.09 L 81.12,423.98 L 81.22,424.10 L 82.61,424.20 L 84.41,424.49 L 86.49,424.77 L 88.07,424.88 L 88.92,424.92 L 88.39,426.70 L 89.88,426.84 L 91.08,427.44 L 92.02,428.07 L 92.83,428.63 L 93.45,427.97 L 94.04,427.73 L 94.75,427.79 L 95.64,428.06 L 96.31,428.51 L 96.88,429.22 L 97.25,429.78 L 97.68,430.55 L 103.57,428.84 L 104.28,428.66 L 104.85,429.72 L 105.02,430.64 L 105.38,431.26 L 106.03,431.91 L 106.90,432.72 L 107.82,435.39 L 109.52,432.68 L 110.63,431.63 L 112.35,430.62 L 113.86,429.91 L 115.46,426.63 L 118.02,425.69 L 120.30,426.71 L 117.48,431.71 L 118.49,432.70 L 119.76,432.89 L 120.68,432.67 L 121.42,432.73 L 122.54,433.25 L 124.77,434.61 L 125.18,435.30 L 125.23,436.17 L 124.61,437.65 L 124.39,438.18 L 127.98,439.64 L 129.47,435.75 L 131.66,437.63 L 130.56,439.41 L 131.91,439.46 L 132.53,439.42 L 133.14,438.97 L 133.78,438.39 L 134.00,438.30 L 134.81,438.06 L 135.48,438.02 L 137.11,438.79 L 138.03,439.18 L 139.87,439.24 L 143.29,439.55 L 143.28,440.76 L 142.93,442.04 L 142.44,442.99 L 141.99,443.70 L 141.71,444.20 L 141.54,444.67 L 141.03,445.23 L 140.56,445.70 L 140.26,446.35 L 140.08,447.11 L 142.24,446.77 L 145.99,447.18 L 146.39,445.82 L 147.28,443.07 L 147.96,440.65 L 150.24,441.63 L 152.45,442.44 L 153.57,440.03 L 154.26,436.78 L 154.73,433.41 L 155.37,429.25 L 155.69,428.28 L 157.59,428.43 L 158.11,429.23 L 159.31,429.38 L 159.04,430.97 L 160.69,430.72 L 161.68,428.46 L 165.67,429.97 L 170.45,426.72 L 172.77,421.25 L 175.87,422.86 L 176.05,422.98 L 177.04,421.84 L 178.03,421.05 L 179.37,422.31 L 182.06,424.61 L 182.42,424.84 L 188.95,423.78 L 190.27,422.32 L 191.12,421.32 L 189.93,417.07 L 189.61,412.17 L 188.46,412.39 L 187.98,412.85 L 186.88,413.30 L 186.28,413.36 L 184.85,414.13 L 184.58,414.31 L 184.18,413.41 L 182.80,413.61 L 181.94,413.72 L 181.43,413.84 L 181.40,414.78 L 179.38,415.57 L 178.82,415.85 L 177.93,416.84 L 176.06,415.48 L 175.53,413.95 L 176.58,411.48 L 177.20,410.02 L 178.11,409.21 L 179.00,408.41 L 185.46,408.24 L 187.45,408.50 L 187.66,408.53 L 190.67,409.24 L 192.23,409.22 L 193.29,408.84 L 194.59,408.24 L 195.60,407.81 L 196.09,407.53 L 198.01,410.71 L 198.95,412.28 L 198.89,413.68 L 194.55,421.50 L 193.42,423.46 L 195.78,424.17 L 198.66,425.53 L 199.91,426.35 L 200.13,426.50 L 203.33,427.05 L 216.50,429.64 L 220.77,430.73 L 225.89,431.66 L 230.74,432.57 L 233.78,433.32 L 236.43,433.38 L 237.50,433.40 L 240.13,433.44 L 242.64,433.40 L 246.37,433.55 L 248.73,433.71 L 258.47,434.17 L 259.18,434.65 L 259.54,434.14 L 260.51,433.92 L 261.40,433.97 L 262.76,433.39 L 262.73,431.82 L 264.29,430.05 L 265.29,429.68 L 267.89,430.25 L 269.42,431.08 L 270.76,431.57 L 271.00,431.60 L 271.12,431.70 L 270.96,432.64 L 271.35,433.81 Z" data-name="Taldorf" data-bezirk="Taldorf" />
	<path id="stadtteil-22" class="stadtteil-path" d="M 57.38,433.47 L 52.77,433.44 L 52.75,430.68 L 52.85,430.22 L 53.32,429.04 L 53.92,427.77 L 54.68,426.37 L 55.72,424.59 L 52.55,423.12 L 50.01,428.44 L 45.20,426.92 L 45.90,420.35 L 43.51,420.55 L 40.51,420.35 L 39.75,419.79 L 39.39,417.20 L 41.29,417.62 L 42.06,413.94 L 41.56,410.80 L 41.56,409.37 L 41.24,408.46 L 40.72,407.89 L 39.47,413.35 L 38.96,414.00 L 38.31,414.31 L 37.66,412.30 L 33.37,412.02 L 33.88,410.69 L 34.01,409.68 L 33.72,408.28 L 33.60,407.10 L 33.95,405.66 L 33.93,404.86 L 33.68,403.70 L 33.57,402.89 L 33.75,402.21 L 35.15,402.07 L 38.20,399.57 L 38.30,398.95 L 38.16,395.86 L 38.27,393.94 L 38.85,392.17 L 39.55,390.45 L 39.73,389.90 L 38.58,389.36 L 37.27,388.54 L 37.96,387.60 L 38.27,386.84 L 38.73,383.88 L 39.84,383.55 L 40.29,383.18 L 40.70,382.27 L 39.83,379.76 L 41.09,371.83 L 46.06,372.57 L 49.47,365.67 L 49.48,365.46 L 49.41,363.82 L 52.87,352.74 L 52.97,352.31 L 55.76,352.53 L 53.52,349.97 L 53.11,349.28 L 52.88,348.42 L 52.58,346.52 L 52.29,345.38 L 52.23,343.39 L 52.49,341.18 L 53.05,339.71 L 56.28,339.84 L 59.95,339.81 L 60.81,339.80 L 60.96,338.54 L 60.82,335.71 L 60.51,332.55 L 60.49,331.40 L 58.48,330.94 L 55.64,330.36 L 54.59,330.29 L 54.71,329.77 L 55.20,326.86 L 55.39,324.08 L 55.67,321.29 L 54.60,321.38 L 52.38,322.18 L 47.85,322.20 L 46.69,325.51 L 46.54,326.84 L 45.31,331.23 L 37.54,330.53 L 31.43,329.26 L 30.43,332.60 L 28.31,332.28 L 27.55,335.74 L 29.84,337.19 L 28.41,339.52 L 27.25,340.56 L 24.35,341.27 L 25.77,333.31 L 25.46,326.14 L 23.30,325.70 L 21.68,325.36 L 15.77,323.86 L 14.42,323.71 L 11.76,323.73 L 10.72,321.52 L 10.34,320.95 L 9.98,321.40 L 9.48,323.82 L 8.62,324.82 L 7.66,325.24 L 1.16,324.91 L 0.00,322.51 L 0.52,322.06 L 1.96,322.68 L 1.51,313.59 L 2.71,313.54 L 3.13,321.68 L 4.72,321.49 L 5.79,320.69 L 6.59,319.19 L 9.10,310.18 L 9.73,307.91 L 11.19,298.82 L 13.55,299.93 L 14.10,296.04 L 13.70,294.15 L 12.77,291.70 Z" data-name="Taldorf" data-bezirk="Taldorf" />
	<path id="stadtteil-23" class="stadtteil-path" d="M 119.58,226.72 L 118.85,226.94 L 114.78,228.22 L 112.98,229.29 L 110.17,226.10 L 109.49,227.00 L 108.90,227.73 L 107.91,228.25 L 106.65,228.29 L 106.18,228.45 L 105.69,228.65 L 105.40,228.88 L 105.00,229.31 L 104.63,229.99 L 103.95,230.83 L 103.83,230.96 L 103.39,231.21 L 102.49,231.32 L 101.69,231.53 L 101.01,231.75 L 100.13,232.28 L 100.27,232.51 L 100.39,232.72 L 100.83,233.51 L 101.28,234.39 L 101.48,234.96 L 101.74,235.48 L 101.94,235.83 L 102.75,237.15 L 98.10,240.91 L 94.57,242.95 L 94.01,242.99 L 92.06,243.47 L 87.89,244.26 L 89.60,247.59 L 89.74,247.80 L 90.64,247.32 L 91.79,246.94 L 94.75,246.37 L 96.65,246.08 L 98.33,246.10 L 99.23,246.25 L 96.26,254.58 L 94.90,256.49 L 94.60,256.97 L 93.21,258.97 L 90.72,257.43 L 88.53,260.08 L 88.30,260.80 L 87.99,260.63 L 87.23,260.35 L 86.16,260.05 L 84.83,259.73 L 82.10,259.46 L 82.11,257.56 L 82.38,254.55 L 84.33,255.00 L 85.55,250.29 L 85.38,248.50 L 83.81,248.87 L 79.00,248.39 L 75.32,247.41 L 75.00,256.26 L 72.24,256.34 L 71.12,256.34 L 69.63,256.36 L 67.27,256.40 L 67.23,256.22 L 65.76,255.53 L 64.29,254.67 L 64.52,253.64 L 64.10,253.48 L 63.78,253.42 L 62.40,252.84 L 61.10,252.23 L 60.27,251.62 L 59.73,250.57 L 59.32,248.94 L 60.01,248.95 L 60.07,248.67 L 60.39,248.02 L 60.69,247.56 L 61.20,247.11 L 61.86,246.85 L 62.88,246.79 L 62.73,246.30 L 62.55,245.43 L 62.14,244.45 L 61.90,243.91 L 61.87,243.48 L 61.97,243.03 L 62.08,242.32 L 63.31,240.63 L 63.12,238.09 L 61.13,238.42 L 59.12,238.49 L 57.08,238.03 L 56.59,237.20 L 55.94,236.93 L 55.43,236.99 L 54.93,237.11 L 54.45,237.56 L 54.07,238.52 L 53.33,239.44 L 53.02,242.36 L 50.49,245.13 L 49.20,246.08 L 47.94,246.41 L 46.11,246.67 L 47.07,249.44 L 41.45,251.79 L 39.66,252.68 L 33.54,257.50 L 30.59,259.97 L 29.88,260.84 L 29.48,261.99 L 27.34,269.35 L 26.01,277.09 L 27.37,277.42 L 26.10,282.22 L 22.42,286.19 L 21.39,286.59 L 18.00,287.19 L 13.87,290.72 L 12.77,291.70 Z" data-name="Taldorf" data-bezirk="Taldorf" />
	<path id="stadtteil-24" class="stadtteil-path" d="M 341.90,222.68 L 337.53,220.77 L 337.83,214.41 L 338.14,213.35 L 338.33,212.71 L 338.49,211.76 L 335.61,210.74 L 327.26,210.17 L 325.65,209.67 L 324.11,208.90 L 322.66,208.38 L 317.66,219.33 L 315.79,218.24 L 315.46,217.84 L 313.97,217.25 L 313.72,217.78 L 308.69,220.30 L 306.15,215.06 L 303.62,218.69 L 302.33,220.21 L 298.68,223.90 L 297.58,226.33 L 296.54,227.47 L 294.95,228.88 L 294.77,228.94 L 294.54,228.69 L 293.98,227.60 L 293.81,226.91 L 293.10,225.63 L 292.32,224.47 L 291.57,223.81 L 291.51,223.19 L 291.98,222.64 L 291.37,221.80 L 291.83,220.95 L 291.61,219.53 L 291.42,219.26 L 290.37,219.36 L 288.99,218.44 L 288.81,218.47 L 288.05,219.41 L 287.79,219.38 L 287.13,218.52 L 286.48,218.29 L 286.21,218.35 L 285.51,218.96 L 284.91,219.14 L 284.34,219.06 L 283.47,218.57 L 282.34,218.60 L 281.90,218.45 L 281.12,217.32 L 279.64,216.54 L 279.15,216.16 L 278.95,215.82 L 278.97,215.54 L 279.38,214.59 L 279.13,214.05 L 278.37,214.15 L 278.00,214.08 L 276.89,213.29 L 275.37,212.48 L 274.75,212.30 L 274.51,212.29 L 273.67,212.76 L 270.22,213.23 L 269.86,213.50 L 269.45,213.54 L 268.71,213.08 L 268.26,212.29 L 268.02,212.24 L 267.82,212.84 L 267.58,213.12 L 267.22,213.15 L 266.57,212.71 L 266.30,212.65 L 265.88,213.40 L 265.55,213.63 L 263.87,214.20 L 263.59,214.19 L 263.31,213.60 L 262.88,213.40 Z" data-name="Taldorf" data-bezirk="Taldorf" />
	<path id="stadtteil-25" class="stadtteil-path" d="M 426.88,152.55 A 16.80,16.80 0 1,0 460.48,152.55 A 16.80,16.80 0 1,0 426.88,152.55 Z" data-name="Veitsburg" data-bezirk="Ravensburg" />
	<path id="stadtteil-26" class="stadtteil-path" d="M 509.74,464.54 A 16.80,16.80 0 1,0 543.34,464.54 A 16.80,16.80 0 1,0 509.74,464.54 Z" data-name="Weißenau" data-bezirk="Eschach" />
	<path id="stadtteil-27" class="stadtteil-path" d="M 470.95,333.45 A 16.80,16.80 0 1,0 504.55,333.45 A 16.80,16.80 0 1,0 470.95,333.45 Z" data-name="Obereschach" data-bezirk="Eschach" />
	<path id="stadtteil-28" class="stadtteil-path" d="M 552.04,249.56 A 16.80,16.80 0 1,0 585.64,249.56 A 16.80,16.80 0 1,0 552.04,249.56 Z" data-name="Gornhofen" data-bezirk="Eschach" />
	<path id="stadtteil-29" class="stadtteil-path" d="M 107.80,459.29 A 16.80,16.80 0 1,0 141.40,459.29 A 16.80,16.80 0 1,0 107.80,459.29 Z" data-name="Oberzell" data-bezirk="Taldorf" />
	<path id="stadtteil-30" class="stadtteil-path" d="M 54.91,385.88 A 16.80,16.80 0 1,0 88.51,385.88 A 16.80,16.80 0 1,0 54.91,385.88 Z" data-name="Bavendorf" data-bezirk="Taldorf" />
	<path id="stadtteil-31" class="stadtteil-path" d="M 139.53,338.69 A 16.80,16.80 0 1,0 173.13,338.69 A 16.80,16.80 0 1,0 139.53,338.69 Z" data-name="Taldorf" data-bezirk="Taldorf" />
	<path id="stadtteil-32" class="stadtteil-path" d="M 23.18,511.73 A 16.80,16.80 0 1,0 56.78,511.73 A 16.80,16.80 0 1,0 23.18,511.73 Z" data-name="Adelsreute" data-bezirk="Taldorf" />
  </g>
  <g id="map-labels-group" style="pointer-events: none;"></g>
</svg>